<svg width="177" height="20" viewBox="0 0 177 20" fill="none" xmlns="http://www.w3.org/2000/svg">
<path d="M0.525391 18.3335H11.7782C16.0388 18.3335 17.8433 16.2268 17.8433 13.1601C17.8433 11.2668 16.5902 9.53346 14.1591 9.16013V9.13346C16.0137 8.65346 16.941 7.1068 16.941 5.3468C16.941 2.84013 15.3119 0.786795 10.6504 0.786795H0.525391V18.3335ZM2.15441 8.57346V2.33346H10.5251C14.3095 2.33346 15.4623 3.85346 15.4623 5.56013C15.4623 7.1868 14.2593 8.57346 11.7281 8.57346H2.15441ZM2.15441 16.7868V9.9868H11.9286C14.8358 9.9868 16.2894 11.4001 16.2894 13.0268C16.2894 15.2401 14.936 16.7868 11.3772 16.7868H2.15441ZM22.7853 18.3335H24.4394V0.786795H22.7853V18.3335ZM36.7542 18.3335H38.4083V2.33346H46.378V0.786795H28.7845V2.33346H36.7542V18.3335ZM58.3888 18.6535C64.7295 18.6535 67.5364 15.0001 67.5364 11.8535V11.6935H65.9826V11.8001C65.9826 14.3868 63.5766 17.1068 58.3888 17.1068C52.3739 17.1068 50.0432 13.4001 50.0432 9.5868C50.0432 5.16013 52.9253 2.01346 58.2885 2.01346C63.8272 2.01346 65.8572 5.24013 65.8572 7.3468V7.45346H67.4111V7.2668C67.4111 4.60013 65.0051 0.466797 58.2384 0.466797C51.8226 0.466797 48.3891 4.52013 48.3891 9.5868C48.3891 14.0668 51.0456 18.6535 58.3888 18.6535ZM79.3816 18.3335H81.0357V11.0535L90.9853 0.786795H88.7297L80.3089 9.56013H80.2588L71.8129 0.786795H69.4571L79.3816 11.0535V18.3335Z" fill="#F7931A"/>
<path d="M94.5947 18.3335H105.447C111.512 18.3335 112.915 16.0401 112.915 13.1868C112.915 11.6135 112.038 9.69346 109.256 9.1868V9.16013C111.461 8.5468 112.088 6.84013 112.088 5.4268C112.088 3.37346 111.161 0.786795 105.071 0.786795H94.5947V18.3335ZM99.4066 7.9068V4.3068H104.895C107.126 4.3068 107.903 5.08013 107.903 6.09346C107.903 7.21346 107.201 7.9068 105.196 7.9068H99.4066ZM99.4066 14.8401V10.8935H105.321C107.552 10.8935 108.354 11.7735 108.354 12.7335C108.354 14.0135 107.652 14.8401 105.221 14.8401H99.4066ZM116.731 18.3335H132.57V14.5468H121.542V11.0001H129.813V8.01346H121.542V4.57346H132.319V0.786795H116.731V18.3335ZM142.059 18.3335H146.871V4.57346H153.362V0.786795H135.568V4.57346H142.059V18.3335ZM165.547 18.6535C174.043 18.6535 175.447 15.3735 175.447 12.6001C175.447 10.9201 174.544 9.53346 172.965 8.84013C171.562 8.2268 169.507 8.01346 167.101 7.85346C165.246 7.72013 162.765 7.61346 161.863 7.32013C161.161 7.08013 160.81 6.68013 160.81 6.01346C160.81 4.76013 162.189 3.9868 165.497 3.9868C168.905 3.9868 170.384 4.92013 170.384 6.52013H174.695C174.695 3.3468 173.341 0.466797 165.497 0.466797C158.956 0.466797 155.999 3.13346 155.999 6.3868C155.999 8.09346 156.801 9.3468 158.003 10.0135C159.357 10.7601 161.763 11.0535 163.943 11.1868C165.773 11.2935 168.304 11.4001 169.331 11.6401C170.209 11.8535 170.635 12.2801 170.635 13.0001C170.635 14.2001 169.908 15.1335 165.547 15.1335C161.412 15.1335 160.409 13.9335 160.409 12.4401H156.099C156.099 14.7868 156.976 18.6535 165.547 18.6535Z" fill="white"/>
</svg>
