<svg width="196" height="196" viewBox="0 0 196 196" fill="none" xmlns="http://www.w3.org/2000/svg">
<circle cx="98" cy="98" r="98" fill="#62657C"/>
<g opacity="0.5">
<path d="M76.0358 125.563L75.9745 125.624L75.9102 125.563H70.413C69.607 125.562 68.8343 125.241 68.2646 124.671C67.695 124.1 67.375 123.327 67.375 122.521V73.4786C67.3806 72.6743 67.7024 71.9045 68.2708 71.3355C68.8393 70.7665 69.6087 70.4439 70.413 70.4375H125.587C127.265 70.4375 128.625 71.8003 128.625 73.4786V122.521C128.619 123.326 128.298 124.096 127.729 124.665C127.161 125.234 126.391 125.556 125.587 125.563H76.0358ZM122.5 107.188V76.5625H73.5V119.438L104.125 88.8125L122.5 107.188ZM122.5 115.848L104.125 97.4733L82.1608 119.438H122.5V115.848ZM85.75 94.9375C84.1255 94.9375 82.5676 94.2922 81.419 93.1435C80.2703 91.9949 79.625 90.437 79.625 88.8125C79.625 87.188 80.2703 85.6301 81.419 84.4815C82.5676 83.3328 84.1255 82.6875 85.75 82.6875C87.3745 82.6875 88.9324 83.3328 90.081 84.4815C91.2297 85.6301 91.875 87.188 91.875 88.8125C91.875 90.437 91.2297 91.9949 90.081 93.1435C88.9324 94.2922 87.3745 94.9375 85.75 94.9375Z" fill="white"/>
</g>
</svg>
