<svg viewBox="0 0 145 164" fill="none" xmlns="http://www.w3.org/2000/svg">
<path d="M47.1847 127.445C55.567 120.848 61.7579 111.888 64.9493 101.733C65.5449 102.76 65.8097 103.943 65.7078 105.124C65.5185 106.731 65.0458 108.292 64.3115 109.735C60.4397 117.961 54.9906 125.354 48.2708 131.497C45.3116 130.389 42.4318 129.081 39.6514 127.583L47.1847 127.445Z" fill="#CF5B44"/>
<path d="M35.8716 115.486C36.2458 116.005 36.6639 116.49 37.1214 116.937H47.8181C53.2828 111.391 55.3773 107.013 56.0669 101.313C57.1782 100.57 58.4169 100.038 59.7215 99.7417C60.4804 99.5703 61.2682 99.5701 62.0273 99.7409C62.7863 99.9117 63.4975 100.249 64.1087 100.729C64.4512 101.013 64.7427 101.352 64.9707 101.733C61.787 111.904 55.5955 120.88 47.2061 127.488L39.7417 127.626C33.4014 124.185 27.5949 119.847 22.5029 114.748C26.65 115.363 30.8785 115.147 34.9407 114.113C35.2258 114.587 35.5366 115.046 35.8716 115.486Z" fill="url(#paint0_linear)"/>
<path d="M32.2052 106.927C32.7983 109.414 33.723 111.811 34.9548 114.053C30.8926 115.087 26.6641 115.303 22.517 114.688C21.8792 114.053 21.25 113.409 20.638 112.748C18.605 110.572 16.7026 108.279 14.9406 105.88C14.5214 100.512 15.3655 95.121 17.4057 90.1352C19.2719 89.5454 21.1873 89.1231 23.129 88.8733C24.8228 88.6475 26.5321 88.5585 28.2403 88.6071C29.2808 88.5974 30.3163 88.751 31.3088 89.0621C30.4664 95.0199 30.7707 101.083 32.2052 106.927Z" fill="url(#paint1_linear)"/>
<path d="M48.8858 93.5692C51.0751 96.8486 51.6354 102.403 48.1618 104.292L47.9721 104.395C47.3804 102.623 47.1562 100.749 47.3133 98.8886C47.4704 97.0277 48.0053 95.2179 48.8858 93.5692Z" fill="#65A0A6"/>
<path d="M48.4679 82.5378C53.743 86.8818 56.6909 92.3504 56.2254 99.1497C56.2254 99.8965 56.122 100.618 56.0358 101.313C55.3462 107.013 53.2517 111.392 47.787 116.938C47.4164 116.371 47.0716 115.787 46.7441 115.221C43.9431 110.165 42.62 104.43 42.9247 98.6639C43.2294 92.898 45.1497 87.3323 48.4679 82.5979V82.5378ZM48.1663 104.266C51.614 102.378 51.0796 96.8231 48.8903 93.5437C48.0098 95.1925 47.4749 97.0022 47.3178 98.8631C47.1608 100.724 47.3849 102.597 47.9766 104.369L48.1663 104.266Z" fill="#25394D"/>
<path d="M19.5613 114.113C18.8028 115.031 17.9408 115.967 16.9755 116.937C16.6135 116.371 16.2601 115.787 15.9325 115.22C13.1316 110.165 11.8085 104.43 12.1132 98.6636C12.4179 92.8977 14.3382 87.3321 17.6564 82.5976C19.8646 84.3629 21.7261 86.5197 23.147 88.9591C21.2021 89.1798 19.2809 89.5734 17.4064 90.1352C15.3662 95.121 14.5221 100.512 14.9413 105.88C16.7033 108.279 18.6058 110.572 20.6387 112.748C20.3026 113.203 19.9492 113.649 19.5613 114.113Z" fill="#25394D"/>
<path d="M15.9359 115.186L5.03239 115.487C3.28548 112.877 2.04311 109.965 1.36914 106.901C5.17317 106.73 8.97433 106.681 12.7726 106.756C13.4091 109.704 14.4748 112.544 15.9359 115.186Z" fill="#39546E"/>
<path d="M34.9498 114.053C33.718 111.81 32.7933 109.414 32.2002 106.927C36.0042 106.755 39.8054 106.707 43.6037 106.781C44.2494 109.72 45.3177 112.551 46.7756 115.186L35.8721 115.486C35.5381 115.026 35.2302 114.547 34.9498 114.053Z" fill="#39546E"/>
<path d="M15.9366 115.186C16.2642 115.787 16.6176 116.371 16.9796 116.903H6.29153C5.82888 116.458 5.40768 115.973 5.0331 115.452L15.9366 115.186ZM1.36986 106.928C5.17388 106.756 8.97503 106.707 12.7733 106.782C12.2581 104.436 12.0209 102.039 12.0665 99.6389C12.1955 93.5175 14.1322 87.5696 17.6346 82.5378H2.05079C-0.612603 90.0582 -0.509171 99.5788 1.36986 106.928Z" fill="url(#paint2_linear)"/>
<path d="M47.8221 116.938H37.1254C36.6679 116.491 36.2498 116.005 35.8756 115.487L46.7792 115.186C47.1067 115.787 47.4515 116.371 47.8221 116.938ZM32.2038 106.928C36.0078 106.756 39.8089 106.707 43.6072 106.782C42.6987 102.625 42.6615 98.3262 43.498 94.1545C44.3345 89.9828 46.0266 86.028 48.4686 82.5378H32.8847C32.1492 84.6658 31.621 86.8593 31.3074 89.0881C30.4683 95.0374 30.7725 101.091 32.2038 106.928Z" fill="url(#paint3_linear)"/>
<path style="mix-blend-mode:screen" d="M1.37269 84.7269H16.2411C14.7715 87.2702 13.6689 90.007 12.9658 92.8566L0.114258 92.3415C0.283942 89.7686 0.705418 87.2182 1.37269 84.7269Z" fill="url(#paint4_linear)"/>
<path style="mix-blend-mode:screen" d="M32.1815 84.7269H47.0585C45.5862 87.2698 44.4807 90.0066 43.7745 92.8566L30.9316 92.3415C31.0943 89.7684 31.5129 87.2176 32.1815 84.7269Z" fill="url(#paint5_linear)"/>
<path d="M84.3967 141.576C85.9224 148.856 85.2587 155.981 84.4915 163.124C82.9056 163.425 81.3024 163.639 79.6733 163.785C80.3219 159.342 80.6331 154.857 80.6042 150.367C80.7161 148.185 80.3818 146.003 79.6216 143.954C78.5356 141.378 76.398 139.404 74.1914 137.592C74.7745 136.962 75.4555 136.429 76.2083 136.013C76.9737 135.592 77.8337 135.371 78.7079 135.371C79.5822 135.371 80.4422 135.592 81.2076 136.013C83.1383 137.12 83.9571 139.455 84.3967 141.576Z" fill="#CF5B44"/>
<path d="M79.6304 143.954C80.3905 146.003 80.7248 148.185 80.613 150.367C80.6418 154.857 80.3307 159.342 79.6821 163.785C78.3633 163.905 77.0273 163.983 75.6913 164C76.2034 156.339 74.6248 148.682 71.123 141.842C71.623 140.984 72.1574 140.211 72.709 139.447C73.1651 138.797 73.6632 138.178 74.2002 137.593C76.4067 139.404 78.5443 141.404 79.6304 143.954Z" fill="url(#paint6_linear)"/>
<path d="M71.1188 141.842C74.6145 148.672 76.1928 156.316 75.6871 163.965C71.8898 164.05 68.0933 163.763 64.3525 163.107C64.9642 155.6 67.2777 148.329 71.1188 141.842Z" fill="url(#paint7_linear)"/>
<path style="mix-blend-mode:screen" d="M73.5533 139.928C69.9406 144.268 67.5229 149.469 66.5371 155.02C67.7011 155.801 69.0727 156.218 70.4762 156.218C71.8797 156.218 73.2512 155.801 74.4152 155.02C75.4245 154.172 76.2105 153.092 76.7047 151.872C77.1989 150.653 77.3865 149.331 77.251 148.023C77.0786 145.319 75.1824 142.306 73.5533 139.928Z" fill="url(#paint8_linear)"/>
<path d="M99.1233 93.8437C110.863 98.6942 117.034 110.49 113.302 120.217C111.406 125.368 107.605 129.66 103.252 132.751C97.2184 137.043 90.0988 140.34 82.2638 138.76C81.301 138.56 80.3534 138.293 79.428 137.962C81.8544 138.411 84.3485 138.346 86.7483 137.772C89.148 137.198 91.3997 136.128 93.3569 134.631C98.451 130.707 101.502 124.415 102.985 117.881C104.002 113.297 104.304 108.206 101.692 103.768C98.4596 98.2478 91.0728 94.9769 83.979 94.4189C80.5893 94.1726 77.182 94.3427 73.834 94.9254C77.7145 92.9173 81.9893 91.7799 86.3583 91.593C90.7272 91.4061 95.0843 92.1744 99.1233 93.8437Z" fill="#CF5B44"/>
<path d="M101.712 103.734C104.297 108.172 104.022 113.263 103.005 117.848C101.522 124.381 98.4707 130.673 93.3767 134.597C91.4194 136.094 89.1677 137.164 86.768 137.738C84.3683 138.312 81.8741 138.377 79.4477 137.928C73.5485 135.726 68.5535 131.63 65.2516 126.287C61.6142 120.277 60.5971 113.255 62.6658 107.228C64.6867 101.844 68.6945 97.4319 73.871 94.8915C77.2208 94.3231 80.628 94.1674 84.016 94.4279C91.1098 94.943 98.4966 98.2138 101.712 103.734ZM83.3523 111.778C83.8879 110.372 84.0401 108.849 83.7933 107.366C83.5465 105.882 82.9096 104.49 81.9473 103.33C81.2542 102.508 80.3853 101.849 79.4041 101.404C78.4228 100.958 77.354 100.736 76.2758 100.755C76.3262 98.7186 76.768 96.7107 77.5773 94.8399C75.9214 96.5672 74.7735 98.7143 74.2588 101.047C72.6295 101.506 71.1268 102.33 69.8648 103.454C68.6028 104.579 67.6147 105.975 66.9755 107.537C66.7237 108.141 66.5583 108.776 66.4841 109.426C66.3873 110.474 66.5139 111.53 66.8555 112.526C67.1972 113.521 67.7462 114.434 68.4666 115.203C69.6257 116.449 71.2072 117.223 72.9056 117.375C73.2159 117.375 73.5262 117.418 73.8537 117.427C73.8537 123.909 76.8016 130.639 81.2664 135.91C77.5773 130.107 75.5087 123.668 75.8534 117.247C79.1288 116.629 82.1542 114.508 83.3523 111.778Z" fill="url(#paint9_linear)"/>
<path d="M81.9417 103.33C82.9039 104.489 83.5409 105.881 83.7876 107.365C84.0344 108.849 83.8823 110.371 83.3466 111.778C82.1485 114.508 79.1231 116.628 75.8133 117.246C75.503 123.668 77.5372 130.124 81.2435 135.91C76.7787 130.639 73.8739 123.891 73.8308 117.426C73.5033 117.426 73.193 117.426 72.8827 117.375C71.1843 117.222 69.6028 116.449 68.4437 115.203C67.7233 114.433 67.1743 113.521 66.8326 112.525C66.491 111.529 66.3644 110.473 66.4612 109.425C66.5354 108.776 66.7008 108.14 66.9525 107.537C67.5917 105.975 68.5799 104.578 69.8419 103.454C71.1039 102.329 72.6066 101.506 74.2359 101.046C74.7555 98.7119 75.9094 96.5647 77.5716 94.8395C76.764 96.7221 76.328 98.742 76.2874 100.789C77.36 100.769 78.4237 100.986 79.4016 101.426C80.3795 101.865 81.2471 102.516 81.9417 103.33ZM82.9157 109.958C83.0695 109.106 83.0695 108.234 82.9157 107.382C82.9157 107.296 82.9157 107.21 82.864 107.124C82.8122 107.039 82.864 106.944 82.8036 106.85C82.7433 106.755 82.8036 106.704 82.7433 106.627C82.683 106.549 82.6312 106.257 82.5623 106.069C82.5487 106.027 82.5314 105.987 82.5106 105.948C82.475 105.837 82.4318 105.728 82.3813 105.622C82.2778 105.399 82.1658 105.184 82.0451 104.97C81.9347 104.773 81.8109 104.583 81.6745 104.403C81.3252 103.913 80.9005 103.482 80.4161 103.124C80.3219 103.05 80.2241 102.982 80.123 102.918C79.097 102.268 77.8874 101.967 76.6752 102.059C72.9861 102.274 70.0211 105.304 68.9178 108.069C68.6964 108.584 68.5485 109.127 68.4782 109.683C68.3777 110.429 68.426 111.187 68.6205 111.915C68.8149 112.642 69.1516 113.324 69.6113 113.921C70.071 114.519 70.6445 115.02 71.2991 115.396C71.9537 115.772 72.6764 116.016 73.4257 116.113C75.743 116.293 78.0499 115.655 79.942 114.31C81.0867 113.534 81.9984 112.463 82.5795 111.211C82.6515 111.046 82.712 110.877 82.7605 110.704C82.8316 110.46 82.8834 110.21 82.9157 109.958Z" fill="#CF5B44"/>
<path d="M82.8945 107.374C83.0483 108.226 83.0483 109.098 82.8945 109.95C82.8525 110.194 82.792 110.435 82.7135 110.671C82.6649 110.843 82.6045 111.013 82.5325 111.177C81.9513 112.429 81.0397 113.5 79.8949 114.276C79.1589 114.801 78.3522 115.22 77.4987 115.521C76.374 115.936 75.1811 116.137 73.982 116.114C73.0699 115.493 72.3465 114.635 71.8905 113.632C71.4345 112.63 71.2636 111.523 71.3962 110.43C71.4737 109.878 71.6244 109.338 71.8444 108.825C72.9822 106.086 75.9731 103.09 79.6019 102.901H80.007L80.3 103.107C80.7845 103.465 81.2092 103.897 81.5585 104.386C81.6949 104.567 81.8187 104.756 81.9291 104.953C82.0498 105.168 82.1618 105.382 82.2653 105.606C82.3158 105.711 82.3589 105.82 82.3945 105.932C82.4154 105.97 82.4327 106.01 82.4463 106.052C82.5152 106.241 82.5669 106.421 82.6273 106.61C82.6876 106.799 82.6273 106.764 82.6876 106.833C82.7479 106.902 82.7393 107.013 82.7479 107.108C82.7566 107.202 82.8859 107.305 82.8945 107.374Z" fill="#C9FFEF"/>
<path d="M80.0995 102.91H79.6944C76.0225 103.099 73.0316 106.095 71.9369 108.833C71.7169 109.346 71.5662 109.886 71.4887 110.439C71.3561 111.531 71.5271 112.639 71.983 113.641C72.439 114.643 73.1625 115.501 74.0745 116.122C75.2737 116.145 76.4665 115.944 77.5912 115.53C76.2778 116.023 74.8692 116.214 73.4712 116.088C72.7218 115.99 71.9991 115.747 71.3446 115.371C70.69 114.994 70.1164 114.493 69.6568 113.896C69.1971 113.298 68.8604 112.617 68.666 111.889C68.4715 111.162 68.4231 110.403 68.5237 109.657C68.594 109.102 68.7419 108.558 68.9633 108.044C70.0665 105.305 73.0316 102.274 76.7207 102.034C77.9117 101.962 79.0949 102.269 80.0995 102.91Z" fill="#44CFB8"/>
<path d="M81.6232 109.502C81.3886 110.032 81.0436 110.505 80.6112 110.892C80.1787 111.278 79.6687 111.568 79.1149 111.743C78.4965 111.923 77.8471 111.972 77.2087 111.886C76.5702 111.8 75.957 111.582 75.4086 111.245C74.8703 110.94 74.4309 110.487 74.1423 109.941C73.8537 109.395 73.7278 108.778 73.7795 108.163C73.4347 109.245 72.9606 110.593 73.3916 111.726C73.6202 112.321 73.976 112.86 74.4344 113.305C74.8928 113.749 75.4429 114.09 76.0464 114.301C76.7543 114.52 77.5079 114.548 78.2302 114.383C78.9525 114.217 79.6177 113.863 80.1579 113.357C81.1577 112.396 81.2439 110.816 81.6232 109.502Z" fill="#A4EDE0"/>
<path d="M78.623 109.116C79.7176 108.799 80.9761 108.069 80.7089 106.841C80.4675 105.76 78.985 105.124 77.8731 105.27C75.2614 105.691 75.3562 110.069 78.623 109.116Z" fill="#EBFFFC"/>
<path style="mix-blend-mode:screen" d="M92.2217 101.888C92.7495 102.746 93.0466 103.726 93.0844 104.732C93.1221 105.737 92.8992 106.736 92.4372 107.631C91.4701 109.383 90.1247 110.899 88.4981 112.07C84.7073 115.031 80.4084 117.282 75.8103 118.714C75.8103 118.228 75.8103 117.739 75.8103 117.246C79.1202 116.628 82.1456 114.508 83.3437 111.778C83.8793 110.372 84.0315 108.849 83.7847 107.365C83.5379 105.882 82.901 104.489 81.9387 103.33C81.2452 102.508 80.3762 101.85 79.3951 101.404C78.4139 100.959 77.3453 100.737 76.2672 100.755C76.3118 99.2178 76.5611 97.6935 77.0084 96.2219C80.7716 96.1783 84.497 96.9732 87.912 98.5484C89.6229 99.257 91.1114 100.41 92.2217 101.888ZM69.5009 120.183C70.9916 119.951 72.4679 119.636 73.9227 119.238C73.8623 118.629 73.8279 118.019 73.8279 117.41C73.5003 117.41 73.19 117.41 72.8797 117.358C71.1813 117.206 69.5999 116.432 68.4407 115.186C67.7203 114.416 67.1713 113.504 66.8297 112.508C66.488 111.513 66.3615 110.456 66.4583 109.408C66.5325 108.759 66.6978 108.123 66.9496 107.52C67.5888 105.958 68.5769 104.562 69.8389 103.437C71.101 102.312 72.6037 101.489 74.233 101.029C74.6122 99.3117 75.3364 97.688 76.362 96.2562C74.0658 96.3039 71.7971 96.7633 69.6647 97.6127C66.4834 100.096 64.0696 103.423 62.7002 107.211C61.4535 110.952 61.2833 114.967 62.2089 118.8C62.4735 119.049 62.7623 119.27 63.0708 119.461C64.9757 120.672 67.3805 120.534 69.5009 120.183Z" fill="url(#paint10_linear)"/>
<path d="M104.007 154.822C105.337 157.862 106.95 160.77 108.825 163.51C107.222 163.401 105.613 163.25 103.998 163.055C103.743 160.317 103.745 157.56 104.007 154.822Z" fill="#94122E"/>
<path d="M120.344 153.483C121.887 156.557 123.318 159.656 124.602 162.815C119.391 163.671 114.096 163.904 108.829 163.51C106.954 160.771 105.341 157.862 104.011 154.822C104.011 154.694 104.011 154.565 104.011 154.436C104.33 151.363 104.709 147.448 106.338 144.872C106.708 144.234 107.243 143.706 107.887 143.344C108.531 142.982 109.261 142.798 110.001 142.812C115.026 143.13 118.405 149.603 120.344 153.483Z" fill="url(#paint11_linear)"/>
<path d="M104.015 154.823C103.756 157.561 103.756 160.317 104.015 163.055C103.153 162.944 102.213 162.824 101.308 162.695C99.9264 154.851 99.4607 146.874 99.9205 138.923C100.404 144.41 101.787 149.781 104.015 154.823Z" fill="#CF5B44"/>
<path d="M126.813 162.386C126.072 162.549 125.339 162.686 124.598 162.815C123.314 159.656 121.883 156.557 120.34 153.483C118.401 149.603 115.022 143.13 109.997 142.812C109.257 142.798 108.527 142.982 107.882 143.344C107.238 143.706 106.703 144.234 106.333 144.873C104.704 147.448 104.325 151.363 104.006 154.436C104.006 154.565 104.006 154.694 104.006 154.823C101.776 149.782 100.39 144.411 99.9033 138.923C100.087 135.856 100.406 132.825 100.86 129.832C100.907 129.09 101.167 128.377 101.608 127.777C102.05 127.178 102.655 126.717 103.351 126.449C104.147 126.264 104.972 126.24 105.778 126.378C106.583 126.517 107.353 126.815 108.04 127.256C109.473 128.153 110.759 129.265 111.85 130.553C119.926 139.335 125.046 151.088 126.813 162.386Z" fill="url(#paint12_linear)"/>
<path style="mix-blend-mode:screen" d="M104.432 145.259C105.414 148.118 106.949 151.165 109.604 152.402C110.886 152.958 112.326 153.038 113.663 152.627C114.999 152.216 116.143 151.341 116.887 150.161C119.559 146.006 117.697 140.28 115.034 135.987C113.043 132.759 107.362 125.256 103.346 127.806C102.01 128.664 101.837 130.613 101.915 132.339C102.131 136.743 102.979 141.094 104.432 145.259Z" fill="url(#paint13_linear)"/>
<path d="M102.309 93.7665L102.215 93.5176C103.585 95.2345 104.688 96.9515 106.059 98.6685C102.87 101.089 98.6548 101.587 94.6641 101.931C90.483 102.418 86.2619 102.464 82.0711 102.068C77.8497 101.468 73.8878 99.6814 70.6504 96.9172C71.5641 96.1687 72.5873 95.5637 73.6844 95.1229C82.571 91.4572 92.8109 92.4702 102.309 93.7665Z" fill="#CF5B44"/>
<path d="M116.743 45.4418C115.407 56.6538 110.425 67.1875 105.262 77.2576C102.676 78.6312 99.9441 80.2452 97.3841 81.6188C95.9958 86.9457 95.7607 92.5058 96.6946 97.9301C85.0605 98.6712 73.3824 97.5495 62.1049 94.6077C60.8503 89.4497 60.0201 84.1984 59.6226 78.9059C57.2953 77.1889 52.2788 72.493 52.2788 72.493C52.2788 72.493 51.029 62.9379 50.8566 59.6928C50.3797 52.7903 51.0229 45.8563 52.7615 39.1577C55.8128 27.8942 62.9669 17.4292 73.3533 12.0121C83.7396 6.59501 97.4186 7.11011 106.391 14.5876C115.08 21.8934 118.088 34.2299 116.743 45.4418Z" fill="url(#paint14_radial)"/>
<path d="M102.214 46.5408C102.162 46.7898 102.102 47.0301 102.042 47.2791C100.904 51.9493 99.292 56.8341 98.0508 61.5473C95.1261 60.9569 92.1239 60.8496 89.1642 61.2296C88.4359 57.2411 88.2129 53.1773 88.5005 49.1334C88.8712 45.1243 90.3796 41.0722 93.405 38.4109C95.1892 36.8398 97.3268 36.153 99.1886 37.8528C100.829 39.4606 101.861 41.5835 102.111 43.8623C102.219 44.7508 102.253 45.6466 102.214 46.5408Z" fill="#C9FFEF"/>
<path d="M66.3093 61.8049C64.6882 61.7019 63.0612 61.745 61.4479 61.9337C60.6688 58.986 60.1781 55.9701 59.9826 52.9282C59.8032 49.9213 60.536 46.9301 62.0858 44.3434C62.414 43.7502 62.8586 43.2287 63.3931 42.8098C63.9276 42.391 64.5412 42.0834 65.1974 41.9053C65.9307 41.7813 66.6836 41.951 67.2919 42.3775C66.5851 48.8419 65.93 55.3835 66.3093 61.8049Z" fill="#C9FFEF"/>
<path d="M89.1701 61.2295C92.1297 60.8495 95.132 60.9569 98.0566 61.5472C97.9101 62.1052 97.7722 62.6461 97.6343 63.1955C93.7268 62.8235 89.8108 62.5717 85.8861 62.44C83.6243 54.1762 83.7949 45.4391 86.3774 37.2691C86.9572 35.2132 87.9063 33.279 89.1787 31.5601C89.8237 30.7056 90.6315 29.9859 91.5558 29.4424C92.4801 28.8988 93.5029 28.542 94.5658 28.3923C95.9046 28.3285 97.2371 28.6114 98.4335 29.2132C99.6298 29.815 100.649 30.7153 101.392 31.8263C102.846 34.0818 103.54 36.7401 103.375 39.4153C103.244 41.8217 102.857 44.2074 102.22 46.5322C102.259 45.6409 102.224 44.7479 102.116 43.8623C101.867 41.5835 100.835 39.4606 99.1944 37.8529C97.3326 36.1359 95.195 36.8398 93.4108 38.4109C90.3854 41.0722 88.877 45.1243 88.5064 49.1334C88.2188 53.1772 88.4417 57.241 89.1701 61.2295Z" fill="#44CFB8"/>
<path d="M61.4485 61.9423C63.0615 61.7507 64.6885 61.7047 66.3098 61.8049C66.3098 62.1483 66.3098 62.4917 66.3788 62.8437C63.8706 63.024 61.3537 63.2729 58.8541 63.5648C56.4175 56.9042 56.057 49.666 57.8197 42.7979C58.5032 40.0895 59.6459 37.5171 61.1985 35.1917C61.6444 34.4419 62.2294 33.7834 62.9224 33.2515C63.2755 32.9938 63.6784 32.812 64.1057 32.7174C64.533 32.6228 64.9754 32.6176 65.4048 32.7021C65.9686 32.8828 66.4748 33.2079 66.8726 33.6448C67.2705 34.0818 67.5461 34.6152 67.6717 35.1917C67.8831 36.3584 67.8831 37.5534 67.6717 38.7201C67.5424 39.9306 67.4045 41.1582 67.258 42.3773C66.6497 41.9507 65.8968 41.781 65.1635 41.9051C64.5074 42.0862 63.8946 42.3969 63.3615 42.8187C62.8284 43.2405 62.386 43.7648 62.0605 44.3604C60.5107 46.9471 59.7779 49.9383 59.9573 52.9453C60.1618 55.9852 60.6612 58.9982 61.4485 61.9423Z" fill="#44CFB8"/>
<path d="M138.469 46.0516C136.228 53.2458 132.142 60.0107 128.29 66.5868C127.195 68.4497 126.118 70.347 125.075 72.2786C124.592 72.1378 124.158 71.864 123.825 71.4888C122.153 69.7718 121.86 67.3336 121.989 64.8183V64.5178C123.833 62.1312 125.669 59.7274 127.393 57.2463C130.485 52.9672 132.966 48.2808 134.763 43.3216C135.395 43.2765 136.028 43.4017 136.596 43.6842C137.163 43.9666 137.643 44.3959 137.986 44.9269C138.202 45.2762 138.364 45.6552 138.469 46.0516Z" fill="url(#paint15_linear)"/>
<path d="M139.175 47.7342C139.284 46.5849 139.208 45.4258 138.951 44.3002C138.805 43.7445 138.556 43.2205 138.219 42.7549C137.537 41.8946 136.543 41.3363 135.452 41.201C134.537 41.0467 133.597 41.1235 132.719 41.4242C130.789 42.2161 129.112 43.5159 127.867 45.1845C123.013 51.0427 120.385 58.4163 120.445 66.0115C120.445 66.2004 120.445 66.3721 120.445 66.5524C120.54 69.2051 121.135 71.7033 123.16 73.4976C123.448 73.753 123.77 73.9668 124.117 74.1329C125.953 74.9914 127.565 73.592 129.125 71.9008C131.481 69.2989 133.468 66.3872 135.029 63.2472C137.452 58.4093 138.863 53.1315 139.175 47.7342ZM128.832 70.2697C127.625 71.5488 126.358 72.6133 125.057 72.2785C124.574 72.1377 124.141 71.864 123.807 71.4887C122.135 69.7717 121.842 67.3336 121.971 64.8182V64.5177C122.404 57.9461 124.973 51.6934 129.289 46.704C130.391 45.2873 131.856 44.1928 133.53 43.5361C133.931 43.4052 134.349 43.3329 134.771 43.3215C135.403 43.2764 136.036 43.4017 136.604 43.6841C137.171 43.9666 137.651 44.3959 137.994 44.9269C138.201 45.2777 138.355 45.6565 138.451 46.0515C138.661 47.1272 138.682 48.2311 138.512 49.3138C137.604 57.143 134.22 64.4818 128.849 70.2697H128.832Z" fill="#94122E"/>
<path d="M138.53 49.3139C137.618 57.1451 134.228 64.4842 128.851 70.2697C127.644 71.5489 126.377 72.6134 125.076 72.2786C126.118 70.347 127.196 68.4497 128.291 66.5868C132.143 60.0107 136.229 53.2458 138.47 46.0517C138.68 47.1274 138.7 48.2313 138.53 49.3139ZM129.308 46.7384C125.001 51.7313 122.442 57.9836 122.016 64.5522C123.86 62.1655 125.696 59.7618 127.42 57.2807C130.512 53.0016 132.993 48.3152 134.79 43.356C134.368 43.3673 133.95 43.4396 133.548 43.5706C131.872 44.2151 130.401 45.2975 129.29 46.7041L129.308 46.7384Z" fill="url(#paint16_linear)"/>
<path d="M60.0498 94.0583C59.343 93.8523 58.6276 93.6376 57.9208 93.4144C56.6854 89.5512 55.4442 85.6852 54.1973 81.8162C56.669 85.629 58.6361 89.7437 60.0498 94.0583ZM121.437 7.07596C126.344 9.91901 130.356 14.0721 133.018 19.0661C135.681 24.0601 136.888 29.6961 136.504 35.3375C136.332 37.3197 135.98 39.2822 135.452 41.201C135.997 41.2754 136.522 41.4563 136.997 41.7333C137.472 42.0102 137.887 42.3778 138.219 42.815C138.557 43.2806 138.805 43.8045 138.952 44.3602C139.635 41.8571 140.034 39.2856 140.141 36.6939C140.624 24.3488 132.737 12.1411 121.437 7.07596ZM120.455 66.5351C117.938 69.8145 115.447 73.1197 113.249 76.6223C109.413 82.7606 106.474 89.7315 106.353 96.8999C110.389 96.278 114.384 95.418 118.317 94.3244C118.317 87.2934 120.903 80.5199 124.161 74.0898C123.814 73.9237 123.492 73.7099 123.204 73.4545C121.144 71.7118 120.549 69.1878 120.455 66.5351Z" fill="#CF5B44"/>
<path d="M142.607 28.3236C141.196 21.3038 137.572 14.9157 132.264 10.0892C126.92 5.38463 119.99 2.74047 112.974 1.44414C99.5618 -1.04549 84.5899 -0.787943 72.4624 6.00275C62.6532 11.593 55.3331 20.6752 51.9741 31.4228C49.2245 40.2824 48.9745 50.3612 49.5089 59.7531C49.5865 61.1868 49.6813 62.6119 49.7934 64.0456C50.4341 71.724 52.071 79.2873 54.6633 86.5467C55.0167 87.5426 56.3872 92.9768 57.3526 93.2687L57.9215 93.4404C56.686 89.5772 55.4448 85.7111 54.1979 81.8422C56.6696 85.655 58.6367 89.7697 60.0505 94.0843L62.1019 94.6423C60.8472 89.4843 60.017 84.2329 59.6195 78.9405C57.2922 77.2235 52.2758 72.5275 52.2758 72.5275C52.2758 72.5275 51.026 62.9381 50.8536 59.693C50.3766 52.7905 51.0199 45.8565 52.7584 39.1578C55.8097 27.8944 62.9638 17.4293 73.3502 12.0122C83.7366 6.59511 97.4155 7.11021 106.388 14.5877C115.077 21.842 118.085 34.1785 116.732 45.3905C115.378 56.6024 110.422 67.1877 105.259 77.2578C102.673 78.6314 99.941 80.2454 97.3811 81.619C95.9927 86.9459 95.7577 92.506 96.6915 97.9304C99.9267 97.7358 103.136 97.3895 106.319 96.8916C106.475 89.7231 109.414 82.7522 113.215 76.6139C115.413 73.1113 117.904 69.8061 120.421 66.5266C120.421 66.3463 120.421 66.1746 120.421 65.9858C120.361 58.3906 122.988 51.0169 127.842 45.1587C129.1 43.4871 130.793 42.1898 132.738 41.4071C133.616 41.1063 134.555 41.0296 135.47 41.1839C135.997 39.2707 136.349 37.3139 136.522 35.3375C136.904 29.6943 135.694 24.0571 133.029 19.0629C130.363 14.0688 126.348 9.91665 121.438 7.07587C132.729 12.141 140.625 24.3488 140.142 36.6768C140.034 39.2684 139.635 41.84 138.952 44.3431C139.209 45.4687 139.285 46.6278 139.177 47.7771C138.859 53.1534 137.451 58.4099 135.039 63.23C133.478 66.37 131.491 69.2818 129.135 71.8836C127.592 73.6006 125.963 74.9742 124.127 74.1157C120.834 80.5458 118.309 87.3194 118.283 94.3504C120.007 93.8697 121.774 93.3288 123.455 92.7536C125.549 82.4517 131.298 73.2572 136.056 63.7451C138.457 59.1664 140.378 54.3534 141.788 49.3825C143.706 42.5225 143.986 35.3108 142.607 28.3236Z" fill="url(#paint17_linear)"/>
<path style="mix-blend-mode:screen" opacity="0.7" d="M115.764 3.09514C117.481 6.57753 118.016 10.5212 117.289 14.3328C116.558 18.1284 115.095 21.7466 112.98 24.9867C108.084 32.8076 100.818 38.9286 92.7585 43.2297C84.6994 47.5307 75.8559 50.0976 66.9003 51.8146C64.3239 52.3986 61.6725 52.5839 59.0394 52.364C57.7208 52.2477 56.4389 51.8695 55.2694 51.2517C54.0998 50.6339 53.0664 49.789 52.2301 48.767C48.0842 43.2039 51.5147 33.5373 53.954 27.9056C57.0668 20.7014 61.9918 14.4182 68.2536 9.66261C81.4671 -0.270146 100.283 -1.51496 115.764 3.09514Z" fill="url(#paint18_linear)"/>
<path style="mix-blend-mode:screen" d="M57.6375 55.8728C57.7325 56.4579 57.9498 57.0165 58.2753 57.5126C58.4407 57.7518 58.6663 57.9436 58.9295 58.0687C59.1927 58.1938 59.4843 58.2477 59.7751 58.2251C60.4905 58.1221 60.956 57.4439 61.3007 56.8086C63.628 52.456 64.1968 47.3652 64.3089 42.4546C64.3678 41.7264 64.2948 40.9936 64.0934 40.2912C64.0148 39.9315 63.8367 39.6008 63.5794 39.3366C63.3221 39.0723 62.9957 38.885 62.6372 38.7957C62.2786 38.7064 61.9021 38.7187 61.5502 38.8313C61.1983 38.9439 60.885 39.1521 60.6457 39.4327C56.5601 43.0813 56.4653 50.9022 57.6375 55.8728Z" fill="url(#paint19_linear)"/>
<path style="mix-blend-mode:screen" d="M84.8028 52.653C84.8683 53.7049 85.1624 54.7301 85.6647 55.6577C85.9178 56.1225 86.291 56.5116 86.7455 56.7847C87.2001 57.0579 87.7196 57.2053 88.2505 57.2116C89.871 57.1343 90.8363 55.4431 91.4914 53.9579C93.9048 48.2575 96.5079 41.3209 94.9392 35.0711C94.8129 34.4444 94.5246 33.8613 94.1028 33.3796C93.6811 32.8978 93.1405 32.5339 92.5343 32.3239C92.0585 32.2196 91.5659 32.217 91.089 32.3161C90.6121 32.4153 90.1617 32.6139 89.7675 32.8991C88.9852 33.4721 88.3233 34.1926 87.8195 35.0196C84.6217 39.8614 84.1822 47.0556 84.8028 52.653Z" fill="url(#paint20_linear)"/>
<path d="M143.08 24.6151C109.464 21.1811 66.0483 21.1382 51.4902 27.9375C49.9126 32.7044 48.9284 37.6462 48.5596 42.652L143.976 40.935C144.804 35.4914 144.499 29.9364 143.08 24.6151Z" fill="url(#paint21_linear)"/>
<path d="M49.7475 42.6607L143.311 40.9781L143.233 41.8194L49.6182 43.9571L49.7475 42.6607Z" fill="#94122E"/>
<path style="mix-blend-mode:screen" d="M55.8289 26.4865C54.7679 31.7447 54.2709 37.1003 54.3463 42.4632L71.542 42.2657L72.0505 23.5076C65.7929 24.1257 60.1816 25.0185 55.8289 26.4865Z" fill="url(#paint22_linear)"/>
<path d="M71.4647 68.7582C77.4358 68.1753 83.4617 68.5258 89.324 69.797C88.8155 69.033 88.3242 68.3719 87.8243 67.6079C90.647 68.9936 93.0325 71.1261 94.7198 73.7719C87.8243 70.0632 79.0584 69.1102 71.2578 70.5439C71.3181 69.9687 71.4474 69.3334 71.4647 68.7582Z" fill="#44CFB8"/>
<path d="M133.538 118.586C134.887 121.956 135.45 125.587 135.184 129.205C134.465 126.534 132.918 124.158 130.762 122.414C129.209 115.243 126.086 108.501 121.617 102.669C122.048 103.038 122.479 103.433 122.876 103.819C127.28 108.095 131.305 112.902 133.538 118.586Z" fill="#CF5B44"/>
<path d="M130.765 122.415C130.222 121.988 129.645 121.607 129.041 121.273C127.315 120.335 125.399 119.797 123.435 119.697C121.472 119.598 119.511 119.94 117.698 120.698C118.43 117.633 117.5 114.242 116.56 111.331C115.5 108.069 111.906 97.8703 119.215 101.141C120.068 101.544 120.86 102.065 121.568 102.686C126.053 108.509 129.194 115.245 130.765 122.415Z" fill="url(#paint23_linear)"/>
<path d="M130.762 122.415C132.917 124.158 134.465 126.534 135.184 129.205C134.987 131.692 134.277 134.112 133.098 136.314C131.908 138.486 130.064 140.486 127.65 141.027C124.539 141.722 120.824 140.168 118.281 138.451C117.155 137.739 116.187 136.805 115.437 135.707C114.687 134.608 114.171 133.369 113.92 132.064C113.308 127.995 115.945 125.359 117.367 121.9C117.529 121.504 117.659 121.096 117.755 120.68C119.568 119.922 121.529 119.581 123.493 119.68C125.456 119.78 127.372 120.318 129.098 121.256C129.683 121.598 130.239 121.985 130.762 122.415Z" fill="url(#paint24_linear)"/>
<path style="mix-blend-mode:screen" d="M116.162 107.7C117.681 111.498 118.659 115.488 119.067 119.556C121.255 118.958 123.569 118.994 125.738 119.659C124.494 116.169 122.752 112.876 120.567 109.881C120.072 109.182 119.41 108.616 118.641 108.235C117.872 107.855 117.02 107.671 116.162 107.7Z" fill="url(#paint25_linear)"/>
<defs>
<linearGradient id="paint0_linear" x1="22.5115" y1="113.606" x2="64.9448" y2="113.606" gradientUnits="userSpaceOnUse">
<stop stop-color="#FBA746"/>
<stop offset="1" stop-color="#DE731F"/>
</linearGradient>
<linearGradient id="paint1_linear" x1="24.8787" y1="89.457" x2="24.8787" y2="111.057" gradientUnits="userSpaceOnUse">
<stop stop-color="#3E6785"/>
<stop offset="1" stop-color="#1D2243"/>
</linearGradient>
<linearGradient id="paint2_linear" x1="8.81701" y1="82.1429" x2="8.81701" y2="121.23" gradientUnits="userSpaceOnUse">
<stop stop-color="#B2DBC4"/>
<stop offset="1" stop-color="#375D75"/>
</linearGradient>
<linearGradient id="paint3_linear" x1="841.541" y1="3269.34" x2="841.541" y2="4882.7" gradientUnits="userSpaceOnUse">
<stop stop-color="#B2DBC4"/>
<stop offset="1" stop-color="#375D75"/>
</linearGradient>
<linearGradient id="paint4_linear" x1="8.65608" y1="81.8596" x2="7.73263" y2="94.7887" gradientUnits="userSpaceOnUse">
<stop stop-color="#BCBD99"/>
<stop offset="0.16" stop-color="#9C9D7F"/>
<stop offset="0.74" stop-color="#2C2D24"/>
<stop offset="1"/>
</linearGradient>
<linearGradient id="paint5_linear" x1="769.543" y1="859.977" x2="765.1" y2="982.879" gradientUnits="userSpaceOnUse">
<stop stop-color="#BCBD99"/>
<stop offset="0.16" stop-color="#9C9D7F"/>
<stop offset="0.74" stop-color="#2C2D24"/>
<stop offset="1"/>
</linearGradient>
<linearGradient id="paint6_linear" x1="1626.45" y1="5211.45" x2="1175.38" y2="4541.32" gradientUnits="userSpaceOnUse">
<stop stop-color="#FBA746"/>
<stop offset="1" stop-color="#DE731F"/>
</linearGradient>
<linearGradient id="paint7_linear" x1="65.8276" y1="144.074" x2="69.773" y2="167.397" gradientUnits="userSpaceOnUse">
<stop stop-color="#FF8759"/>
<stop offset="1" stop-color="#AB1535"/>
</linearGradient>
<linearGradient id="paint8_linear" x1="1387.84" y1="2764.99" x2="1372.19" y2="3201.97" gradientUnits="userSpaceOnUse">
<stop stop-color="#BCBD99"/>
<stop offset="0.16" stop-color="#9C9D7F"/>
<stop offset="0.74" stop-color="#2C2D24"/>
<stop offset="1"/>
</linearGradient>
<linearGradient id="paint9_linear" x1="6464.77" y1="7021.77" x2="4828.33" y2="5296.44" gradientUnits="userSpaceOnUse">
<stop stop-color="#FBA746"/>
<stop offset="1" stop-color="#DE731F"/>
</linearGradient>
<linearGradient id="paint10_linear" x1="3505.2" y1="2906.18" x2="3939.15" y2="3734.39" gradientUnits="userSpaceOnUse">
<stop stop-color="#BCBD99"/>
<stop offset="0.16" stop-color="#9C9D7F"/>
<stop offset="0.74" stop-color="#2C2D24"/>
<stop offset="1"/>
</linearGradient>
<linearGradient id="paint11_linear" x1="3069.21" y1="3549.33" x2="3097.39" y2="4172.5" gradientUnits="userSpaceOnUse">
<stop stop-color="#FF8759"/>
<stop offset="1" stop-color="#AB1535"/>
</linearGradient>
<linearGradient id="paint12_linear" x1="4844.44" y1="7573.12" x2="4678.2" y2="5155.69" gradientUnits="userSpaceOnUse">
<stop stop-color="#FBA746"/>
<stop offset="1" stop-color="#DE731F"/>
</linearGradient>
<linearGradient id="paint13_linear" x1="2791.04" y1="3928.3" x2="2995.77" y2="4746.37" gradientUnits="userSpaceOnUse">
<stop stop-color="#BCBD99"/>
<stop offset="0.16" stop-color="#9C9D7F"/>
<stop offset="0.74" stop-color="#2C2D24"/>
<stop offset="1"/>
</linearGradient>
<radialGradient id="paint14_radial" cx="0" cy="0" r="1" gradientUnits="userSpaceOnUse" gradientTransform="translate(3099.22 6242.19) rotate(11.2958) scale(4398.06 5951.8)">
<stop stop-color="#3E6785"/>
<stop offset="1" stop-color="#1D2243"/>
</radialGradient>
<linearGradient id="paint15_linear" x1="2031.61" y1="1963.2" x2="1513.8" y2="3090.63" gradientUnits="userSpaceOnUse">
<stop stop-color="#FF8759"/>
<stop offset="1" stop-color="#AB1535"/>
</linearGradient>
<linearGradient id="paint16_linear" x1="2014.37" y1="2116.31" x2="1473.61" y2="3299.11" gradientUnits="userSpaceOnUse">
<stop stop-color="#FF8759"/>
<stop offset="1" stop-color="#AB1535"/>
</linearGradient>
<linearGradient id="paint17_linear" x1="7595.08" y1="14931.9" x2="6186.41" y2="4428.27" gradientUnits="userSpaceOnUse">
<stop stop-color="#FBA746"/>
<stop offset="1" stop-color="#DE731F"/>
</linearGradient>
<linearGradient id="paint18_linear" x1="3388.54" y1="1737.46" x2="4138.17" y2="5895.48" gradientUnits="userSpaceOnUse">
<stop stop-color="#BCBD99"/>
<stop offset="0.16" stop-color="#9C9D7F"/>
<stop offset="0.74" stop-color="#2C2D24"/>
<stop offset="1"/>
</linearGradient>
<linearGradient id="paint19_linear" x1="92.2738" y1="1946.23" x2="-190.9" y2="1365.96" gradientUnits="userSpaceOnUse">
<stop stop-color="#BCBD99"/>
<stop offset="0.16" stop-color="#9C9D7F"/>
<stop offset="0.74" stop-color="#2C2D24"/>
<stop offset="1"/>
</linearGradient>
<linearGradient id="paint20_linear" x1="552.734" y1="2456.26" x2="529.327" y2="1011.13" gradientUnits="userSpaceOnUse">
<stop stop-color="#BCBD99"/>
<stop offset="0.16" stop-color="#9C9D7F"/>
<stop offset="0.74" stop-color="#2C2D24"/>
<stop offset="1"/>
</linearGradient>
<linearGradient id="paint21_linear" x1="5404.38" y1="852.109" x2="16063.1" y2="915.614" gradientUnits="userSpaceOnUse">
<stop stop-color="#FF4700"/>
<stop offset="1" stop-color="#FF453A"/>
</linearGradient>
<linearGradient id="paint22_linear" x1="935.317" y1="224.626" x2="1635.3" y2="996.797" gradientUnits="userSpaceOnUse">
<stop stop-color="#BCBD99"/>
<stop offset="0.16" stop-color="#9C9D7F"/>
<stop offset="0.74" stop-color="#2C2D24"/>
<stop offset="1"/>
</linearGradient>
<linearGradient id="paint23_linear" x1="2198.06" y1="2950.36" x2="2442.48" y2="2947.43" gradientUnits="userSpaceOnUse">
<stop stop-color="#FBA746"/>
<stop offset="1" stop-color="#DE731F"/>
</linearGradient>
<linearGradient id="paint24_linear" x1="2933.92" y1="3391.65" x2="3463.09" y2="3391.65" gradientUnits="userSpaceOnUse">
<stop stop-color="#3E6785"/>
<stop offset="1" stop-color="#1D2243"/>
</linearGradient>
<linearGradient id="paint25_linear" x1="1448.69" y1="1898.86" x2="1477.16" y2="1563.72" gradientUnits="userSpaceOnUse">
<stop stop-color="#BCBD99"/>
<stop offset="0.16" stop-color="#9C9D7F"/>
<stop offset="0.74" stop-color="#2C2D24"/>
<stop offset="1"/>
</linearGradient>
</defs>
</svg>
