<svg viewBox="0 0 146 164" fill="none" xmlns="http://www.w3.org/2000/svg">
<path d="M98.0204 127.445C89.6327 120.848 83.4379 111.888 80.2444 101.733C79.6484 102.76 79.3834 103.943 79.4854 105.124C79.6748 106.731 80.1478 108.292 80.8826 109.735C84.7569 117.961 90.2095 125.354 96.9337 131.497C99.8947 130.389 102.776 129.081 105.559 127.583L98.0204 127.445Z" fill="#CF5B44"/>
<path d="M109.344 115.487C108.97 116.005 108.552 116.49 108.094 116.937H97.3902C91.922 111.392 89.8262 107.013 89.1362 101.313C88.0242 100.571 86.7846 100.038 85.4792 99.7417C84.7198 99.5704 83.9315 99.5701 83.1719 99.7409C82.4124 99.9117 81.7008 100.249 81.0891 100.729C80.7464 101.013 80.4547 101.352 80.2266 101.733C83.4124 111.904 89.6079 120.88 98.0026 127.488L105.472 127.626C111.816 124.185 117.626 119.847 122.722 114.748C118.572 115.363 114.341 115.147 110.276 114.113C109.991 114.587 109.68 115.046 109.344 115.487Z" fill="url(#paint0_linear)"/>
<path d="M113.017 106.928C112.424 109.414 111.498 111.811 110.266 114.053C114.33 115.087 118.562 115.303 122.711 114.688C123.35 114.053 123.979 113.409 124.592 112.748C126.626 110.572 128.53 108.279 130.293 105.88C130.712 100.512 129.868 95.1212 127.826 90.1354C125.959 89.5456 124.042 89.1232 122.099 88.8734C120.404 88.6477 118.694 88.5587 116.984 88.6073C115.943 88.5976 114.907 88.7512 113.914 89.0623C114.757 95.0201 114.452 101.083 113.017 106.928Z" fill="url(#paint1_linear)"/>
<path d="M96.3163 93.5691C94.1255 96.8485 93.5649 102.403 97.0408 104.292L97.2305 104.395C97.8227 102.623 98.047 100.749 97.8898 98.8885C97.7326 97.0276 97.1973 95.2178 96.3163 93.5691Z" fill="#65A0A6"/>
<path d="M96.7384 82.538C91.46 86.8819 88.5102 92.3506 88.976 99.1498C88.976 99.8967 89.0795 100.618 89.1657 101.313C89.8557 107.014 91.9516 111.392 97.4198 116.938C97.7907 116.371 98.1357 115.787 98.4634 115.221C101.266 110.166 102.59 104.43 102.285 98.6641C101.98 92.8981 100.059 87.3325 96.7384 82.5981V82.538ZM97.0403 104.266C93.5903 102.378 94.1251 96.8233 96.3158 93.5439C97.1968 95.1926 97.7321 97.0024 97.8893 98.8633C98.0465 100.724 97.8222 102.597 97.2301 104.369L97.0403 104.266Z" fill="#25394D"/>
<path d="M125.665 114.113C126.424 115.032 127.287 115.967 128.253 116.937C128.615 116.371 128.969 115.787 129.296 115.22C132.099 110.165 133.423 104.43 133.118 98.6636C132.813 92.8977 130.892 87.3321 127.571 82.5976C125.362 84.363 123.499 86.5197 122.077 88.9591C124.024 89.1799 125.946 89.5735 127.822 90.1352C129.863 95.121 130.708 100.512 130.288 105.88C128.525 108.279 126.621 110.572 124.587 112.748C124.924 113.203 125.277 113.649 125.665 114.113Z" fill="#25394D"/>
<path d="M129.294 115.186L140.205 115.487C141.953 112.877 143.196 109.966 143.87 106.902C140.064 106.73 136.26 106.681 132.459 106.756C131.822 109.704 130.756 112.545 129.294 115.186Z" fill="#39546E"/>
<path d="M110.263 114.053C111.496 111.81 112.421 109.414 113.015 106.927C109.208 106.756 105.405 106.707 101.604 106.781C100.958 109.72 99.8887 112.551 98.4298 115.186L109.34 115.486C109.675 115.026 109.983 114.547 110.263 114.053Z" fill="#39546E"/>
<path d="M129.291 115.186C128.964 115.787 128.61 116.371 128.248 116.903H138.943C139.406 116.459 139.827 115.973 140.202 115.453L129.291 115.186ZM143.868 106.928C140.061 106.756 136.257 106.707 132.457 106.782C132.972 104.437 133.21 102.039 133.164 99.6391C133.035 93.5177 131.097 87.5698 127.592 82.538H143.186C145.851 90.0584 145.748 99.579 143.868 106.928Z" fill="url(#paint2_linear)"/>
<path d="M97.3857 116.938H108.089C108.547 116.491 108.965 116.005 109.34 115.487L98.4293 115.187C98.1016 115.787 97.7566 116.371 97.3857 116.938ZM113.014 106.928C109.208 106.756 105.404 106.707 101.603 106.782C102.512 102.625 102.55 98.3264 101.713 94.1547C100.876 89.983 99.1823 86.0282 96.7389 82.538H112.333C113.069 84.6659 113.597 86.8595 113.911 89.0883C114.751 95.0376 114.446 101.092 113.014 106.928Z" fill="url(#paint3_linear)"/>
<path style="mix-blend-mode:screen" d="M143.865 84.7268H128.987C130.457 87.2701 131.561 90.0069 132.264 92.8566L145.124 92.3415C144.954 89.7685 144.532 87.2182 143.865 84.7268Z" fill="url(#paint4_linear)"/>
<path style="mix-blend-mode:screen" d="M113.037 84.7268H98.1508C99.6241 87.2698 100.73 90.0066 101.437 92.8566L114.288 92.3415C114.125 89.7683 113.706 87.2176 113.037 84.7268Z" fill="url(#paint5_linear)"/>
<path d="M60.7881 141.576C59.2615 148.856 59.9256 155.982 60.6932 163.124C62.2802 163.425 63.8845 163.639 65.5146 163.785C64.8656 159.342 64.5542 154.857 64.5831 150.367C64.4712 148.185 64.8057 146.003 65.5663 143.954C66.6531 141.379 68.792 139.404 71 137.593C70.4165 136.962 69.7351 136.429 68.9818 136.013C68.2159 135.592 67.3554 135.371 66.4806 135.371C65.6057 135.371 64.7452 135.592 63.9793 136.013C62.0473 137.12 61.228 139.456 60.7881 141.576Z" fill="#CF5B44"/>
<path d="M65.5692 143.954C64.8086 146.004 64.4741 148.185 64.586 150.367C64.5571 154.857 64.8685 159.342 65.5175 163.785C66.8371 163.906 68.174 163.983 69.5108 164C68.9985 156.339 70.578 148.683 74.082 141.842C73.5818 140.984 73.047 140.211 72.4951 139.447C72.0387 138.798 71.5403 138.178 71.0029 137.593C68.795 139.404 66.656 141.405 65.5692 143.954Z" fill="url(#paint6_linear)"/>
<path d="M74.0673 141.842C70.5694 148.672 68.99 156.316 69.4961 163.966C73.2958 164.05 77.0947 163.763 80.8379 163.107C80.2258 155.6 77.9108 148.33 74.0673 141.842Z" fill="url(#paint7_linear)"/>
<path style="mix-blend-mode:screen" d="M71.6395 139.928C75.2544 144.268 77.6738 149.469 78.6602 155.02C77.4954 155.801 76.123 156.218 74.7186 156.218C73.3142 156.218 71.9417 155.801 70.777 155.02C69.767 154.172 68.9806 153.092 68.486 151.872C67.9915 150.653 67.8038 149.331 67.9394 148.023C68.1119 145.319 70.0094 142.306 71.6395 139.928Z" fill="url(#paint8_linear)"/>
<path d="M46.0528 93.8438C34.3056 98.6943 28.1302 110.49 31.8648 120.217C33.7623 125.368 37.5659 129.66 41.9215 132.751C47.9589 137.043 55.0831 140.34 62.9232 138.76C63.8866 138.56 64.8348 138.293 65.7608 137.962C63.3328 138.411 60.8371 138.346 58.4358 137.772C56.0345 137.198 53.7814 136.128 51.8229 134.631C46.7256 130.708 43.6723 124.415 42.1888 117.882C41.1711 113.297 40.8692 108.206 43.4826 103.768C46.7169 98.2479 54.1085 94.977 61.2068 94.419C64.5988 94.1727 68.0082 94.3428 71.3584 94.9255C67.4754 92.9174 63.1978 91.78 58.826 91.5931C54.4543 91.4063 50.0944 92.1745 46.0528 93.8438Z" fill="#CF5B44"/>
<path d="M43.4589 103.734C40.8714 108.173 41.1474 113.264 42.1651 117.848C43.6486 124.381 46.7019 130.674 51.7992 134.597C53.7577 136.094 56.0108 137.165 58.4121 137.739C60.8134 138.312 63.3091 138.377 65.7371 137.928C71.6401 135.726 76.6383 131.631 79.9424 126.287C83.5821 120.277 84.5998 113.255 82.5299 107.228C80.5076 101.845 76.4972 97.4322 71.3174 94.8917C67.9655 94.3234 64.556 94.1677 61.1659 94.4281C54.0676 94.9432 46.676 98.2141 43.4589 103.734ZM61.83 111.778C61.294 110.372 61.1418 108.85 61.3887 107.366C61.6357 105.882 62.273 104.49 63.2359 103.331C63.9294 102.508 64.7989 101.85 65.7808 101.404C66.7626 100.958 67.8321 100.737 68.9111 100.755C68.8606 98.7189 68.4185 96.711 67.6087 94.8402C69.2657 96.5675 70.4143 98.7145 70.9293 101.047C72.5597 101.507 74.0633 102.33 75.3262 103.455C76.589 104.579 77.5778 105.976 78.2174 107.537C78.4693 108.141 78.6348 108.777 78.709 109.426C78.8059 110.474 78.6792 111.53 78.3374 112.526C77.9955 113.522 77.4461 114.434 76.7253 115.204C75.5654 116.449 73.9829 117.223 72.2834 117.376C71.9729 117.376 71.6624 117.419 71.3347 117.427C71.3347 123.909 68.385 130.639 63.9172 135.911C67.6087 130.107 69.6787 123.668 69.3337 117.247C66.0562 116.629 63.0289 114.508 61.83 111.778Z" fill="url(#paint9_linear)"/>
<path d="M63.2407 103.33C62.2778 104.489 61.6405 105.881 61.3936 107.365C61.1466 108.849 61.2989 110.371 61.8349 111.778C63.0337 114.508 66.0611 116.628 69.3731 117.246C69.6836 123.668 67.6481 130.124 63.9393 135.91C68.4071 130.639 71.3137 123.891 71.3568 117.426C71.6845 117.426 71.995 117.426 72.3055 117.375C74.005 117.223 75.5875 116.449 76.7474 115.203C77.4683 114.433 78.0176 113.521 78.3595 112.525C78.7014 111.529 78.828 110.473 78.7311 109.425C78.6569 108.776 78.4914 108.14 78.2395 107.537C77.5999 105.975 76.6111 104.579 75.3483 103.454C74.0855 102.329 72.5818 101.506 70.9514 101.046C70.4315 98.712 69.2768 96.5648 67.6136 94.8395C68.4217 96.7221 68.8581 98.742 68.8987 100.789C67.8254 100.769 66.761 100.986 65.7824 101.426C64.8039 101.865 63.9358 102.516 63.2407 103.33ZM62.2661 109.958C62.1121 109.106 62.1121 108.234 62.2661 107.382C62.2661 107.296 62.2661 107.21 62.3179 107.125C62.3696 107.039 62.3179 106.944 62.3782 106.85C62.4386 106.755 62.3782 106.704 62.4386 106.627C62.499 106.549 62.5507 106.257 62.6197 106.069C62.6333 106.027 62.6506 105.987 62.6715 105.948C62.7071 105.837 62.7503 105.728 62.8008 105.622C62.9043 105.399 63.0165 105.184 63.1372 104.97C63.2477 104.773 63.3716 104.583 63.5081 104.403C63.8576 103.913 64.2826 103.482 64.7673 103.124C64.8616 103.05 64.9594 102.982 65.0606 102.918C66.0873 102.268 67.2976 101.967 68.5106 102.059C72.202 102.274 75.169 105.305 76.273 108.069C76.4945 108.584 76.6426 109.127 76.7129 109.683C76.8135 110.429 76.7651 111.187 76.5705 111.915C76.3759 112.642 76.039 113.324 75.579 113.921C75.1191 114.519 74.5451 115.02 73.8901 115.396C73.2352 115.772 72.512 116.016 71.7622 116.113C69.4434 116.293 67.135 115.655 65.2417 114.31C64.0962 113.534 63.184 112.463 62.6025 111.211C62.5304 111.047 62.4699 110.877 62.4214 110.704C62.3503 110.46 62.2984 110.21 62.2661 109.958Z" fill="#CF5B44"/>
<path d="M62.2963 107.374C62.1424 108.226 62.1424 109.098 62.2963 109.949C62.3384 110.194 62.3989 110.435 62.4775 110.671C62.526 110.843 62.5865 111.013 62.6586 111.177C63.2401 112.429 64.1523 113.5 65.2978 114.276C66.0344 114.801 66.8415 115.22 67.6956 115.521C68.821 115.936 70.0146 116.137 71.2145 116.113C72.1272 115.493 72.8511 114.634 73.3074 113.632C73.7637 112.63 73.9347 111.523 73.802 110.43C73.7245 109.878 73.5737 109.338 73.3535 108.825C72.215 106.086 69.2222 103.09 65.5911 102.901H65.1857L64.8924 103.107C64.4077 103.465 63.9827 103.897 63.6332 104.386C63.4967 104.567 63.3728 104.756 63.2623 104.953C63.1416 105.168 63.0295 105.382 62.926 105.605C62.8754 105.711 62.8322 105.82 62.7966 105.932C62.7757 105.97 62.7584 106.01 62.7448 106.052C62.6758 106.241 62.6241 106.421 62.5637 106.61C62.5033 106.799 62.5637 106.764 62.5033 106.833C62.443 106.902 62.4516 107.013 62.443 107.108C62.4343 107.202 62.305 107.305 62.2963 107.374Z" fill="#C9FFEF"/>
<path d="M65.0923 102.909H65.4976C69.1718 103.098 72.1647 106.094 73.2601 108.833C73.4802 109.346 73.631 109.886 73.7085 110.438C73.8413 111.531 73.6702 112.638 73.2139 113.64C72.7577 114.642 72.0337 115.501 71.1211 116.121C69.9212 116.145 68.7275 115.944 67.6021 115.529C68.9164 116.022 70.3259 116.213 71.7248 116.087C72.4747 115.99 73.1978 115.746 73.8528 115.37C74.5078 114.994 75.0817 114.493 75.5417 113.895C76.0016 113.298 76.3386 112.616 76.5331 111.889C76.7277 111.161 76.7761 110.403 76.6755 109.657C76.6052 109.101 76.4571 108.558 76.2356 108.043C75.1317 105.304 72.1647 102.274 68.4732 102.034C67.2815 101.961 66.0975 102.268 65.0923 102.909Z" fill="#44CFB8"/>
<path d="M63.5707 109.503C63.8054 110.032 64.1505 110.506 64.5833 110.892C65.016 111.279 65.5264 111.569 66.0805 111.744C66.6993 111.924 67.3491 111.972 67.988 111.887C68.6268 111.801 69.2405 111.582 69.7893 111.246C70.3279 110.94 70.7675 110.488 71.0563 109.942C71.3452 109.396 71.4711 108.779 71.4194 108.164C71.7644 109.245 72.2387 110.593 71.8075 111.726C71.5788 112.322 71.2227 112.861 70.764 113.305C70.3053 113.75 69.7549 114.09 69.151 114.302C68.4426 114.521 67.6886 114.549 66.9658 114.383C66.243 114.217 65.5774 113.863 65.0369 113.358C64.0364 112.396 63.9502 110.816 63.5707 109.503Z" fill="#A4EDE0"/>
<path d="M66.5609 109.117C65.4655 108.799 64.2063 108.069 64.4737 106.841C64.7152 105.76 66.1987 105.124 67.3113 105.27C69.9246 105.691 69.8297 110.069 66.5609 109.117Z" fill="#EBFFFC"/>
<path style="mix-blend-mode:screen" d="M52.9491 101.888C52.4209 102.747 52.1236 103.726 52.0858 104.732C52.048 105.738 52.2711 106.736 52.7334 107.632C53.7011 109.383 55.0473 110.899 56.6751 112.07C60.4683 115.031 64.77 117.283 69.371 118.715C69.371 118.228 69.371 117.739 69.371 117.247C66.059 116.629 63.0316 114.508 61.8328 111.778C61.2968 110.372 61.1446 108.85 61.3915 107.366C61.6384 105.882 62.2758 104.49 63.2386 103.331C63.9326 102.508 64.8021 101.85 65.7839 101.405C66.7657 100.959 67.835 100.737 68.9139 100.755C68.8692 99.2181 68.6198 97.6938 68.1721 96.2222C64.4065 96.1786 60.6787 96.9735 57.2615 98.5487C55.5495 99.2573 54.0601 100.411 52.9491 101.888ZM75.6844 120.183C74.1928 119.952 72.7156 119.636 71.2598 119.238C71.3202 118.629 71.3547 118.019 71.3547 117.41C71.6825 117.41 71.993 117.41 72.3035 117.358C74.003 117.206 75.5854 116.432 76.7453 115.186C77.4662 114.417 78.0156 113.504 78.3574 112.509C78.6993 111.513 78.8259 110.457 78.729 109.409C78.6548 108.759 78.4893 108.124 78.2374 107.52C77.5978 105.958 76.609 104.562 75.3462 103.437C74.0834 102.313 72.5797 101.489 70.9493 101.03C70.5699 99.312 69.8452 97.6883 68.819 96.2565C71.1166 96.3042 73.3867 96.7637 75.5206 97.613C78.7039 100.097 81.1193 103.423 82.4895 107.211C83.737 110.953 83.9073 114.967 82.9811 118.801C82.7163 119.049 82.4274 119.27 82.1187 119.462C80.2125 120.672 77.8062 120.535 75.6844 120.183Z" fill="url(#paint10_linear)"/>
<path d="M41.1639 154.823C39.8331 157.862 38.2189 160.771 36.3425 163.511C37.9468 163.402 39.5568 163.25 41.1725 163.056C41.4284 160.317 41.4255 157.561 41.1639 154.823Z" fill="#94122E"/>
<path d="M24.8179 153.484C23.274 156.557 21.8423 159.656 20.5572 162.815C25.7718 163.671 31.0705 163.905 36.3408 163.511C38.2172 160.771 39.8314 157.862 41.1621 154.823C41.1621 154.694 41.1621 154.565 41.1621 154.436C40.843 151.363 40.4635 147.448 38.8334 144.873C38.4633 144.235 37.928 143.707 37.2833 143.344C36.6386 142.982 35.9081 142.798 35.1678 142.813C30.1395 143.13 26.7585 149.603 24.8179 153.484Z" fill="url(#paint11_linear)"/>
<path d="M41.1584 154.823C41.4172 157.561 41.4172 160.317 41.1584 163.056C42.0209 162.944 42.961 162.824 43.8666 162.695C45.2493 154.851 45.7152 146.874 45.2552 138.924C44.7713 144.41 43.3873 149.781 41.1584 154.823Z" fill="#CF5B44"/>
<path d="M18.3386 162.386C19.0803 162.549 19.8134 162.687 20.5552 162.815C21.8403 159.656 23.272 156.557 24.8159 153.484C26.7565 149.603 30.1375 143.13 35.1658 142.813C35.9061 142.798 36.6367 142.982 37.2814 143.344C37.9261 143.707 38.4614 144.235 38.8314 144.873C40.4615 147.448 40.841 151.363 41.1602 154.437C41.1602 154.565 41.1602 154.694 41.1602 154.823C43.3921 149.782 44.7789 144.411 45.2656 138.924C45.0816 135.856 44.7625 132.825 44.3083 129.832C44.2611 129.09 44.0012 128.377 43.5594 127.778C43.1176 127.178 42.5125 126.717 41.8157 126.45C41.0192 126.264 40.1933 126.24 39.3873 126.378C38.5812 126.517 37.8114 126.816 37.1237 127.257C35.6895 128.153 34.4034 129.265 33.3115 130.553C25.2299 139.336 20.1067 151.088 18.3386 162.386Z" fill="url(#paint12_linear)"/>
<path style="mix-blend-mode:screen" d="M40.7384 145.259C39.7551 148.118 38.2199 151.166 35.5634 152.402C34.2802 152.958 32.8391 153.038 31.5018 152.627C30.1645 152.216 29.0196 151.341 28.2753 150.161C25.6016 146.006 27.4645 140.28 30.1297 135.987C32.122 132.76 37.8059 125.256 41.8251 127.806C43.162 128.665 43.3345 130.613 43.2569 132.339C43.0404 136.743 42.1923 141.094 40.7384 145.259Z" fill="url(#paint13_linear)"/>
<path d="M42.8626 93.7667L42.9574 93.5177C41.5861 95.2347 40.4821 96.9517 39.1107 98.6687C42.3019 101.09 46.5195 101.588 50.5129 101.931C54.6966 102.419 58.9205 102.465 63.1139 102.068C67.338 101.468 71.3025 99.6815 74.542 96.9173C73.6277 96.1689 72.6039 95.5638 71.506 95.1231C62.6137 91.4573 52.3673 92.4704 42.8626 93.7667Z" fill="#CF5B44"/>
<path d="M28.4252 45.4419C29.762 56.6538 34.7473 67.1875 39.9136 77.2577C42.5011 78.6312 45.2352 80.2452 47.7968 81.6188C49.186 86.9458 49.4212 92.5059 48.4868 97.9302C60.1283 98.6713 71.8139 97.5496 83.0987 94.6078C84.3541 89.4498 85.1849 84.1984 85.5826 78.906C87.9114 77.189 92.9311 72.493 92.9311 72.493C92.9311 72.493 94.1817 62.938 94.3542 59.6929C94.8314 52.7903 94.1878 45.8563 92.4481 39.1577C89.3949 27.8942 82.2362 17.4292 71.8431 12.0121C61.4501 6.595 47.7623 7.11009 38.7837 14.5876C30.0898 21.8934 27.0797 34.2299 28.4252 45.4419Z" fill="url(#paint14_radial)"/>
<path d="M42.9529 46.541C43.0046 46.7899 43.065 47.0303 43.1254 47.2793C44.2639 51.9495 45.8767 56.8343 47.1187 61.5474C50.0453 60.9571 53.0495 60.8498 56.0111 61.2298C56.7399 57.2413 56.963 53.1775 56.6752 49.1336C56.3043 45.1244 54.7949 41.0723 51.7676 38.411C49.9822 36.84 47.8432 36.1532 45.9802 37.853C44.3387 39.4607 43.3058 41.5837 43.0564 43.8625C42.9481 44.7509 42.9135 45.6468 42.9529 46.541Z" fill="#C9FFEF"/>
<path d="M78.8898 61.8051C80.5118 61.7021 82.14 61.7452 83.7542 61.9339C84.5339 58.9862 85.0249 55.9703 85.2205 52.9284C85.4 49.9215 84.6668 46.9303 83.116 44.3436C82.7875 43.7504 82.3427 43.2288 81.8078 42.81C81.2729 42.3912 80.659 42.0836 80.0024 41.9055C79.2685 41.7815 78.5152 41.9512 77.9065 42.3777C78.6138 48.8421 79.2693 55.3837 78.8898 61.8051Z" fill="#C9FFEF"/>
<path d="M56.0094 61.2296C53.0479 60.8496 50.0437 60.9569 47.1171 61.5473C47.2638 62.1053 47.4018 62.6461 47.5398 63.1956C51.4497 62.8235 55.3683 62.5717 59.2955 62.4401C61.5587 54.1763 61.3881 45.4391 58.8039 37.2691C58.2237 35.2132 57.274 33.279 56.0008 31.5602C55.3554 30.7056 54.5471 29.986 53.6222 29.4424C52.6972 28.8989 51.6738 28.542 50.6102 28.3923C49.2706 28.3286 47.9372 28.6114 46.7401 29.2132C45.5429 29.815 44.5228 30.7153 43.7793 31.8263C42.3246 34.0819 41.6298 36.7401 41.7955 39.4154C41.9263 41.8217 42.3137 44.2074 42.9513 46.5322C42.9124 45.641 42.947 44.748 43.0548 43.8623C43.3042 41.5836 44.3371 39.4606 45.9786 37.8529C47.8416 36.1359 49.9806 36.8399 51.766 38.4109C54.7933 41.0722 56.3027 45.1243 56.6736 49.1335C56.9613 53.1773 56.7382 57.2411 56.0094 61.2296Z" fill="#44CFB8"/>
<path d="M83.7457 61.9423C82.1317 61.7508 80.5036 61.7048 78.8813 61.805C78.8813 62.1484 78.8813 62.4918 78.8123 62.8438C81.3221 63.024 83.8406 63.273 86.3418 63.5649C88.78 56.9043 89.1407 49.6661 87.3768 42.798C86.6929 40.0895 85.5495 37.5171 83.9959 35.1917C83.5497 34.4419 82.9643 33.7835 82.2709 33.2515C81.9175 32.9939 81.5143 32.812 81.0868 32.7174C80.6592 32.6228 80.2166 32.6176 79.7869 32.7021C79.2227 32.8828 78.7162 33.2079 78.3181 33.6449C77.92 34.0818 77.6442 34.6153 77.5185 35.1917C77.307 36.3584 77.307 37.5534 77.5185 38.7201C77.6479 39.9306 77.7859 41.1582 77.9325 42.3773C78.5412 41.9508 79.2945 41.7811 80.0284 41.9051C80.6849 42.0862 81.2981 42.3969 81.8315 42.8188C82.3649 43.2406 82.8076 43.7648 83.1334 44.3604C84.6841 46.9472 85.4174 49.9384 85.2378 52.9453C85.0333 55.9852 84.5336 58.9983 83.7457 61.9423Z" fill="#44CFB8"/>
<path d="M6.67554 46.0517C8.91802 53.2459 13.0062 60.0108 16.8616 66.5869C17.957 68.4498 19.0351 70.3471 20.0787 72.2787C20.562 72.1379 20.9955 71.8641 21.3293 71.4889C23.0025 69.7719 23.2958 67.3338 23.1664 64.8184V64.5179C21.3207 62.1313 19.4836 59.7275 17.7586 57.2465C14.6643 52.9673 12.1825 48.2809 10.3843 43.3217C9.75133 43.2766 9.11788 43.4018 8.55033 43.6843C7.98278 43.9667 7.50204 44.396 7.15853 44.9271C6.94302 45.2763 6.78028 45.6553 6.67554 46.0517Z" fill="url(#paint15_linear)"/>
<path d="M5.97087 47.7343C5.86252 46.585 5.93821 45.4259 6.19511 44.3003C6.34155 43.7446 6.59011 43.2206 6.92824 42.755C7.60977 41.8946 8.60453 41.3363 9.69685 41.2011C10.6126 41.0468 11.5527 41.1236 12.431 41.4243C14.3623 42.2161 16.0408 43.5159 17.2868 45.1845C22.1437 51.0428 24.7729 58.4164 24.7129 66.0116C24.7129 66.2005 24.7129 66.3722 24.7129 66.5525C24.618 69.2052 24.0229 71.7035 21.996 73.4977C21.7084 73.7531 21.3861 73.9669 21.0386 74.133C19.2015 74.9915 17.5887 73.5921 16.0276 71.9009C13.6697 69.299 11.6817 66.3873 10.1195 63.2473C7.69508 58.4094 6.28366 53.1316 5.97087 47.7343ZM16.3208 70.2698C17.5283 71.5489 18.7962 72.6135 20.0985 72.2786C20.5818 72.1378 21.0153 71.8641 21.3491 71.4888C23.0224 69.7718 23.3156 67.3337 23.1863 64.8183V64.5179C22.7525 57.9462 20.1823 51.6935 15.8637 46.7041C14.7613 45.2873 13.2953 44.1929 11.6202 43.5362C11.2188 43.4052 10.8005 43.3329 10.3782 43.3216C9.74529 43.2765 9.11183 43.4018 8.54428 43.6842C7.97673 43.9667 7.49599 44.3959 7.15248 44.927C6.94598 45.2777 6.79199 45.6566 6.69536 46.0516C6.48522 47.1273 6.4648 48.2312 6.63499 49.3139C7.54342 57.1431 10.9294 64.4819 16.3035 70.2698H16.3208Z" fill="#94122E"/>
<path d="M6.62109 49.3139C7.53434 57.1451 10.9265 64.4841 16.3069 70.2697C17.5144 71.5488 18.7823 72.6134 20.0846 72.2786C19.041 70.3469 17.9629 68.4497 16.8675 66.5867C13.0122 60.0107 8.92396 53.2458 6.68147 46.0516C6.47133 47.1273 6.4509 48.2312 6.62109 49.3139ZM15.8498 46.7384C20.159 51.7312 22.7201 57.9836 23.1465 64.5521C21.3007 62.1655 19.4636 59.7617 17.7386 57.2807C14.6444 53.0015 12.1625 48.3151 10.3643 43.3559C10.7866 43.3673 11.2049 43.4396 11.6063 43.5705C13.2836 44.215 14.7555 45.2975 15.867 46.7041L15.8498 46.7384Z" fill="url(#paint16_linear)"/>
<path d="M85.1486 94.0586C85.8558 93.8525 86.5717 93.6379 87.2789 93.4147C88.5152 89.5515 89.7571 85.6854 91.0049 81.8165C88.5316 85.6293 86.5632 89.744 85.1486 94.0586ZM23.7217 7.07611C18.8113 9.91916 14.7974 14.0722 12.1333 19.0662C9.46918 24.0603 8.26105 29.6963 8.64535 35.3377C8.81706 37.3199 9.16926 39.2824 9.69759 41.2012C9.15211 41.2756 8.62675 41.4565 8.15164 41.7335C7.67654 42.0104 7.26105 42.378 6.92899 42.8152C6.59086 43.2808 6.34229 43.8047 6.19586 44.3604C5.51263 41.8573 5.1134 39.2858 5.00562 36.6941C4.52263 24.349 12.4144 12.1412 23.7217 7.07611ZM24.705 66.5353C27.2235 69.8147 29.7161 73.1199 31.9154 76.6226C35.7535 82.7608 38.6946 89.7318 38.8154 96.9002C34.7772 96.2783 30.7797 95.4183 26.844 94.3247C26.844 87.2936 24.2565 80.5201 20.9963 74.09C21.3437 73.924 21.666 73.7101 21.9536 73.4548C24.015 71.712 24.6101 69.188 24.705 66.5353Z" fill="#CF5B44"/>
<path d="M2.53606 28.3236C3.94802 21.3038 7.57391 14.9158 12.886 10.0892C18.2335 5.38464 25.1679 2.74047 32.1886 1.44414C45.609 -1.04549 60.5905 -0.787944 72.7258 6.00276C82.5413 11.593 89.8662 20.6752 93.2273 31.4228C95.9787 40.2825 96.2288 50.3612 95.694 59.7532C95.6164 61.1869 95.5215 62.612 95.4094 64.0456C94.7683 71.7241 93.1303 79.2874 90.5363 86.5468C90.1827 87.5427 88.8113 92.9769 87.8453 93.2688L87.2761 93.4405C88.5123 89.5773 89.7543 85.7112 91.0021 81.8423C88.5288 85.6551 86.5604 89.7698 85.1457 94.0844L83.093 94.6424C84.3485 89.4844 85.1792 84.233 85.577 78.9405C87.9057 77.2235 92.9254 72.5276 92.9254 72.5276C92.9254 72.5276 94.1761 62.9382 94.3486 59.6931C94.8258 52.7905 94.1822 45.8565 92.4424 39.1579C89.3892 27.8944 82.2305 17.4293 71.8375 12.0122C61.4444 6.59512 47.7566 7.11021 38.7781 14.5877C30.0841 21.842 27.074 34.1786 28.4281 45.3905C29.7822 56.6025 34.7416 67.1877 39.9079 77.2579C42.4954 78.6315 45.2295 80.2455 47.7911 81.619C49.1804 86.946 49.4156 92.5061 48.4811 97.9305C45.2439 97.7359 42.0325 97.3896 38.8471 96.8917C38.6918 89.7233 35.7507 82.7523 31.9471 76.614C29.7477 73.1114 27.2551 69.8061 24.7366 66.5267C24.7366 66.3464 24.7366 66.1747 24.7366 65.9858C24.7967 58.3906 22.1675 51.017 17.3106 45.1587C16.0516 43.4871 14.3576 42.1898 12.4116 41.4071C11.5333 41.1063 10.5933 41.0296 9.67751 41.1839C9.15019 39.2707 8.79801 37.314 8.62527 35.3375C8.24265 29.6944 9.45338 24.0572 12.1206 19.063C14.7879 14.0688 18.8053 9.91667 23.7189 7.07588C12.4202 12.141 4.5198 24.3488 5.00279 36.6768C5.11057 39.2685 5.5098 41.84 6.19302 44.3432C5.93612 45.4688 5.86044 46.6279 5.96878 47.7771C6.28696 53.1534 7.69523 58.41 10.1088 63.2301C11.671 66.3701 13.6589 69.2818 16.0168 71.8837C17.5607 73.6007 19.1908 74.9743 21.0279 74.1158C24.3227 80.5459 26.8498 87.3195 26.8756 94.3505C25.1507 93.8698 23.3825 93.3289 21.7007 92.7537C19.6048 82.4518 13.852 73.2573 9.09101 63.7452C6.68855 59.1665 4.76654 54.3535 3.35543 49.3825C1.43637 42.5225 1.15578 35.3108 2.53606 28.3236Z" fill="url(#paint17_linear)"/>
<path style="mix-blend-mode:screen" opacity="0.7" d="M29.3905 3.09512C27.6721 6.57751 27.1363 10.5212 27.8639 14.3328C28.5953 18.1284 30.0599 21.7466 32.1764 24.9867C37.0753 32.8076 44.3461 38.9286 52.4105 43.2297C60.4748 47.5308 69.324 50.0977 78.2853 51.8146C80.8634 52.3986 83.5165 52.5839 86.1512 52.3641C87.4707 52.2478 88.7535 51.8695 89.9237 51.2517C91.094 50.6339 92.1281 49.7891 92.9649 48.767C97.1135 43.2039 93.6808 33.5373 91.2399 27.9056C88.1251 20.7014 83.1969 14.4182 76.9312 9.66259C63.7091 -0.270178 44.8809 -1.51499 29.3905 3.09512Z" fill="url(#paint18_linear)"/>
<path style="mix-blend-mode:screen" d="M87.5613 55.873C87.4662 56.4581 87.2488 57.0167 86.9231 57.5128C86.7576 57.7521 86.5319 57.9439 86.2685 58.0689C86.0051 58.194 85.7133 58.2479 85.4223 58.2253C84.7065 58.1223 84.2407 57.4441 83.8957 56.8088C81.567 52.4562 80.9977 47.3654 80.8856 42.4548C80.8267 41.7266 80.8997 40.9938 81.1012 40.2914C81.1799 39.9317 81.3581 39.601 81.6156 39.3368C81.873 39.0725 82.1996 38.8852 82.5584 38.7959C82.9172 38.7066 83.2939 38.7189 83.6461 38.8315C83.9982 38.9441 84.3117 39.1523 84.5512 39.4329C88.6394 43.0815 88.7343 50.9024 87.5613 55.873Z" fill="url(#paint19_linear)"/>
<path style="mix-blend-mode:screen" d="M60.3807 52.6528C60.3151 53.7047 60.0208 54.7299 59.5182 55.6575C59.2649 56.1223 58.8915 56.5114 58.4367 56.7846C57.9818 57.0577 57.4619 57.2051 56.9307 57.2114C55.3092 57.1342 54.3432 55.4429 53.6877 53.9577C51.2728 48.2573 48.668 41.3207 50.2378 35.0709C50.3642 34.4442 50.6526 33.8612 51.0746 33.3794C51.4966 32.8976 52.0376 32.5337 52.6441 32.3237C53.1202 32.2194 53.6131 32.2168 54.0904 32.3159C54.5676 32.4151 55.0183 32.6138 55.4127 32.8989C56.1956 33.472 56.8579 34.1924 57.362 35.0194C60.5618 39.8613 61.0017 47.0554 60.3807 52.6528Z" fill="url(#paint20_linear)"/>
<path d="M2.06439 24.615C35.7017 21.181 79.1455 21.1381 93.713 27.9374C95.2916 32.7044 96.2764 37.6462 96.6455 42.652L1.1674 40.935C0.339348 35.4913 0.644661 29.9363 2.06439 24.615Z" fill="url(#paint21_linear)"/>
<path d="M95.4546 42.6606L1.83088 40.9779L1.90851 41.8192L95.584 43.9569L95.4546 42.6606Z" fill="#94122E"/>
<path style="mix-blend-mode:screen" d="M89.3723 26.4866C90.434 31.7448 90.9313 37.1004 90.8558 42.4632L73.6491 42.2658L73.1402 23.5076C79.4019 24.1257 85.0167 25.0186 89.3723 26.4866Z" fill="url(#paint22_linear)"/>
<path d="M73.7334 68.7584C67.7585 68.1755 61.7287 68.526 55.8626 69.7972C56.3715 69.0332 56.8631 68.3721 57.3633 67.608C54.5388 68.9938 52.1517 71.1263 50.4634 73.7721C57.3633 70.0634 66.1349 69.1104 73.9404 70.5441C73.8801 69.9689 73.7507 69.3336 73.7334 68.7584Z" fill="#44CFB8"/>
<path d="M11.6108 118.586C10.2607 121.956 9.69741 125.587 9.9634 129.205C10.6828 126.535 12.2313 124.158 14.388 122.415C15.9423 115.243 19.0669 108.501 23.5391 102.669C23.1078 103.038 22.6766 103.433 22.2798 103.82C17.8725 108.095 13.8446 112.903 11.6108 118.586Z" fill="#CF5B44"/>
<path d="M14.389 122.414C14.9322 121.988 15.5091 121.606 16.1139 121.273C17.8413 120.335 19.7584 119.797 21.7233 119.697C23.6882 119.598 25.6503 119.939 27.4644 120.697C26.7313 117.633 27.6628 114.242 28.6029 111.331C29.6637 108.069 33.2603 97.8701 25.9464 101.141C25.0929 101.544 24.3004 102.064 23.5918 102.686C19.1035 108.508 15.9611 115.245 14.389 122.414Z" fill="url(#paint23_linear)"/>
<path d="M14.3892 122.415C12.2326 124.158 10.6841 126.534 9.96464 129.205C10.1616 131.692 10.8722 134.112 12.0519 136.314C13.2421 138.486 15.0878 140.486 17.5028 141.027C20.6164 141.722 24.3338 140.168 26.8781 138.451C28.0049 137.739 28.9734 136.805 29.7239 135.707C30.4745 134.608 30.9912 133.369 31.2424 132.064C31.8547 127.995 29.2155 125.359 27.7924 121.9C27.6306 121.504 27.5008 121.096 27.4043 120.68C25.5902 119.922 23.628 119.581 21.6632 119.68C19.6983 119.78 17.7812 120.318 16.0538 121.256C15.4692 121.598 14.9125 121.985 14.3892 122.415Z" fill="url(#paint24_linear)"/>
<path style="mix-blend-mode:screen" d="M29.002 107.7C27.4818 111.498 26.5034 115.488 26.0953 119.556C23.9054 118.959 21.5898 118.994 19.4196 119.659C20.6649 116.17 22.4077 112.877 24.5946 109.881C25.0896 109.182 25.7517 108.616 26.5212 108.236C27.2906 107.855 28.1432 107.671 29.002 107.7Z" fill="url(#paint25_linear)"/>
<defs>
<linearGradient id="paint0_linear" x1="122.713" y1="113.606" x2="80.2525" y2="113.606" gradientUnits="userSpaceOnUse">
<stop stop-color="#FBA746"/>
<stop offset="1" stop-color="#DE731F"/>
</linearGradient>
<linearGradient id="paint1_linear" x1="120.348" y1="89.4572" x2="120.348" y2="111.057" gradientUnits="userSpaceOnUse">
<stop stop-color="#3E6785"/>
<stop offset="1" stop-color="#1D2243"/>
</linearGradient>
<linearGradient id="paint2_linear" x1="136.416" y1="82.143" x2="136.416" y2="121.23" gradientUnits="userSpaceOnUse">
<stop stop-color="#B2DBC4"/>
<stop offset="1" stop-color="#375D75"/>
</linearGradient>
<linearGradient id="paint3_linear" x1="-696.843" y1="3269.35" x2="-696.843" y2="4882.7" gradientUnits="userSpaceOnUse">
<stop stop-color="#B2DBC4"/>
<stop offset="1" stop-color="#375D75"/>
</linearGradient>
<linearGradient id="paint4_linear" x1="136.577" y1="81.8595" x2="137.5" y2="94.7887" gradientUnits="userSpaceOnUse">
<stop stop-color="#BCBD99"/>
<stop offset="0.16" stop-color="#9C9D7F"/>
<stop offset="0.74" stop-color="#2C2D24"/>
<stop offset="1"/>
</linearGradient>
<linearGradient id="paint5_linear" x1="-624.799" y1="859.977" x2="-620.358" y2="982.88" gradientUnits="userSpaceOnUse">
<stop stop-color="#BCBD99"/>
<stop offset="0.16" stop-color="#9C9D7F"/>
<stop offset="0.74" stop-color="#2C2D24"/>
<stop offset="1"/>
</linearGradient>
<linearGradient id="paint6_linear" x1="-1482.24" y1="5211.45" x2="-1031.28" y2="4541.06" gradientUnits="userSpaceOnUse">
<stop stop-color="#FBA746"/>
<stop offset="1" stop-color="#DE731F"/>
</linearGradient>
<linearGradient id="paint7_linear" x1="79.3619" y1="144.074" x2="75.4189" y2="167.398" gradientUnits="userSpaceOnUse">
<stop stop-color="#FF8759"/>
<stop offset="1" stop-color="#AB1535"/>
</linearGradient>
<linearGradient id="paint8_linear" x1="-1243.5" y1="2764.99" x2="-1227.85" y2="3201.97" gradientUnits="userSpaceOnUse">
<stop stop-color="#BCBD99"/>
<stop offset="0.16" stop-color="#9C9D7F"/>
<stop offset="0.74" stop-color="#2C2D24"/>
<stop offset="1"/>
</linearGradient>
<linearGradient id="paint9_linear" x1="-6323.69" y1="7021.78" x2="-4687.3" y2="5295.4" gradientUnits="userSpaceOnUse">
<stop stop-color="#FBA746"/>
<stop offset="1" stop-color="#DE731F"/>
</linearGradient>
<linearGradient id="paint10_linear" x1="-3362.23" y1="2906.18" x2="-3796.01" y2="3734.62" gradientUnits="userSpaceOnUse">
<stop stop-color="#BCBD99"/>
<stop offset="0.16" stop-color="#9C9D7F"/>
<stop offset="0.74" stop-color="#2C2D24"/>
<stop offset="1"/>
</linearGradient>
<linearGradient id="paint11_linear" x1="-2925.95" y1="3549.33" x2="-2954.1" y2="4172.5" gradientUnits="userSpaceOnUse">
<stop stop-color="#FF8759"/>
<stop offset="1" stop-color="#AB1535"/>
</linearGradient>
<linearGradient id="paint12_linear" x1="-4702.32" y1="7573.13" x2="-4536.19" y2="5155.68" gradientUnits="userSpaceOnUse">
<stop stop-color="#FBA746"/>
<stop offset="1" stop-color="#DE731F"/>
</linearGradient>
<linearGradient id="paint13_linear" x1="-2647.59" y1="3928.3" x2="-2852.21" y2="4746.44" gradientUnits="userSpaceOnUse">
<stop stop-color="#BCBD99"/>
<stop offset="0.16" stop-color="#9C9D7F"/>
<stop offset="0.74" stop-color="#2C2D24"/>
<stop offset="1"/>
</linearGradient>
<radialGradient id="paint14_radial" cx="0" cy="0" r="1" gradientUnits="userSpaceOnUse" gradientTransform="translate(-2955.97 6242.19) rotate(168.711) scale(4400.78 5951.95)">
<stop stop-color="#3E6785"/>
<stop offset="1" stop-color="#1D2243"/>
</radialGradient>
<linearGradient id="paint15_linear" x1="-1887.68" y1="1963.21" x2="-1370.09" y2="3090.89" gradientUnits="userSpaceOnUse">
<stop stop-color="#FF8759"/>
<stop offset="1" stop-color="#AB1535"/>
</linearGradient>
<linearGradient id="paint16_linear" x1="-1870.43" y1="2116.32" x2="-1329.89" y2="3299.38" gradientUnits="userSpaceOnUse">
<stop stop-color="#FF8759"/>
<stop offset="1" stop-color="#AB1535"/>
</linearGradient>
<linearGradient id="paint17_linear" x1="-7454.73" y1="14931.9" x2="-6046.93" y2="4428.04" gradientUnits="userSpaceOnUse">
<stop stop-color="#FBA746"/>
<stop offset="1" stop-color="#DE731F"/>
</linearGradient>
<linearGradient id="paint18_linear" x1="-3245.5" y1="1737.46" x2="-3994.67" y2="5895.65" gradientUnits="userSpaceOnUse">
<stop stop-color="#BCBD99"/>
<stop offset="0.16" stop-color="#9C9D7F"/>
<stop offset="0.74" stop-color="#2C2D24"/>
<stop offset="1"/>
</linearGradient>
<linearGradient id="paint19_linear" x1="52.9028" y1="1946.23" x2="335.965" y2="1365.82" gradientUnits="userSpaceOnUse">
<stop stop-color="#BCBD99"/>
<stop offset="0.16" stop-color="#9C9D7F"/>
<stop offset="0.74" stop-color="#2C2D24"/>
<stop offset="1"/>
</linearGradient>
<linearGradient id="paint20_linear" x1="-407.851" y1="2456.27" x2="-384.459" y2="1011.13" gradientUnits="userSpaceOnUse">
<stop stop-color="#BCBD99"/>
<stop offset="0.16" stop-color="#9C9D7F"/>
<stop offset="0.74" stop-color="#2C2D24"/>
<stop offset="1"/>
</linearGradient>
<linearGradient id="paint21_linear" x1="-5262.62" y1="852.11" x2="-15928.2" y2="915.697" gradientUnits="userSpaceOnUse">
<stop stop-color="#9CD95C"/>
<stop offset="1" stop-color="#9BD85B"/>
</linearGradient>
<linearGradient id="paint22_linear" x1="-790.682" y1="224.627" x2="-1490.62" y2="997.245" gradientUnits="userSpaceOnUse">
<stop stop-color="#BCBD99"/>
<stop offset="0.16" stop-color="#9C9D7F"/>
<stop offset="0.74" stop-color="#2C2D24"/>
<stop offset="1"/>
</linearGradient>
<linearGradient id="paint23_linear" x1="-2054.24" y1="2950.37" x2="-2298.81" y2="2947.43" gradientUnits="userSpaceOnUse">
<stop stop-color="#FBA746"/>
<stop offset="1" stop-color="#DE731F"/>
</linearGradient>
<linearGradient id="paint24_linear" x1="-2790.57" y1="3391.66" x2="-3320.08" y2="3391.66" gradientUnits="userSpaceOnUse">
<stop stop-color="#3E6785"/>
<stop offset="1" stop-color="#1D2243"/>
</linearGradient>
<linearGradient id="paint25_linear" x1="-1304.38" y1="1898.86" x2="-1332.83" y2="1563.71" gradientUnits="userSpaceOnUse">
<stop stop-color="#BCBD99"/>
<stop offset="0.16" stop-color="#9C9D7F"/>
<stop offset="0.74" stop-color="#2C2D24"/>
<stop offset="1"/>
</linearGradient>
</defs>
</svg>
