<svg width="125" height="161" viewBox="0 0 125 161" fill="none" xmlns="http://www.w3.org/2000/svg">
<path d="M54.778 139.83C55.4548 146.697 54.1177 153.423 52.6321 160.166C51.1052 160.439 49.5783 160.645 48.0349 160.785C49.115 156.628 49.8874 152.396 50.3459 148.125C50.6722 146.111 50.5823 144.052 50.0818 142.075C49.3307 139.665 47.5314 137.783 45.6497 136.075C46.257 135.48 46.9496 134.979 47.7048 134.589C48.4248 134.191 49.2342 133.982 50.057 133.982C50.8798 133.982 51.6892 134.191 52.4092 134.589C54.0599 135.629 54.5881 137.833 54.778 139.83Z" fill="#CF5B44"/>
<path d="M50.0404 142.075C50.541 144.052 50.6309 146.111 50.3045 148.125C49.8596 152.395 49.101 156.626 48.0348 160.785C46.7803 160.901 45.5175 160.967 44.263 160.992C45.561 153.974 44.872 146.733 42.2739 140.086C42.8269 139.302 43.4129 138.551 44.0071 137.824C44.506 137.21 45.0407 136.626 45.6083 136.074C47.4901 137.783 49.2894 139.665 50.0404 142.075Z" fill="url(#paint0_linear)"/>
<path d="M42.2741 140.086C44.8722 146.733 45.5612 153.974 44.2632 160.992C40.7257 161.072 37.189 160.796 33.707 160.166C35.1153 152.944 38.0348 146.1 42.2741 140.086Z" fill="url(#paint1_linear)"/>
<path style="mix-blend-mode:screen" d="M44.7501 138.303C40.9417 142.336 38.1442 147.216 36.5874 152.54C37.6827 153.285 38.9767 153.684 40.3015 153.684C41.6262 153.684 42.9202 153.285 44.0155 152.54C45.0419 151.766 45.8805 150.77 46.4692 149.627C47.0579 148.484 47.3815 147.223 47.4159 145.937C47.5067 143.362 46.0376 140.523 44.7501 138.303Z" fill="url(#paint2_linear)"/>
<path d="M46.2192 103.828C46.8307 104.305 47.2927 104.947 47.5502 105.679C47.8077 106.41 47.8499 107.2 47.6718 107.955C47.3004 109.441 45.5671 110.629 44.2961 111.479C38.7085 115.185 33.2117 118.99 27.6324 122.696C22.6229 119.439 18.5132 114.974 15.6814 109.713C17.315 109.276 18.8997 108.673 20.4106 107.914C22.7272 111.371 25.6457 114.385 29.0272 116.811C31.7129 115.917 34.2254 114.568 36.4553 112.825C37.703 109.151 39.6292 105.744 42.1337 102.78C42.2052 102.776 42.2768 102.776 42.3483 102.78C43.717 102.711 45.0722 103.078 46.2192 103.828Z" fill="#CF5B44"/>
<path d="M10.7293 103.391C7.27213 102.685 3.69055 102.892 0.338188 103.993H0.379455C0.254911 103.896 0.15546 103.77 0.0894117 103.627C0.0233636 103.483 -0.00736397 103.326 -0.000203608 103.168C3.5105 102.11 7.26552 102.188 10.7293 103.391ZM4.47317 98.736C4.2397 99.0002 4.04262 99.2944 3.88717 99.6109C6.84795 98.8416 9.91902 98.5876 12.966 98.8598C10.1734 98.2376 7.28272 98.1955 4.47317 98.736ZM12.7844 96.5653C15.1728 96.5495 17.547 96.9345 19.8081 97.7043C17.748 96.6269 15.4712 96.0288 13.1475 95.9546C12.9874 96.1323 12.864 96.3398 12.7844 96.5653Z" fill="#1D2243"/>
<path d="M16.969 94.7989C21.4756 95.2135 25.7444 97.0092 29.1923 99.9408C28.5367 101.414 27.5711 102.729 26.3614 103.795C24.6009 105.452 22.6071 106.843 20.4437 107.922C18.9218 108.68 17.326 109.281 15.6814 109.713C15.1367 108.698 14.6415 107.649 14.1958 106.577C10.7201 107.876 6.96978 108.265 3.30125 107.707C2.34101 107.657 1.4205 107.308 0.668399 106.709C-0.000130247 106.065 -0.280747 104.662 0.338261 103.993C3.6928 102.9 7.27434 102.701 10.7294 103.415C7.2752 102.183 3.5201 102.073 -0.000130232 103.102C-0.000130232 103.102 -0.000130232 103.028 -0.000130232 102.986C0.0658345 102.629 0.215761 102.292 0.437302 102.004C1.26862 100.852 2.47786 100.028 3.85423 99.6766C6.81501 98.9074 9.88608 98.6534 12.933 98.9256C10.1298 98.2988 7.22745 98.2567 4.40721 98.8018C5.26561 97.8669 6.39834 97.2283 7.64256 96.9778C9.30856 96.6343 11.0159 96.5369 12.7102 96.6889C15.1165 96.6248 17.5163 96.968 19.8081 97.7041C17.7481 96.6266 15.4712 96.0285 13.1476 95.9543C13.5013 95.4921 13.9881 95.1493 14.5424 94.9722C15.3312 94.7509 16.1567 94.692 16.969 94.7989Z" fill="url(#paint3_radial)"/>
<path d="M33.4345 104.984C36.1112 103.49 39.1349 102.73 42.1996 102.78C39.6951 105.743 37.769 109.151 36.5213 112.824C34.2913 114.568 31.7789 115.916 29.0932 116.811C25.7117 114.385 22.7932 111.371 20.4766 107.914C22.64 106.834 24.6338 105.444 26.3943 103.787C27.604 102.721 28.5696 101.406 29.2252 99.9326C30.9076 101.362 32.3315 103.071 33.4345 104.984Z" fill="url(#paint4_linear)"/>
<path d="M71.9286 95.5666C80.8836 99.7841 86.0668 110.225 82.8149 119.675C80.9719 124.655 77.6771 128.968 73.3565 132.055C67.5791 136.372 60.2418 139.648 52.8632 137.981C51.9708 137.775 51.096 137.499 50.2468 137.156C52.6105 137.625 55.0464 137.595 57.3975 137.066C59.7487 136.537 61.9631 135.522 63.898 134.085C69.0647 130.297 72.1515 124.239 73.7526 118.032C74.8751 113.675 75.3125 108.879 73.3977 104.827C71.0042 99.7593 65.3589 96.8624 59.7878 96.2516C57.0732 95.9888 54.3362 96.0692 51.6417 96.491C57.8482 93.1896 65.2764 92.4385 71.9286 95.5666Z" fill="#CF5B44"/>
<path d="M73.3978 104.819C75.3126 108.896 74.8752 113.691 73.7527 118.024C72.1515 124.231 69.0648 130.289 63.8981 134.077C61.9631 135.514 59.7488 136.529 57.3976 137.058C55.0464 137.587 52.6106 137.617 50.2469 137.148C47.6713 136.105 45.3438 134.532 43.4157 132.532C41.4876 130.531 40.0019 128.147 39.0552 125.535C38.0613 122.581 37.6789 119.456 37.9315 116.35C38.1841 113.244 39.0663 110.222 40.5243 107.468C43.033 102.759 46.9089 98.9209 51.6417 96.458C54.3363 96.0363 57.0732 95.9558 59.7879 96.2187C65.359 96.8294 70.9796 99.7264 73.3978 104.819ZM57.1798 112.618C57.7999 111.374 58.1103 109.999 58.0844 108.61C58.0585 107.22 57.6972 105.857 57.0312 104.637C56.588 103.888 55.9582 103.266 55.2032 102.832C54.4482 102.398 53.5937 102.167 52.7229 102.161C53.0504 100.211 53.6767 98.324 54.58 96.5653C52.9936 98.1931 51.7823 100.148 51.031 102.293C48.0102 102.995 45.3361 105.595 43.9908 108.071C43.6751 108.621 43.4231 109.205 43.2397 109.812C42.9601 110.732 42.8745 111.7 42.9881 112.655C43.1018 113.609 43.4123 114.53 43.9 115.358C44.2805 115.963 44.7873 116.478 45.3856 116.869C45.984 117.259 46.6597 117.515 47.3664 117.62C47.6306 117.62 47.9029 117.686 48.1918 117.702C47.2177 123.879 48.6633 130.194 52.2277 135.332C49.5115 129.845 48.7069 123.608 49.9415 117.612C51.4461 117.368 52.8771 116.792 54.1296 115.923C55.3821 115.055 56.4243 113.917 57.1798 112.594V112.618Z" fill="url(#paint5_linear)"/>
<path d="M57.0313 104.612C57.6972 105.832 58.0586 107.195 58.0844 108.585C58.1103 109.974 57.7999 111.35 57.1798 112.593C56.4162 113.906 55.3694 115.031 54.1159 115.888C52.8623 116.745 51.4334 117.311 49.9333 117.546C48.6986 123.542 49.5033 129.779 52.2195 135.266C48.6551 130.128 47.2094 123.813 48.1836 117.636C47.9029 117.636 47.6306 117.595 47.3582 117.554C46.6515 117.449 45.9757 117.193 45.3774 116.803C44.779 116.412 44.2722 115.897 43.8918 115.292C43.404 114.464 43.0935 113.543 42.9799 112.588C42.8662 111.634 42.9519 110.666 43.2315 109.746C43.4148 109.139 43.6668 108.555 43.9825 108.005C45.3279 105.57 48.002 102.937 51.0227 102.227C51.7741 100.082 52.9853 98.127 54.5717 96.4993C53.6717 98.2476 53.0454 100.124 52.7147 102.062C53.5941 102.074 54.4552 102.315 55.2124 102.763C55.9696 103.21 56.5966 103.848 57.0313 104.612ZM57.0313 110.877C57.26 110.072 57.3602 109.237 57.3284 108.401C57.3284 108.318 57.3284 108.236 57.3284 108.153C57.3284 108.071 57.3284 107.988 57.3284 107.897C57.3324 107.826 57.3324 107.754 57.3284 107.683C57.3284 107.509 57.2789 107.328 57.2458 107.154V107.039C57.2289 106.935 57.2041 106.833 57.1716 106.734C57.122 106.519 57.0478 106.313 56.9817 106.106C56.9157 105.9 56.8249 105.743 56.7424 105.57C56.5191 105.115 56.2236 104.7 55.8675 104.34L55.6447 104.142C54.8519 103.5 53.8371 103.197 52.822 103.3C49.793 103.391 46.8795 106.09 45.4847 108.615C45.2135 109.087 44.9975 109.588 44.8409 110.109C44.0981 112.709 45.0307 115.887 48.002 116.382C49.2301 116.557 50.4824 116.429 51.65 116.01C52.076 115.86 52.4923 115.684 52.8963 115.482C53.2383 115.308 53.5691 115.112 53.8867 114.896C54.9939 114.174 55.9066 113.19 56.5443 112.032C56.6276 111.878 56.6993 111.718 56.7589 111.554C56.8656 111.335 56.9567 111.109 57.0313 110.877Z" fill="#CF5B44"/>
<path d="M57.3284 108.442C57.3603 109.278 57.26 110.113 57.0313 110.918C56.9647 111.149 56.882 111.375 56.7837 111.595C56.7241 111.759 56.6524 111.919 56.5691 112.073C55.9314 113.231 55.0187 114.215 53.9115 114.937C53.5939 115.153 53.2631 115.349 52.9211 115.523C52.5171 115.725 52.1008 115.902 51.6748 116.052C50.6678 116.4 49.602 116.546 48.5385 116.481C47.0776 115.259 46.698 112.981 47.251 111.033C47.404 110.511 47.6202 110.01 47.8947 109.54C49.2896 107.014 52.1948 104.315 55.232 104.224H55.5622L55.785 104.422C56.1404 104.78 56.4358 105.192 56.6599 105.644C56.7424 105.817 56.825 105.999 56.8992 106.18C56.9735 106.362 57.0395 106.593 57.0891 106.808C57.1216 106.907 57.1464 107.01 57.1633 107.113V107.229C57.1633 107.402 57.2211 107.584 57.2459 107.757C57.2499 107.828 57.2499 107.9 57.2459 107.971C57.2459 108.062 57.2459 108.145 57.2459 108.227C57.2459 108.31 57.3284 108.359 57.3284 108.442Z" fill="#C9FFEF"/>
<path d="M55.5622 104.183H55.2321C52.1948 104.274 49.2896 106.973 47.8947 109.498C47.6202 109.968 47.404 110.47 47.251 110.992C46.698 112.94 47.0777 115.218 48.5385 116.439C49.602 116.504 50.6679 116.358 51.6748 116.01C50.5072 116.429 49.2549 116.557 48.0268 116.382C45.0556 115.903 44.1229 112.709 44.8657 110.109C45.0224 109.588 45.2384 109.087 45.5095 108.615C46.9043 106.09 49.8178 103.391 52.8468 103.3C53.8315 103.237 54.8031 103.553 55.5622 104.183Z" fill="#44CFB8"/>
<path d="M55.9913 110.423C55.483 111.399 54.6117 112.137 53.5648 112.478C53.0438 112.639 52.4916 112.671 51.9555 112.572C51.4194 112.472 50.9153 112.245 50.4863 111.908C50.0618 111.557 49.7491 111.09 49.5864 110.563C49.4236 110.037 49.418 109.475 49.5701 108.945C49.1245 109.952 48.5054 111.199 48.687 112.247C48.7674 112.795 48.981 113.314 49.3091 113.76C49.6372 114.207 50.0697 114.565 50.5688 114.805C51.1976 115.019 51.8733 115.055 52.5214 114.91C53.1695 114.764 53.7648 114.442 54.2416 113.98C55.232 113.138 55.5044 111.661 55.9913 110.423Z" fill="#A4EDE0"/>
<path d="M53.5069 109.994C54.4808 109.721 55.6363 109.069 55.562 107.897C55.481 107.409 55.2098 106.972 54.8077 106.683C54.4055 106.393 53.9052 106.275 53.4161 106.354C51.1712 106.676 50.61 110.802 53.5069 109.994Z" fill="#EBFFFC"/>
<path style="mix-blend-mode:screen" d="M65.6477 103.283C66.0073 104.152 66.1637 105.091 66.1051 106.03C66.0464 106.968 65.7743 107.881 65.3093 108.698C64.3585 110.346 63.0738 111.776 61.5375 112.899C58.0251 115.673 54.0006 117.729 49.6938 118.948C49.7598 118.486 49.8424 118.032 49.9331 117.57C51.4332 117.335 52.8621 116.769 54.1157 115.913C55.3693 115.056 56.416 113.93 57.1797 112.618C57.7998 111.374 58.1102 109.999 58.0843 108.609C58.0584 107.22 57.6971 105.857 57.0311 104.637C56.5879 103.887 55.9581 103.265 55.2031 102.831C54.4481 102.398 53.5936 102.167 52.7228 102.161C52.9829 100.705 53.3951 99.2803 53.9526 97.9104C56.9446 97.9526 59.8773 98.7504 62.4784 100.23C63.8094 100.918 64.9109 101.979 65.6477 103.283ZM43.9411 120.071C45.2991 119.928 46.647 119.702 47.9771 119.394C48.0266 118.808 48.0926 118.23 48.1834 117.661C47.9028 117.661 47.6304 117.62 47.3581 117.578C46.6513 117.474 45.9756 117.218 45.3773 116.827C44.7789 116.437 44.2721 115.922 43.8916 115.317C43.4039 114.488 43.0934 113.568 42.9797 112.613C42.8661 111.658 42.9518 110.69 43.2313 109.771C43.4147 109.163 43.6667 108.579 43.9824 108.029C45.3277 105.594 48.0018 102.962 51.0226 102.252C51.5823 100.657 52.3961 99.163 53.4326 97.8279C51.5307 97.8266 49.6448 98.1764 47.8698 98.8596C44.8198 101.156 42.3121 104.095 40.5242 107.468C38.7835 110.819 37.8668 114.537 37.8501 118.313C38.026 118.56 38.228 118.786 38.4526 118.99C39.8804 120.244 42.0263 120.277 43.9411 120.071Z" fill="url(#paint6_linear)"/>
<path d="M121.193 107.848C121.022 107.995 120.819 108.102 120.601 108.161C120.382 108.219 120.153 108.228 119.931 108.186C118.048 106.577 115.768 105.505 113.328 105.083C116.134 105.356 118.833 106.305 121.193 107.848ZM106.998 113.188C109.421 115.147 111.229 117.763 112.205 120.723C112.458 120.484 112.67 120.205 112.833 119.898L112.899 119.964C111.694 117.14 109.629 114.769 106.998 113.188ZM120.203 118.387C118.899 114.434 115.251 110.959 111.182 110.315C114.558 112.387 117.273 115.697 120.187 118.387H120.203Z" fill="#1D2243"/>
<path d="M120.187 118.387C118.883 114.434 115.235 110.959 111.166 110.315C114.558 112.387 117.273 115.697 120.187 118.387ZM99.3302 112.527C99.2142 111.117 99.2976 109.697 99.5778 108.31C100.366 104.631 102.466 101.366 105.487 99.1237C110.571 97.8774 117.348 98.9339 120.764 102.896C121.608 103.72 122.104 104.837 122.151 106.015C122.125 106.373 122.025 106.721 121.857 107.038C121.689 107.354 121.458 107.633 121.177 107.856C118.817 106.313 116.118 105.364 113.312 105.091C115.751 105.514 118.032 106.585 119.914 108.194L120.393 108.599L120.484 108.681C121.558 109.646 122.467 110.781 123.174 112.04C123.727 112.946 124.068 113.964 124.173 115.02C124.221 115.547 124.156 116.077 123.983 116.577C123.809 117.077 123.531 117.533 123.166 117.917C122.781 118.264 122.293 118.477 121.777 118.523C121.26 118.569 120.743 118.446 120.302 118.173C120.452 118.748 120.417 119.355 120.202 119.909C119.987 120.463 119.604 120.936 119.105 121.259C118.602 121.571 118.036 121.766 117.448 121.832C116.86 121.897 116.265 121.832 115.705 121.639C114.65 121.335 113.69 120.767 112.915 119.988C111.712 117.162 109.647 114.787 107.014 113.204C109.438 115.164 111.246 117.78 112.222 120.739C111.788 121.169 111.246 121.474 110.654 121.623C109.472 121.844 108.251 121.592 107.254 120.921C106.244 120.324 105.315 119.6 104.489 118.767C103.465 118.874 102.45 119.014 101.451 119.196C100.243 117.165 99.5171 114.883 99.3302 112.527Z" fill="url(#paint7_radial)"/>
<path d="M99.33 112.527C99.5118 114.876 100.229 117.151 101.426 119.18C97.058 119.963 92.8283 121.384 88.8729 123.397C84.3418 121.161 78.1434 116.291 76.6331 110.761C79.4378 114.475 83.3291 117.224 87.767 118.627C91.2319 115.928 95.1465 113.863 99.33 112.527Z" fill="#CF5B44"/>
<path d="M105.487 99.1238C102.466 101.366 100.366 104.631 99.5777 108.31C99.2975 109.697 99.2141 111.117 99.3301 112.527C95.1494 113.864 91.2377 115.929 87.7753 118.627C83.3375 117.224 79.4462 114.475 76.6414 110.761C76.294 109.567 76.1957 108.314 76.3525 107.08C76.438 106.144 76.7965 105.255 77.3834 104.521C77.9703 103.787 78.7599 103.242 79.6539 102.953C81.156 102.582 82.7242 103.184 84.1273 103.861C86.7794 105.135 89.2887 106.688 91.6132 108.491C94.9637 103.805 99.8881 100.48 105.487 99.1238Z" fill="url(#paint8_linear)"/>
<path d="M71.8048 152.334C72.7305 155.179 73.9446 157.923 75.4281 160.521C73.9342 160.422 72.4404 160.274 70.9382 160.092C70.9878 157.485 71.2779 154.888 71.8048 152.334Z" fill="#94122E"/>
<path d="M87.3132 151.038C88.4439 153.935 89.4673 156.865 90.3422 159.845C85.4333 160.649 80.4464 160.867 75.486 160.497C73.9841 157.908 72.7506 155.173 71.8049 152.334L71.8792 151.971C72.49 149.066 73.2575 145.368 75.0568 142.941C75.461 142.343 76.0055 141.853 76.6428 141.513C77.2802 141.174 77.9909 140.995 78.7131 140.994C83.3598 141.299 85.8936 147.398 87.3132 151.038Z" fill="url(#paint9_linear)"/>
<path d="M71.805 152.334C71.2919 154.889 71.0156 157.486 70.9796 160.092C70.1543 159.993 69.3289 159.878 68.5036 159.754C68.0236 152.259 68.4141 144.734 69.6673 137.329C69.5224 142.416 70.2452 147.49 71.805 152.334Z" fill="#CF5B44"/>
<path d="M92.4384 159.465C91.7286 159.622 91.0188 159.754 90.309 159.869C89.4342 156.89 88.4107 153.96 87.28 151.063C85.8604 147.398 83.3596 141.299 78.7047 140.994C77.9924 141.005 77.2932 141.187 76.6667 141.526C76.0402 141.866 75.5048 142.351 75.1062 142.941C73.3069 145.376 72.5394 149.066 71.9286 151.971L71.8543 152.334C70.2722 147.494 69.527 142.42 69.6507 137.329C70.1404 134.44 70.7566 131.582 71.4994 128.754C71.6336 128.034 71.952 127.362 72.4235 126.802C72.8951 126.242 73.5037 125.814 74.1901 125.56C74.9234 125.381 75.686 125.357 76.4291 125.489C77.1723 125.621 77.8798 125.907 78.5066 126.327C79.741 127.174 80.8237 128.223 81.709 129.431C88.4025 137.717 91.9762 148.843 92.4384 159.465Z" fill="url(#paint10_linear)"/>
<path style="mix-blend-mode:screen" d="M73.2161 143.313C73.8433 146.003 74.974 148.884 77.3428 150.048C79.7115 151.211 82.7818 150.122 84.4243 147.935C87.3625 144.006 86.207 138.608 84.1519 134.556C82.6167 131.519 78.0526 124.429 74.0166 126.839C72.6713 127.664 72.3164 129.488 72.2009 131.114C71.9431 135.208 72.2851 139.318 73.2161 143.313Z" fill="url(#paint11_linear)"/>
<path d="M75.8409 100.329C68.6527 103.372 60.6889 104.077 53.0779 102.343C50.8 101.814 48.2909 100.841 47.4243 98.6616C56.9488 99.2559 66.2999 99.7676 75.8409 100.329Z" fill="#CF5B44"/>
<path d="M101.113 46.4504C101.996 54.3985 100.708 61.546 98.3975 68.6274C96.7963 73.5217 94.6999 78.383 92.4798 83.4424C90.1275 84.1769 87.6267 85.1343 85.2745 85.9184C84.185 90.7384 82.947 95.74 81.8163 100.61C67.7854 101.526 54.5304 100.676 42.142 97.8034C42.2163 92.777 42.4886 88.7246 42.5051 83.4506C40.1034 81.899 37.3055 80.3886 34.8955 78.8287C33.1375 70.9796 31.1979 61.3974 30.9008 53.3668C30.6037 45.3362 31.8912 37.0827 35.8529 30.1086C38.3561 25.839 41.7632 22.169 45.8353 19.3559C49.9073 16.5428 54.5456 14.6549 59.4247 13.8245C64.3138 13.0603 69.3081 13.3162 74.0935 14.5761C78.8789 15.836 83.3517 18.0727 87.2306 21.1453C95.0089 27.4239 99.9972 36.5167 101.113 46.4504Z" fill="url(#paint12_radial)"/>
<path d="M26.3201 41.2671C26.956 60.535 31.3318 79.4954 39.2037 97.0934C38.3783 96.8623 37.4622 96.623 36.6039 96.3754C29.552 78.8706 26.0561 60.137 26.3201 41.2671Z" fill="#CF5B44"/>
<path d="M93.4125 8.3606C107.617 18.5536 111.042 33.0136 108.178 48.6952C106.668 56.9486 103.647 64.8472 100.643 72.6797C97.1596 81.742 93.6794 90.8208 90.2019 99.9161C89.3023 100.023 88.4109 100.114 87.5195 100.205C91.6132 89.6571 96.0288 79.8107 99.6191 69.0234C100.098 67.5956 100.56 66.143 101.006 64.6821C103.87 55.2072 106.09 45.3443 105.339 35.4732C104.588 25.602 101.195 14.4764 93.4125 8.3606Z" fill="#CF5B44"/>
<path d="M111.141 32.4937C109.967 25.4118 106.911 18.7756 102.293 13.2797C96.983 7.3703 89.9987 3.21885 82.2702 1.37822C74.5593 -0.431758 66.5373 -0.459984 58.8139 1.29568C48.885 3.43333 39.1872 8.25334 33.1209 16.4325C25.6515 26.4769 24.6859 39.9053 25.5855 52.3845C26.675 67.0674 29.4316 82.163 34.8376 95.8637L36.5791 96.3754C29.5357 78.8689 26.0483 60.1354 26.3201 41.2671C26.9561 60.535 31.3318 79.4955 39.2037 97.0934C40.1776 97.3493 41.1515 97.5804 42.1419 97.8032C42.2162 92.7769 42.4886 88.7244 42.5051 83.4505C40.1033 81.8988 37.3054 80.3885 34.8954 78.8286C33.1374 70.9795 31.1979 61.3973 30.9007 53.3667C30.6036 45.3361 31.8911 37.0826 35.8528 30.1085C38.356 25.8389 41.7632 22.1689 45.8352 19.3558C49.9073 16.5427 54.5456 14.6548 59.4246 13.8244C64.3137 13.0602 69.3081 13.3161 74.0934 14.576C78.8788 15.8359 83.3516 18.0725 87.2305 21.1452C94.9965 27.4296 99.9725 36.5217 101.08 46.4503C101.963 54.3984 100.675 61.5458 98.3644 68.6273C96.7632 73.5216 94.6669 78.3829 92.4467 83.4422C90.0945 84.1768 87.5937 85.1342 85.2414 85.9183C84.185 90.7383 82.947 95.7399 81.8162 100.609C83.7063 100.494 85.6046 100.337 87.5194 100.155C91.6131 89.6571 96.0287 79.8107 99.6189 69.0235C100.098 67.5956 100.56 66.143 101.006 64.6822C103.869 55.2072 106.09 45.3443 105.339 35.4732C104.588 25.6021 101.212 14.4764 93.4123 8.36063C107.617 18.5536 111.042 33.0137 108.178 48.6952C106.667 56.9487 103.647 64.8472 100.642 72.6797C97.1594 81.742 93.6792 90.8208 90.2018 99.9161L92.9501 99.5942C92.9501 99.5942 93.9241 96.8293 94.2129 95.9627C95.1703 93.0685 96.1745 90.1881 97.2254 87.3214C98.4222 84.0613 99.7592 80.8507 101.138 77.6648C107.295 63.3781 114.046 48.3816 111.141 32.4937Z" fill="url(#paint13_linear)"/>
<path d="M46.9455 53.6472C48.0839 58.0011 48.4801 62.5157 48.1175 67.0013C47.8864 71.0372 43.6111 72.2752 41.6303 68.652C39.8162 65.2113 38.7529 61.4249 38.5105 57.5428C38.2793 55.3598 38.3431 53.1556 38.7003 50.9896C38.9268 49.6121 39.5295 48.3239 40.4418 47.2673C43.9826 43.4625 46.2688 51.3032 46.9455 53.6472Z" fill="#C9FFEF"/>
<path d="M88.3943 52.2608C88.747 54.4244 88.8108 56.6253 88.5841 58.8058C88.3322 62.6898 87.2665 66.4776 85.456 69.9232C83.4835 73.5794 79.2082 72.3414 78.9688 68.2725C78.6129 63.7951 79.0091 59.2897 80.1408 54.9431C80.8176 52.6074 83.1038 44.7584 86.6363 48.5715C87.5442 49.6202 88.1516 50.895 88.3943 52.2608Z" fill="#C9FFEF"/>
<path d="M75.6426 77.0294C76.9328 78.7331 77.6495 80.8021 77.6895 82.9388C77.2933 82.9388 76.7734 82.9388 76.3772 82.9388C76.2234 82.0901 75.9799 81.2601 75.6509 80.4628C67.2443 79.3282 58.7591 78.881 50.2798 79.1257C49.7727 79.6332 49.3418 80.2114 49.0005 80.8424C48.5961 80.7186 48.2577 80.5866 47.8533 80.4628C48.3238 78.7805 49.1768 77.2297 50.3458 75.9316L51.3527 76.2865C51.0804 76.7817 51.0143 77.3595 50.742 77.8547C58.9271 77.4797 67.1294 77.8832 75.2382 79.0597C75.1062 78.581 74.8668 77.9042 74.7265 77.409C75.1062 77.3182 75.296 77.0954 75.6426 77.0294Z" fill="#44CFB8"/>
<path d="M47.2342 71.7224C42.2822 74.1984 39.7071 67.1913 38.7744 64.2943C37.3053 59.7054 36.0921 54.9514 36.0838 50.1314C36.081 48.8238 36.1582 47.5174 36.3149 46.2192C36.7111 42.8023 37.9161 38.9562 41.4568 38.8984C43.5037 38.8984 45.0636 40.5491 46.1035 42.1503C50.6016 49.1327 51.1381 58.4343 50.1229 66.3081C49.8176 68.4045 49.215 70.732 47.2342 71.7224ZM41.6301 68.6191C43.611 72.2754 47.8862 71.0374 48.1173 66.9684C48.4762 62.4938 48.08 57.9906 46.9454 53.6473C46.2686 51.3116 43.9824 43.4708 40.4499 47.2757C39.54 48.3222 38.9348 49.5983 38.7002 50.965C38.3429 53.131 38.2791 55.3352 38.5103 57.5182C38.7538 61.3974 39.8172 65.1809 41.6301 68.6191Z" fill="#44CFB8"/>
<path d="M91.0106 51.4355C91.0106 56.2555 89.7891 61.0095 88.3118 65.6067C87.3791 68.4954 84.8453 75.5108 79.8602 73.0348C77.8794 72.0526 77.2769 69.7334 77.0128 67.67C75.9976 59.7797 76.5176 50.4863 81.024 43.5039C82.0639 41.8532 83.6238 40.2025 85.6707 40.2521C89.2114 40.3098 90.4164 44.1559 90.8208 47.5729C90.9579 48.8557 91.0213 50.1454 91.0106 51.4355ZM85.4561 69.9232C87.2665 66.4776 88.3322 62.6899 88.5841 58.8058C88.8109 56.6254 88.747 54.4245 88.3943 52.2608C88.1588 50.8976 87.5601 49.6231 86.6611 48.5715C83.1286 44.7584 80.8837 52.6075 80.1656 54.9432C79.0311 59.2977 78.6349 63.8117 78.9936 68.2973C79.233 72.3415 83.4835 73.5795 85.4561 69.9232Z" fill="#44CFB8"/>
<path style="mix-blend-mode:screen" d="M30.3809 49.8754C33.9959 55.3722 40.6812 58.3764 47.2592 58.5993C53.8372 58.8221 60.3079 56.6019 66.0771 53.4244C72.1346 50.1972 77.4179 45.6912 81.5606 40.2188C85.6942 34.7302 88.0397 28.1029 88.2789 21.2359C88.4035 17.6948 87.6731 14.1758 86.1495 10.9769C79.7696 -1.72517 60.0603 0.684834 49.3639 5.77721C38.6674 10.8696 30.0425 20.8067 27.8059 32.5184C26.6916 38.3536 27.0383 44.783 30.3809 49.8754Z" fill="url(#paint14_linear)"/>
<path style="mix-blend-mode:screen" d="M78.8038 50.5193C78.9942 49.5073 79.2703 48.5133 79.6292 47.5481C80.3555 45.6416 81.9319 43.8423 84.1603 44.0074C86.1494 44.1477 87.0985 46.0955 87.2306 47.8782C87.3647 49.8061 87.1085 51.7412 86.4775 53.5677C85.8464 55.3943 84.8534 57.0748 83.5578 58.5087C82.782 59.334 81.7173 60.1594 80.6031 59.9118C79.3238 59.6229 78.7461 58.1373 78.548 56.8415C78.2626 54.7354 78.3492 52.5955 78.8038 50.5193Z" fill="url(#paint15_linear)"/>
<path style="mix-blend-mode:screen" d="M37.8088 56.1812C38.0367 56.9415 38.4188 57.6467 38.9313 58.2528C39.1947 58.5456 39.523 58.7727 39.8899 58.916C40.2567 59.0593 40.652 59.1148 41.0442 59.0781C42.4143 58.8883 43.1406 57.3779 43.5202 56.0408C44.2939 53.073 44.3786 49.9676 43.7678 46.9621C43.6127 46.0051 43.2645 45.0896 42.7444 44.2714C40.8709 41.6221 38.0647 43.2975 37.4292 45.8231C36.5271 49.2372 36.6592 52.8423 37.8088 56.1812Z" fill="url(#paint16_linear)"/>
<defs>
<linearGradient id="paint0_linear" x1="49.5039" y1="161.883" x2="43.5367" y2="135.422" gradientUnits="userSpaceOnUse">
<stop stop-color="#FBA746"/>
<stop offset="1" stop-color="#DE731F"/>
</linearGradient>
<linearGradient id="paint1_linear" x1="37.0827" y1="142.19" x2="40.6895" y2="163.806" gradientUnits="userSpaceOnUse">
<stop stop-color="#FF8759"/>
<stop offset="1" stop-color="#AB1535"/>
</linearGradient>
<linearGradient id="paint2_linear" x1="42.2823" y1="136.776" x2="41.7706" y2="158.598" gradientUnits="userSpaceOnUse">
<stop stop-color="#BCBD99"/>
<stop offset="0.16" stop-color="#9C9D7F"/>
<stop offset="0.74" stop-color="#2C2D24"/>
<stop offset="1"/>
</linearGradient>
<radialGradient id="paint3_radial" cx="0" cy="0" r="1" gradientUnits="userSpaceOnUse" gradientTransform="translate(13.3787 90.9693) scale(24.4054)">
<stop stop-color="#3E6785"/>
<stop offset="1" stop-color="#1D2243"/>
</radialGradient>
<linearGradient id="paint4_linear" x1="864.201" y1="2083.64" x2="833.027" y2="2541.92" gradientUnits="userSpaceOnUse">
<stop stop-color="#FBA746"/>
<stop offset="1" stop-color="#DE731F"/>
</linearGradient>
<linearGradient id="paint5_linear" x1="3251.55" y1="6863.44" x2="1929.37" y2="5434.24" gradientUnits="userSpaceOnUse">
<stop stop-color="#FBA746"/>
<stop offset="1" stop-color="#DE731F"/>
</linearGradient>
<linearGradient id="paint6_linear" x1="1606.95" y1="2845.91" x2="1955.64" y2="3531.59" gradientUnits="userSpaceOnUse">
<stop stop-color="#BCBD99"/>
<stop offset="0.16" stop-color="#9C9D7F"/>
<stop offset="0.74" stop-color="#2C2D24"/>
<stop offset="1"/>
</linearGradient>
<radialGradient id="paint7_radial" cx="0" cy="0" r="1" gradientUnits="userSpaceOnUse" gradientTransform="translate(3398.47 2871.73) scale(899.712 838.969)">
<stop stop-color="#3E6785"/>
<stop offset="1" stop-color="#1D2243"/>
</radialGradient>
<linearGradient id="paint8_linear" x1="3302.5" y1="2403.78" x2="3283.07" y2="3010.31" gradientUnits="userSpaceOnUse">
<stop stop-color="#FBA746"/>
<stop offset="1" stop-color="#DE731F"/>
</linearGradient>
<linearGradient id="paint9_linear" x1="1875.29" y1="3440" x2="1902.65" y2="4016.03" gradientUnits="userSpaceOnUse">
<stop stop-color="#FF8759"/>
<stop offset="1" stop-color="#AB1535"/>
</linearGradient>
<linearGradient id="paint10_linear" x1="2338.79" y1="7282.2" x2="2170.55" y2="5062.63" gradientUnits="userSpaceOnUse">
<stop stop-color="#FBA746"/>
<stop offset="1" stop-color="#DE731F"/>
</linearGradient>
<linearGradient id="paint11_linear" x1="1389.45" y1="3831.75" x2="1583.94" y2="4563.71" gradientUnits="userSpaceOnUse">
<stop stop-color="#BCBD99"/>
<stop offset="0.16" stop-color="#9C9D7F"/>
<stop offset="0.74" stop-color="#2C2D24"/>
<stop offset="1"/>
</linearGradient>
<radialGradient id="paint12_radial" cx="0" cy="0" r="1" gradientUnits="userSpaceOnUse" gradientTransform="translate(5361.04 5110.69) scale(4969.05 6169.12)">
<stop stop-color="#3E6785"/>
<stop offset="1" stop-color="#1D2243"/>
</radialGradient>
<linearGradient id="paint13_linear" x1="9701.93" y1="15030.1" x2="4111.75" y2="218.161" gradientUnits="userSpaceOnUse">
<stop stop-color="#FBA746"/>
<stop offset="1" stop-color="#DE731F"/>
</linearGradient>
<linearGradient id="paint14_linear" x1="53.1274" y1="1.33686" x2="65.7965" y2="78.5396" gradientUnits="userSpaceOnUse">
<stop stop-color="#BCBD99"/>
<stop offset="0.13" stop-color="#8F9074"/>
<stop offset="0.27" stop-color="#646451"/>
<stop offset="0.42" stop-color="#404034"/>
<stop offset="0.56" stop-color="#24241D"/>
<stop offset="0.71" stop-color="#10100D"/>
<stop offset="0.85" stop-color="#040403"/>
<stop offset="1"/>
</linearGradient>
<linearGradient id="paint15_linear" x1="83.7064" y1="59.2102" x2="80.1491" y2="28.1773" gradientUnits="userSpaceOnUse">
<stop stop-color="#BCBD99"/>
<stop offset="1"/>
</linearGradient>
<linearGradient id="paint16_linear" x1="408.62" y1="1253.13" x2="214.012" y2="524.61" gradientUnits="userSpaceOnUse">
<stop stop-color="#BCBD99"/>
<stop offset="1"/>
</linearGradient>
</defs>
</svg>
