<svg width="75" height="110" viewBox="0 0 75 110" fill="none" xmlns="http://www.w3.org/2000/svg">
<path d="M38.3727 94.3258C38.8402 99.119 37.9166 103.814 36.8903 108.515C35.8356 108.711 34.7808 108.855 33.7146 108.953C34.4483 106.05 34.9704 103.096 35.2768 100.116C35.5071 98.7108 35.4469 97.273 35.1001 95.8928C34.5756 94.2106 33.3383 92.8971 32.0327 91.7046C32.4529 91.2902 32.9313 90.9408 33.4524 90.6676C33.9489 90.387 34.5084 90.2397 35.0773 90.2397C35.6462 90.2397 36.2056 90.387 36.7022 90.6676C37.871 91.3935 38.2131 92.9317 38.3727 94.3258Z" fill="#CF5B44"/>
<path d="M35.1002 95.893C35.4471 97.2731 35.5072 98.711 35.277 100.116C34.9706 103.096 34.4484 106.05 33.7148 108.953C32.8425 109.034 32.0044 109.08 31.1035 109.097C32.0045 104.191 31.5285 99.1284 29.7295 94.4815C30.1115 93.9342 30.5163 93.4042 30.9325 92.903C31.2735 92.4729 31.6411 92.065 32.0329 91.6816C33.3385 92.8972 34.5757 94.2107 35.1002 95.893Z" fill="url(#paint0_linear)"/>
<path d="M29.7296 94.4812C31.5244 99.121 32.0003 104.175 31.1037 109.074C28.66 109.127 26.2173 108.934 23.8115 108.498C24.7868 103.457 26.8034 98.6809 29.7296 94.4812Z" fill="url(#paint1_linear)"/>
<path style="mix-blend-mode:screen" d="M31.4458 93.2603C28.812 96.0735 26.8791 99.48 25.8071 103.198C26.5652 103.714 27.4586 103.99 28.3728 103.99C29.287 103.99 30.1804 103.714 30.9384 103.198C31.6458 102.656 32.2236 101.961 32.6292 101.163C33.0348 100.365 33.2578 99.4857 33.2817 98.5892C33.3501 96.786 32.3296 94.81 31.4458 93.2603Z" fill="url(#paint2_linear)"/>
<path d="M50.2211 63.4295C56.3787 66.3734 59.9877 73.6611 57.7413 80.246C56.467 83.7216 54.1911 86.7315 51.2075 88.8876C47.188 91.9064 42.1422 94.1935 37.0451 93.024C36.4284 92.8811 35.824 92.6885 35.2378 92.4479C36.8716 92.7734 38.5547 92.7509 40.1794 92.3819C41.8041 92.0129 43.3348 91.3054 44.6737 90.3048C48.237 87.6605 50.3751 83.4261 51.4755 79.0996C52.2566 76.0577 52.553 72.7106 51.2303 69.8819C49.5826 66.3446 45.6771 64.3225 41.8286 63.8962C39.9535 63.7099 38.0624 63.766 36.2013 64.0633C40.4945 61.7704 45.6258 61.2346 50.2211 63.4295Z" fill="#CF5B44"/>
<path d="M51.2296 69.8705C52.5524 72.7165 52.2559 76.0636 51.4748 79.0882C50.3687 83.4147 48.2364 87.6491 44.673 90.2934C43.3342 91.294 41.8035 92.0015 40.1787 92.3705C38.554 92.7395 36.8709 92.762 35.2371 92.4365C33.459 91.7082 31.8523 90.6102 30.5214 89.2137C29.1904 87.8173 28.165 86.1536 27.5117 84.3307C26.825 82.2723 26.5603 80.0941 26.7338 77.929C26.9073 75.7638 27.5153 73.6571 28.5208 71.7371C30.2523 68.4512 32.9277 65.7719 36.195 64.0519C38.0561 63.7546 39.9471 63.6985 41.8223 63.8848C45.6764 64.3111 49.5819 66.3332 51.2296 69.8705ZM40.032 75.3147C40.4595 74.446 40.6729 73.4858 40.6541 72.5158C40.6352 71.5458 40.3846 70.5948 39.9237 69.7438C39.6218 69.2153 39.1895 68.7751 38.6688 68.4661C38.1481 68.1571 37.557 67.9899 36.9533 67.9809C37.1735 66.6289 37.5984 65.3192 38.2133 64.098C37.1203 65.2387 36.284 66.6045 35.7617 68.1019C33.6749 68.5858 31.8277 70.4063 30.8983 72.1346C30.6818 72.5206 30.5096 72.9304 30.3852 73.356C30.1902 73.9975 30.1295 74.673 30.2071 75.3396C30.2846 76.0061 30.4987 76.649 30.8356 77.2274C31.099 77.6484 31.4494 78.0069 31.8627 78.2783C32.276 78.5498 32.7425 78.7278 33.2302 78.8001C33.4184 78.8289 33.6065 78.8462 33.8004 78.8635C33.1327 83.1757 34.1331 87.5821 36.5941 91.1691C34.7126 87.3408 34.1565 82.9855 35.0148 78.8001C36.0553 78.634 37.046 78.2347 37.9141 77.6316C38.7822 77.0286 39.5059 76.2369 40.032 75.3147Z" fill="url(#paint3_linear)"/>
<path d="M39.924 69.7437C40.3849 70.5948 40.6355 71.5458 40.6544 72.5157C40.6732 73.4857 40.4598 74.4459 40.0323 75.3146C39.5042 76.2301 38.7809 77.0153 37.9151 77.6132C37.0492 78.2111 36.0625 78.6067 35.0265 78.7712C34.1682 82.9566 34.7243 87.312 36.6058 91.1402C34.1448 87.5532 33.1444 83.1468 33.8121 78.8346C33.6239 78.8346 33.4358 78.8 33.2419 78.7712C32.7542 78.6989 32.2877 78.5209 31.8744 78.2495C31.4611 77.978 31.1107 77.6195 30.8473 77.1985C30.5104 76.6201 30.2963 75.9772 30.2188 75.3107C30.1412 74.6442 30.2019 73.9686 30.3969 73.3271C30.5213 72.9015 30.6935 72.4917 30.91 72.1057C31.8394 70.412 33.6866 68.5685 35.7733 68.073C36.2957 66.5756 37.132 65.2098 38.225 64.0691C37.6034 65.2987 37.1745 66.6183 36.9535 67.9808C37.5573 67.9899 38.1484 68.157 38.6691 68.466C39.1897 68.775 39.6221 69.2153 39.924 69.7437ZM39.924 74.1106C40.0821 73.5608 40.1514 72.9889 40.1292 72.4168C40.1292 72.3592 40.1292 72.3016 40.1292 72.244C40.1292 72.1864 40.1292 72.123 40.1292 72.0654C40.1323 72.0155 40.1323 71.9655 40.1292 71.9156C40.1292 71.7889 40.095 71.6679 40.0665 71.5469C40.0713 71.5202 40.0713 71.4929 40.0665 71.4663C40.0665 71.3971 40.0665 71.3222 40.0209 71.2531C39.9753 71.184 39.9354 70.9593 39.8841 70.8153C39.8328 70.6712 39.7815 70.5618 39.7244 70.4408C39.5702 70.1221 39.3639 69.8319 39.1144 69.5824C39.0677 69.5334 39.0182 69.4872 38.9661 69.4441C38.4401 69.0066 37.7707 68.7846 37.0904 68.8219C34.9923 68.8911 32.9854 70.7749 32.0161 72.532C31.8338 72.863 31.6867 73.2126 31.5771 73.5748C31.064 75.3953 31.7025 77.6075 33.755 77.9589C34.6035 78.0788 35.468 77.9899 36.2751 77.6997C36.5698 77.5961 36.8574 77.4729 37.136 77.331C37.3741 77.2093 37.6045 77.0727 37.8259 76.922C38.5749 76.4025 39.1874 75.7064 39.6104 74.8941C39.6677 74.7864 39.7172 74.6748 39.7586 74.5599C39.8254 74.4148 39.8806 74.2645 39.924 74.1106Z" fill="#CF5B44"/>
<path d="M40.1287 72.4167C40.1509 72.9888 40.0816 73.5607 39.9235 74.1104C39.8813 74.2722 39.826 74.4302 39.7581 74.5828C39.7167 74.6977 39.6672 74.8093 39.6099 74.917C39.1694 75.7269 38.539 76.4153 37.774 76.9218C37.5527 77.0725 37.3223 77.2091 37.0842 77.3309C36.8055 77.4728 36.5179 77.596 36.2232 77.6996C35.5277 77.9431 34.7914 78.0449 34.0567 77.9991C33.0476 77.1465 32.7853 75.5565 33.1673 74.1911C33.279 73.8287 33.428 73.4792 33.612 73.1483C34.5755 71.42 36.5881 69.5074 38.6863 69.4382H38.9143L39.0626 69.5765C39.3121 69.826 39.5183 70.1162 39.6726 70.4349C39.7296 70.5559 39.7809 70.6826 39.8322 70.8094C39.8836 70.9361 39.9292 71.0974 39.9691 71.2472C40.009 71.397 40.0033 71.3912 40.0147 71.4604C40.0195 71.487 40.0195 71.5143 40.0147 71.541C40.0147 71.662 40.0603 71.783 40.0774 71.9097C40.0805 71.9596 40.0805 72.0096 40.0774 72.0595C40.0774 72.1171 40.0774 72.1805 40.0774 72.2381C40.0774 72.2957 40.1287 72.3591 40.1287 72.4167Z" fill="#C9FFEF"/>
<path d="M38.9147 69.4441H38.6866C36.5885 69.5133 34.5759 71.3971 33.6123 73.1543C33.4284 73.4852 33.2793 73.8346 33.1676 74.197C32.7856 75.5624 33.0479 77.1524 34.057 78.005C34.7917 78.0508 35.5281 77.949 36.2236 77.7055C35.4165 77.9957 34.552 78.0846 33.7036 77.9647C31.651 77.6306 31.0125 75.4011 31.5256 73.5806C31.6275 73.2173 31.767 72.8658 31.9418 72.5321C32.9111 70.7749 34.918 68.8911 37.0161 68.822C37.7041 68.7787 38.3827 69.0011 38.9147 69.4441Z" fill="#44CFB8"/>
<path d="M39.2058 73.7996C39.0348 74.1383 38.7992 74.4394 38.5124 74.6856C38.2257 74.9318 37.8936 75.1182 37.5353 75.2341C37.1751 75.347 36.7931 75.3693 36.4224 75.299C36.0518 75.2287 35.7038 75.068 35.4086 74.8308C35.1209 74.5868 34.9096 74.2637 34.8003 73.9006C34.691 73.5375 34.6884 73.1502 34.7929 72.7856C34.4793 73.4885 34.0574 74.3584 34.1828 75.0901C34.2338 75.4726 34.379 75.836 34.6051 76.147C34.8312 76.4581 35.131 76.7067 35.477 76.8702C35.9121 77.022 36.3803 77.0486 36.8294 76.9468C37.2785 76.8451 37.6907 76.6191 38.0199 76.2941C38.6812 75.695 38.8751 74.658 39.2058 73.7996Z" fill="#A4EDE0"/>
<path d="M37.4891 73.4999C38.1619 73.3098 38.9601 72.8489 38.9145 72.0366C38.8572 71.695 38.6687 71.3902 38.39 71.1884C38.1112 70.9866 37.7649 70.9043 37.4264 70.9593C35.8927 71.1782 35.4936 74.0587 37.4891 73.4999Z" fill="#EBFFFC"/>
<path style="mix-blend-mode:screen" d="M45.8766 68.8103C46.1224 69.4179 46.2276 70.0743 46.1841 70.7293C46.1406 71.3842 45.9496 72.0205 45.6257 72.5895C44.9681 73.7409 44.0784 74.74 43.0144 75.5219C40.5898 77.4626 37.8093 78.8997 34.8329 79.7505C34.8842 79.4279 34.9355 79.1053 35.0039 78.7884C36.0399 78.6238 37.0267 78.2283 37.8925 77.6304C38.7584 77.0325 39.4817 76.2473 40.0098 75.3318C40.4373 74.4631 40.6507 73.5029 40.6319 72.5329C40.613 71.5629 40.3624 70.6119 39.9015 69.7609C39.6037 69.2325 39.1759 68.7909 38.6594 68.479C38.1429 68.1671 37.5554 67.9954 36.9538 67.9807C37.1289 66.9652 37.4138 65.9722 37.8033 65.0195C39.8691 65.0514 41.894 65.606 43.6929 66.6326C44.6173 67.1252 45.377 67.8828 45.8766 68.8103ZM30.8818 80.534C31.8134 80.4368 32.7386 80.2848 33.6527 80.0789C33.6869 79.6756 33.7325 79.2723 33.7952 78.8748C33.6071 78.8748 33.4189 78.8403 33.2251 78.8115C32.7374 78.7391 32.2709 78.5611 31.8576 78.2897C31.4443 78.0182 31.0939 77.6597 30.8305 77.2387C30.4935 76.6604 30.2795 76.0174 30.2019 75.3509C30.1244 74.6844 30.1851 74.0088 30.3801 73.3673C30.5045 72.9417 30.6766 72.5319 30.8932 72.1459C31.8225 70.4522 33.6698 68.6087 35.7565 68.1132C36.1442 67.0005 36.7063 65.9579 37.4213 65.0253C36.1082 65.0205 34.8054 65.2607 33.5786 65.7339C31.4775 67.3359 29.751 69.3853 28.5214 71.7369C27.314 74.0744 26.6786 76.6702 26.6685 79.3069C26.7904 79.4805 26.932 79.639 27.0904 79.7793C28.0767 80.655 29.5591 80.655 30.8818 80.534Z" fill="url(#paint4_linear)"/>
<path d="M50.147 103.048C50.7871 105.037 51.6277 106.954 52.6556 108.769C51.618 108.7 50.586 108.596 49.5483 108.469C49.5851 106.648 49.7855 104.833 50.147 103.048Z" fill="#94122E"/>
<path d="M60.8487 102.167C61.6298 104.189 62.3368 106.234 62.9411 108.308C59.5506 108.874 56.1054 109.028 52.6786 108.769C51.6507 106.954 50.81 105.037 50.1699 103.048L50.2212 102.795C50.6488 100.772 51.1734 98.1858 52.4163 96.4978C52.696 96.0793 53.0731 95.7365 53.5144 95.4994C53.9558 95.2624 54.4479 95.1384 54.9477 95.1382C58.1348 95.3513 59.8794 99.6087 60.8487 102.167Z" fill="url(#paint5_linear)"/>
<path d="M64.4058 108.031C63.9155 108.135 63.4308 108.227 62.9405 108.308C62.3362 106.234 61.6292 104.189 60.8481 102.167C59.8674 99.6088 58.1342 95.3513 54.9243 95.1382C54.4245 95.1384 53.9323 95.2624 53.491 95.4994C53.0497 95.7365 52.6726 96.0793 52.3929 96.4978C51.15 98.1973 50.6254 100.772 50.1978 102.795L50.1465 103.048C49.0519 99.6702 48.5389 96.1277 48.6299 92.5745C48.9606 90.5639 49.3882 88.5418 49.9013 86.5946C49.9929 86.0919 50.2125 85.622 50.5384 85.231C50.8643 84.8401 51.2853 84.5417 51.76 84.3651C52.2666 84.2401 52.7934 84.2231 53.3068 84.3154C53.8202 84.4076 54.309 84.607 54.7418 84.9008C55.6073 85.4863 56.3654 86.2193 56.9825 87.067C61.5893 92.8511 64.0694 100.617 64.4058 108.031Z" fill="url(#paint6_linear)"/>
<path style="mix-blend-mode:screen" d="M51.1106 96.7512C51.5382 98.6351 52.3193 100.64 53.9613 101.452C55.6033 102.265 57.7186 101.504 58.8531 99.9774C60.8885 97.2409 60.0903 93.4732 58.6707 90.6445C57.5988 88.5187 54.463 83.5757 51.675 85.2637C50.7457 85.8398 50.4948 87.113 50.4207 88.2479C50.2361 91.1012 50.4686 93.9664 51.1106 96.7512Z" fill="url(#paint7_linear)"/>
<path d="M57.3531 29.9578C56.4865 37.3435 53.248 44.2798 49.9013 50.9049C48.2365 51.8094 46.4462 52.8695 44.77 53.7855C43.8736 57.2934 43.7259 60.954 44.3367 64.524C36.7867 65.0174 29.2074 64.2782 21.8902 62.3348C21.0705 58.929 20.5309 55.4606 20.2767 51.965C18.7658 50.8128 15.5103 47.7479 15.5103 47.7479C15.5103 47.7479 14.7007 41.4799 14.5753 39.3137C14.2633 34.7688 14.6811 30.2027 15.8125 25.7926C17.8023 18.3724 22.4489 11.4822 29.188 7.93338C35.9271 4.38458 44.8099 4.7072 50.6368 9.66169C56.2755 14.403 58.2254 22.5491 57.3531 29.9578Z" fill="url(#paint8_radial)"/>
<path d="M71.4591 30.3266C70.0053 35.0679 67.3484 39.5443 64.8512 43.8535C64.1442 45.0806 63.4372 46.3308 62.7645 47.5982C62.4491 47.5079 62.1661 47.3279 61.9492 47.0797C60.8659 45.9275 60.6777 44.3432 60.7633 42.684C60.7633 42.6206 60.7633 42.5573 60.7633 42.4881C61.9606 40.9154 63.1522 39.3311 64.2696 37.7007C66.2764 34.883 67.888 31.7986 69.0588 28.5349C69.4693 28.5035 69.8805 28.5849 70.2489 28.7705C70.6173 28.9561 70.9291 29.239 71.1513 29.5892C71.2879 29.819 71.3915 30.0673 71.4591 30.3266Z" fill="url(#paint9_linear)"/>
<path d="M71.9134 31.4387C71.9822 30.6923 71.9322 29.9396 71.7652 29.2092C71.6733 28.8412 71.5148 28.4935 71.2977 28.1837C70.8587 27.6045 70.2113 27.2236 69.496 27.1237C68.902 27.0203 68.2917 27.0719 67.7229 27.2735C66.4686 27.7942 65.3785 28.6507 64.57 29.7507C61.4218 33.6081 59.7182 38.4623 59.758 43.462C59.758 43.583 59.758 43.704 59.758 43.8192C59.8207 45.5475 60.2084 47.224 61.5197 48.3934C61.7046 48.5604 61.9119 48.7 62.1355 48.8082C63.3271 49.3843 64.4161 48.4511 65.391 47.3392C66.9211 45.6269 68.2104 43.7096 69.2224 41.6415C70.7952 38.4603 71.7108 34.9889 71.9134 31.4387ZM65.2143 46.2734C64.4275 47.1203 63.6065 47.8231 62.7627 47.5984C62.4473 47.5081 62.1643 47.3281 61.9474 47.0799C60.8641 45.9277 60.6759 44.3434 60.7615 42.6843C60.7615 42.6209 60.7615 42.5575 60.7615 42.4884C61.0429 38.1635 62.7055 34.0476 65.4993 30.7589C66.2142 29.8278 67.1632 29.1076 68.2474 28.6734C68.5091 28.5875 68.7819 28.5409 69.057 28.5352C69.4675 28.5037 69.8787 28.5851 70.2471 28.7707C70.6155 28.9563 70.9273 29.2392 71.1494 29.5894C71.2821 29.8199 71.3819 30.0682 71.4459 30.3268C71.5792 31.0357 71.5927 31.7623 71.4858 32.4757C70.8962 37.6306 68.6999 42.4625 65.2143 46.2734Z" fill="#94122E"/>
<path d="M71.4993 32.4753C70.9097 37.6301 68.7134 42.4621 65.2277 46.2729C64.4409 47.1198 63.6199 47.8227 62.7761 47.598C63.4489 46.3306 64.1558 45.0804 64.8628 43.8533C67.36 39.521 69.9941 35.0677 71.4708 30.3264C71.6003 31.0359 71.6099 31.7625 71.4993 32.4753ZM65.5128 30.747C62.7189 34.0357 61.0564 38.1515 60.7749 42.4764C61.9722 40.9037 63.1638 39.3194 64.2813 37.689C66.288 34.8713 67.8997 31.7868 69.0705 28.5232C68.7954 28.5289 68.5226 28.5755 68.2609 28.6615C67.1753 29.0988 66.2262 29.8231 65.5128 30.7585V30.747Z" fill="url(#paint10_linear)"/>
<path d="M20.5389 61.9432C20.077 61.8107 19.6152 61.6667 19.1591 61.5169C18.3552 58.9763 17.5513 56.4241 16.7417 53.8835C18.3463 56.3933 19.6226 59.1024 20.5389 61.9432ZM60.4032 4.66699C63.5878 6.53925 66.1909 9.27382 67.9187 12.5619C69.6465 15.8501 70.4301 19.5608 70.1812 23.2751C70.0685 24.5762 69.8395 25.8642 69.497 27.1235C70.2061 27.2277 70.8466 27.6082 71.2816 28.1835C71.4987 28.4933 71.6572 28.841 71.7491 29.209C72.1933 27.5594 72.4534 25.8647 72.5245 24.1566C72.8552 16.0393 67.7296 8.00263 60.4032 4.66699ZM59.7647 43.842C58.1284 46.0024 56.5149 48.1743 55.0895 50.4845C52.598 54.5172 50.688 59.1261 50.5911 63.8386C53.2083 63.4337 55.7995 62.872 58.3507 62.1564C58.3507 57.5475 60.0155 53.0655 62.1422 48.8311C61.9186 48.7229 61.7113 48.5832 61.5264 48.4163C60.2151 47.2411 59.8274 45.5646 59.7647 43.819V43.842Z" fill="#CF5B44"/>
<path d="M74.1323 18.6317C73.2096 14.0089 70.853 9.80344 67.4047 6.62566C63.9382 3.52622 59.4227 1.78639 54.8615 0.933756C46.1953 -0.685095 36.5029 -0.512264 28.6121 3.98134C22.2512 7.65523 17.4998 13.6231 15.3107 20.6883C13.5319 26.53 13.3665 33.161 13.7143 39.3541C13.7656 40.2989 13.8283 41.238 13.9025 42.1597C14.3149 47.2183 15.3767 52.2011 17.0611 56.9829C17.2891 57.6339 18.2013 61.2115 18.8057 61.4016L19.1763 61.5168C18.3724 58.9762 17.5685 56.4241 16.7589 53.8834C18.3639 56.395 19.6402 59.106 20.556 61.9489C21.0007 62.0756 21.4398 62.1966 21.8902 62.3118C21.0705 58.906 20.5308 55.4376 20.2767 51.942C18.7658 50.7898 15.5103 47.7249 15.5103 47.7249C15.5103 47.7249 14.7007 41.4799 14.5752 39.3138C14.2633 34.7688 14.6811 30.2028 15.8124 25.7926C17.8022 18.3724 22.4489 11.4822 29.188 7.93342C35.9271 4.38462 44.8099 4.70723 50.6368 9.66173C56.2755 14.4031 58.2254 22.5492 57.353 29.9579C56.4807 37.3666 53.248 44.251 49.9013 50.8762C48.2365 51.7807 46.4462 52.8407 44.77 53.7567C43.8694 57.2739 43.7217 60.9447 44.3367 64.5241C46.4348 64.3973 48.5253 64.1707 50.6082 63.8443C50.7052 59.1202 52.6152 54.5344 55.1067 50.4902C56.532 48.1858 58.1455 46.0081 59.7818 43.8477C59.7818 43.7325 59.7818 43.6115 59.7818 43.4905C59.742 38.4908 61.4456 33.6366 64.5938 29.7793C65.4024 28.6792 66.4924 27.8228 67.7467 27.302C68.3155 27.1004 68.9259 27.0488 69.5199 27.1522C69.8624 25.8929 70.0914 24.6049 70.2041 23.3039C70.4562 19.5825 69.6718 15.8641 67.9395 12.5701C66.2073 9.27615 63.5966 6.53832 60.4033 4.66691C67.7296 8.00255 72.8552 16.0392 72.5416 24.1565C72.4705 25.8646 72.2105 27.5593 71.7662 29.2089C71.9332 29.9393 71.9832 30.692 71.9145 31.4384C71.7136 34.9882 70.7999 38.4596 69.2291 41.6412C68.2171 43.7093 66.9279 45.6266 65.3978 47.3389C64.4 48.4508 63.3338 49.3726 62.1422 48.808C60.0156 53.0423 58.3736 57.5071 58.3508 62.1332C59.4911 61.8183 60.6181 61.4688 61.7317 61.0847C63.0887 54.304 66.8231 48.2491 69.9133 41.9811C71.4718 38.9672 72.7193 35.7992 73.6363 32.5273C74.8707 27.9977 75.0406 23.2393 74.1323 18.6317Z" fill="url(#paint11_linear)"/>
<path style="mix-blend-mode:screen" d="M56.7209 2.03986C57.8377 4.33141 58.184 6.92855 57.7073 9.43703C57.2296 11.9372 56.277 14.3201 54.9022 16.454C51.7208 21.6389 47.0057 25.6371 41.7889 28.4715C36.5721 31.3059 30.8022 32.9997 25.0039 34.0943C23.332 34.4826 21.611 34.6089 19.9011 34.4687C19.0456 34.3916 18.214 34.1424 17.4551 33.7358C16.6963 33.3292 16.0256 32.7733 15.4825 32.101C12.7914 28.4369 15.015 22.071 16.6228 18.3609C18.6391 13.6259 21.8278 9.49521 25.8819 6.3664C34.4569 -0.172373 46.6693 -0.996201 56.7209 2.03986Z" fill="url(#paint12_linear)"/>
<path d="M45.8529 40.5352C45.756 40.8982 45.6647 41.2611 45.5792 41.6183C43.044 41.3764 40.5011 41.2112 37.9507 41.1229C36.4804 35.6816 36.5913 29.9277 38.27 24.5484C38.648 23.1943 39.2641 21.92 40.0887 20.7864C40.9351 19.6518 42.1917 18.902 43.5837 18.7009C44.4529 18.6588 45.318 18.8452 46.0945 19.2421C46.871 19.6389 47.5323 20.2326 48.0137 20.965C48.9575 22.4517 49.4106 24.2024 49.3079 25.9656C49.2192 27.5509 48.967 29.1226 48.5554 30.6551C48.0137 33.1093 46.3318 37.286 45.8529 40.5352ZM25.8979 27.9243C25.9891 27.1178 26.0746 26.3112 26.1658 25.5105C26.2913 24.7467 26.2817 23.9664 26.1373 23.206C26.06 22.824 25.8835 22.4695 25.6261 22.179C25.3686 21.8885 25.0394 21.6723 24.6721 21.5526C24.3934 21.4991 24.1068 21.5043 23.8302 21.5677C23.5535 21.6312 23.2928 21.7515 23.0643 21.9213C22.6097 22.2619 22.2229 22.686 21.924 23.1715C20.9251 24.716 20.1925 26.4205 19.7574 28.2124C18.6145 32.7339 18.849 37.4987 20.4302 41.8833C22.0551 41.6932 23.6857 41.5319 25.3163 41.4109C25.3163 41.1805 25.2821 40.9558 25.2707 40.7311C25.2422 36.9634 25.4532 32.032 25.8865 27.9243H25.8979Z" fill="#44CFB8"/>
<path d="M25.2312 32.2621C25.1137 31.8752 24.9008 31.5247 24.6127 31.2436C24.3245 30.9624 23.9704 30.7598 23.5835 30.6548C23.196 30.6065 22.8028 30.6595 22.4414 30.8088C22.08 30.9581 21.7626 31.1987 21.5196 31.5074C21.0457 32.1354 20.72 32.8645 20.5675 33.639C19.9873 35.9874 20.0128 38.447 20.6416 40.7827C20.7382 41.179 20.9704 41.528 21.2972 41.7678C22.6257 41.6238 23.9598 41.4913 25.2882 41.3933C25.2882 41.1629 25.254 40.9382 25.2426 40.7135C25.2426 38.5416 25.311 35.9722 25.4536 33.397C25.4251 33.011 25.3505 32.6299 25.2312 32.2621Z" fill="#C9FFEF"/>
<path d="M41.8004 29.1396C41.3301 29.1409 40.8651 29.2391 40.4337 29.4284C40.0024 29.6176 39.6138 29.8937 39.2918 30.24C37.8037 31.7494 37.644 33.5411 37.644 35.569C37.657 37.4457 37.8925 39.314 38.3453 41.1341C40.3142 41.2071 42.2793 41.33 44.2406 41.5028C44.3204 40.2469 44.52 37.3664 44.5428 37.0438C44.6625 35.4249 45.2555 33.9271 44.9191 32.2621C44.5998 30.7009 43.374 29.2088 41.8004 29.1396Z" fill="#C9FFEF"/>
<path style="mix-blend-mode:screen" d="M19.6159 36.7962C19.685 37.1718 19.8264 37.53 20.0321 37.8505C20.139 38.009 20.2855 38.1362 20.4567 38.2192C20.6279 38.3021 20.8178 38.3379 21.0071 38.3229C21.4689 38.2537 21.7711 37.8044 21.9934 37.3896C23.51 34.5091 23.8749 31.1907 23.949 27.9415C23.9883 27.457 23.942 26.9693 23.8122 26.5012C23.7605 26.2682 23.6462 26.0542 23.4818 25.8827C23.3174 25.7112 23.1093 25.5889 22.8805 25.5293C22.6517 25.4697 22.4111 25.4751 22.1851 25.545C21.9592 25.6148 21.7567 25.7464 21.6 25.9251C18.9204 28.3736 18.8576 33.5239 19.6159 36.7962Z" fill="url(#paint13_linear)"/>
<path style="mix-blend-mode:screen" d="M37.2557 34.6763C37.2934 35.366 37.4761 36.0396 37.7916 36.6523C37.9552 36.9562 38.1953 37.2111 38.4876 37.3912C38.7799 37.5712 39.1142 37.6701 39.4564 37.6778C40.5112 37.6259 41.1669 36.5256 41.5603 35.5347C43.1282 31.7785 44.8158 27.2157 43.8009 23.1139C43.7191 22.7032 43.5324 22.3212 43.2594 22.0059C42.9864 21.6906 42.6365 21.4529 42.2444 21.3164C41.9359 21.2466 41.6162 21.2439 41.3066 21.3084C40.997 21.373 40.7044 21.5034 40.4485 21.6909C39.94 22.0694 39.51 22.5451 39.1828 23.0908C37.136 26.2537 36.8509 30.9892 37.2557 34.6763Z" fill="url(#paint14_linear)"/>
<path d="M38.7843 44.4583C36.8315 45.6753 34.579 46.3122 32.2847 46.296C32.2048 46.5438 31.9996 46.9297 31.9141 47.1717C34.4911 47.6499 37.0739 46.4458 38.7843 44.4583Z" fill="#44CFB8"/>
<path d="M47.5574 69.0061L48.2701 98.9289L46.7022 100.473L45.0203 70.9418L1.52979 65.6993L3.93579 63.6138L47.5574 69.0061Z" fill="#547587"/>
<path d="M45.0203 70.9418L46.7022 100.473L9.26662 97.3561L1.52979 65.6992L45.0203 70.9418Z" fill="url(#paint15_linear)"/>
<path style="mix-blend-mode:screen" d="M15.2544 67.3528L27.33 98.8599L22.6321 98.4681C22.6321 98.4681 7.5917 66.431 7.63731 66.4368L15.2544 67.3528ZM19.0174 67.8079L28.1853 98.8599L34.2972 99.436L29.5308 69.0753L19.0174 67.8079Z" fill="url(#paint16_linear)"/>
<path d="M12.5572 80.655C12.699 81.6362 12.4973 82.6367 11.9871 83.4837C10.1661 83.2801 8.33394 83.1973 6.50229 83.2359C6.17412 84.0671 5.98157 84.9465 5.93214 85.8399C7.85732 87.2677 10.0256 88.3261 12.3291 88.9624C12.6175 89.5832 12.7741 90.2581 12.7888 90.9437C12.8035 91.6293 12.6761 92.3105 12.4147 92.9433C12.0099 92.9894 11.7704 93.0988 11.3656 93.1449C11.3689 93.1717 11.3689 93.1988 11.3656 93.2256C8.99964 92.9252 6.72389 92.1201 4.68923 90.8636C5.44442 92.0845 6.6139 92.9856 7.97896 93.3984C9.13422 93.732 10.3247 93.9254 11.5252 93.9745C11.6466 94.8962 11.4449 95.8317 10.9551 96.6189C8.18421 96.4863 5.47603 95.1843 3.17265 94.1589C1.5743 91.9747 0.539308 89.4227 0.161068 86.7333C-0.217172 84.0438 0.0732444 81.3015 1.00611 78.7539C4.88878 78.1778 9.22757 78.5349 12.5572 80.655Z" fill="url(#paint17_radial)"/>
<path d="M11.3712 93.2429C11.4496 93.4962 11.5031 93.7567 11.5308 94.0206C10.3303 93.9715 9.13981 93.7781 7.98455 93.4445C6.61949 93.0317 5.45001 92.1306 4.69482 90.9097C6.73179 92.1561 9.00741 92.9513 11.3712 93.2429Z" fill="#1D2243"/>
<path d="M40.4934 96.0832C42.5418 96.1286 44.5903 95.9975 46.6167 95.6914C44.7242 96.6061 42.6853 97.1719 40.596 97.3621C40.5073 96.9576 40.469 96.5434 40.482 96.1292L40.4934 96.0832Z" fill="#1D2243"/>
<path d="M53.425 93.9055C53.253 95.2757 52.9061 96.6177 52.393 97.8979C52.2847 97.9555 52.1707 98.0189 52.0567 98.0707C48.8068 99.6953 44.3939 99.655 40.9218 98.9406C40.8419 98.4221 40.6937 97.8921 40.5968 97.3563C42.6815 97.1684 44.7164 96.6065 46.6061 95.6972C44.5797 96.0032 42.5312 96.1343 40.4828 96.0889V96.1235C39.735 96.1248 38.9906 96.022 38.2706 95.8181C37.631 94.531 37.475 93.0532 37.8316 91.6587C40.2027 91.4958 42.5629 91.1996 44.9014 90.7715C45.1125 89.7612 45.0832 88.7147 44.8158 87.7181C42.7194 86.4926 40.3855 85.7399 37.9741 85.5116C37.7415 84.9926 37.6279 84.4272 37.6418 83.8576C37.6556 83.288 37.7965 82.729 38.0539 82.2221C41.5299 81.271 45.1789 81.1625 48.7042 81.9052C48.9494 81.767 49.1888 81.6172 49.4283 81.4674C51.6846 83.9601 53.0844 87.1222 53.4193 90.4834C53.5466 91.6204 53.5485 92.7681 53.425 93.9055Z" fill="url(#paint18_radial)"/>
<path d="M61.019 85.4828C62.8559 81.897 63.9812 77.9828 64.3315 73.9607C64.6827 75.6853 64.7501 77.4565 64.5311 79.2032C64.0273 82.5628 62.8643 85.7868 61.1102 88.6859C58.9836 92.4075 56.1557 95.8872 52.3984 97.9036C52.9101 96.6212 53.255 95.2773 53.4247 93.9054C56.627 91.7999 59.2416 88.9 61.019 85.4828Z" fill="#CF5B44"/>
<path d="M64.32 73.9723C63.9696 77.9944 62.8444 81.9086 61.0075 85.4944C59.2317 88.906 56.6212 91.8016 53.4246 93.9055C53.5671 92.7702 53.5843 91.6225 53.4759 90.4834C53.141 87.1223 51.7412 83.9601 49.4849 81.4674C52.9596 79.1631 55.6378 75.8226 57.1476 71.9098C57.4534 70.9271 57.9113 69.9996 58.5045 69.1618C59.1602 68.3726 60.272 67.8483 61.2127 68.2401C61.7645 68.5137 62.2216 68.9495 62.524 69.4902C63.4032 70.8532 64.0131 72.3752 64.32 73.9723Z" fill="url(#paint19_linear)"/>
<path style="mix-blend-mode:screen" d="M53.5042 88.7206C53.2034 85.9973 52.0092 83.4541 50.1118 81.4963C53.5788 79.4643 56.2088 76.2426 57.5237 72.4169C58.0539 72.3593 58.2363 72.7625 58.3903 73.281C60.0209 78.7022 57.6548 84.9068 53.5042 88.7206Z" fill="url(#paint20_linear)"/>
<defs>
<linearGradient id="paint0_linear" x1="34.7239" y1="109.714" x2="30.5194" y2="91.2683" gradientUnits="userSpaceOnUse">
<stop stop-color="#FBA746"/>
<stop offset="1" stop-color="#DE731F"/>
</linearGradient>
<linearGradient id="paint1_linear" x1="26.1491" y1="95.9733" x2="28.6857" y2="111.053" gradientUnits="userSpaceOnUse">
<stop stop-color="#FF8759"/>
<stop offset="1" stop-color="#AB1535"/>
</linearGradient>
<linearGradient id="paint2_linear" x1="29.7411" y1="92.1887" x2="29.3744" y2="107.426" gradientUnits="userSpaceOnUse">
<stop stop-color="#BCBD99"/>
<stop offset="0.16" stop-color="#9C9D7F"/>
<stop offset="0.74" stop-color="#2C2D24"/>
<stop offset="1"/>
</linearGradient>
<linearGradient id="paint3_linear" x1="2269.63" y1="4620.22" x2="1346.63" y2="3632.33" gradientUnits="userSpaceOnUse">
<stop stop-color="#FBA746"/>
<stop offset="1" stop-color="#DE731F"/>
</linearGradient>
<linearGradient id="paint4_linear" x1="1128.09" y1="1891.98" x2="1372.6" y2="2368.19" gradientUnits="userSpaceOnUse">
<stop stop-color="#BCBD99"/>
<stop offset="0.16" stop-color="#9C9D7F"/>
<stop offset="0.74" stop-color="#2C2D24"/>
<stop offset="1"/>
</linearGradient>
<linearGradient id="paint5_linear" x1="1304.17" y1="2322.52" x2="1323.57" y2="2724.94" gradientUnits="userSpaceOnUse">
<stop stop-color="#FF8759"/>
<stop offset="1" stop-color="#AB1535"/>
</linearGradient>
<linearGradient id="paint6_linear" x1="1633.86" y1="4941.85" x2="1515.53" y2="3393.05" gradientUnits="userSpaceOnUse">
<stop stop-color="#FBA746"/>
<stop offset="1" stop-color="#DE731F"/>
</linearGradient>
<linearGradient id="paint7_linear" x1="968.845" y1="2574" x2="1105.98" y2="3083.86" gradientUnits="userSpaceOnUse">
<stop stop-color="#BCBD99"/>
<stop offset="0.16" stop-color="#9C9D7F"/>
<stop offset="0.74" stop-color="#2C2D24"/>
<stop offset="1"/>
</linearGradient>
<radialGradient id="paint8_radial" cx="0" cy="0" r="1" gradientUnits="userSpaceOnUse" gradientTransform="translate(30.7113 18.5723) rotate(11.4554) scale(37.1086 37.4661)">
<stop stop-color="#3E6785"/>
<stop offset="1" stop-color="#1D2243"/>
</radialGradient>
<linearGradient id="paint9_linear" x1="900.915" y1="1275.6" x2="563.306" y2="2000.27" gradientUnits="userSpaceOnUse">
<stop stop-color="#FF8759"/>
<stop offset="1" stop-color="#AB1535"/>
</linearGradient>
<linearGradient id="paint10_linear" x1="889.56" y1="1369" x2="536.258" y2="2130.77" gradientUnits="userSpaceOnUse">
<stop stop-color="#FF8759"/>
<stop offset="1" stop-color="#AB1535"/>
</linearGradient>
<linearGradient id="paint11_linear" x1="2710.18" y1="9486.73" x2="1785.76" y2="2700.19" gradientUnits="userSpaceOnUse">
<stop stop-color="#FBA746"/>
<stop offset="1" stop-color="#DE731F"/>
</linearGradient>
<linearGradient id="paint12_linear" x1="643.032" y1="955.531" x2="1132.99" y2="3638.8" gradientUnits="userSpaceOnUse">
<stop stop-color="#BCBD99"/>
<stop offset="0.16" stop-color="#9C9D7F"/>
<stop offset="0.74" stop-color="#2C2D24"/>
<stop offset="1"/>
</linearGradient>
<linearGradient id="paint13_linear" x1="-121.517" y1="1272.27" x2="-306.104" y2="899.319" gradientUnits="userSpaceOnUse">
<stop stop-color="#BCBD99"/>
<stop offset="0.16" stop-color="#9C9D7F"/>
<stop offset="0.74" stop-color="#2C2D24"/>
<stop offset="1"/>
</linearGradient>
<linearGradient id="paint14_linear" x1="93.8544" y1="1597.26" x2="77.7631" y2="665.094" gradientUnits="userSpaceOnUse">
<stop stop-color="#BCBD99"/>
<stop offset="0.16" stop-color="#9C9D7F"/>
<stop offset="0.74" stop-color="#2C2D24"/>
<stop offset="1"/>
</linearGradient>
<linearGradient id="paint15_linear" x1="22.7733" y1="63.6771" x2="26.4747" y2="97.1519" gradientUnits="userSpaceOnUse">
<stop stop-color="#B2DBC4"/>
<stop offset="1" stop-color="#375D75"/>
</linearGradient>
<linearGradient id="paint16_linear" x1="12.3866" y1="54.7995" x2="35.3898" y2="102.465" gradientUnits="userSpaceOnUse">
<stop stop-color="#8DA87E"/>
<stop offset="0.08" stop-color="#79906C"/>
<stop offset="0.23" stop-color="#54644B"/>
<stop offset="0.38" stop-color="#364030"/>
<stop offset="0.54" stop-color="#1E241B"/>
<stop offset="0.69" stop-color="#0D100C"/>
<stop offset="0.84" stop-color="#030403"/>
<stop offset="1"/>
</linearGradient>
<radialGradient id="paint17_radial" cx="0" cy="0" r="1" gradientUnits="userSpaceOnUse" gradientTransform="translate(99.1221 2571.53) scale(489.599 693.3)">
<stop stop-color="#3E6785"/>
<stop offset="1" stop-color="#1D2243"/>
</radialGradient>
<radialGradient id="paint18_radial" cx="0" cy="0" r="1" gradientUnits="userSpaceOnUse" gradientTransform="translate(1257.68 2576.1) scale(814.578 923.202)">
<stop stop-color="#3E6785"/>
<stop offset="1" stop-color="#1D2243"/>
</radialGradient>
<linearGradient id="paint19_linear" x1="1335.99" y1="3695.35" x2="1722.74" y2="3695.35" gradientUnits="userSpaceOnUse">
<stop stop-color="#FBA746"/>
<stop offset="1" stop-color="#DE731F"/>
</linearGradient>
<linearGradient id="paint20_linear" x1="783.161" y1="2324.55" x2="979.532" y2="2337.7" gradientUnits="userSpaceOnUse">
<stop stop-color="#BCBD99"/>
<stop offset="0.16" stop-color="#9C9D7F"/>
<stop offset="0.74" stop-color="#2C2D24"/>
<stop offset="1"/>
</linearGradient>
</defs>
</svg>
