<svg fill="none" height="92" viewBox="0 0 63 92" width="63" xmlns="http://www.w3.org/2000/svg" xmlns:xlink="http://www.w3.org/1999/xlink"><linearGradient id="a"><stop offset="0" stop-color="#fba746"/><stop offset="1" stop-color="#de731f"/></linearGradient><linearGradient id="b" gradientUnits="userSpaceOnUse" x1="33.7189" x2="37.2643" xlink:href="#a" y1="92.5155" y2="76.9615"/><linearGradient id="c"><stop offset="0" stop-color="#ff8759"/><stop offset="1" stop-color="#ab1535"/></linearGradient><linearGradient id="d" gradientUnits="userSpaceOnUse" x1="40.9497" x2="38.8107" xlink:href="#c" y1="80.9291" y2="93.6449"/><linearGradient id="e"><stop offset="0" stop-color="#bcbd99"/><stop offset=".16" stop-color="#9c9d7f"/><stop offset=".74" stop-color="#2c2d24"/><stop offset="1"/></linearGradient><linearGradient id="f" gradientUnits="userSpaceOnUse" x1="37.9208" x2="38.2301" xlink:href="#e" y1="77.7375" y2="90.5867"/><linearGradient id="g" gradientUnits="userSpaceOnUse" x1="-1850.85" x2="-1072.54" xlink:href="#a" y1="3895.97" y2="3062.94"/><linearGradient id="h" gradientUnits="userSpaceOnUse" x1="-888.25" x2="-1094.44" xlink:href="#e" y1="1595.4" y2="1996.96"/><linearGradient id="i" gradientUnits="userSpaceOnUse" x1="-1036.74" x2="-1053.09" xlink:href="#c" y1="1958.45" y2="2297.79"/><linearGradient id="j" gradientUnits="userSpaceOnUse" x1="-1314.75" x2="-1214.96" xlink:href="#a" y1="4167.19" y2="2861.16"/><linearGradient id="k" gradientUnits="userSpaceOnUse" x1="-753.972" x2="-869.611" xlink:href="#e" y1="2170.51" y2="2600.44"/><linearGradient id="l"><stop offset="0" stop-color="#3e6785"/><stop offset="1" stop-color="#1d2243"/></linearGradient><radialGradient id="m" cx="0" cy="0" gradientTransform="matrix(-30.66830217 6.21445675 -6.27431426 -30.96369858 37.1027 15.6611)" gradientUnits="userSpaceOnUse" r="1" xlink:href="#l"/><linearGradient id="n" gradientUnits="userSpaceOnUse" x1="-696.69" x2="-412.004" xlink:href="#c" y1="1075.64" y2="1686.71"/><linearGradient id="o" gradientUnits="userSpaceOnUse" x1="-687.115" x2="-389.195" xlink:href="#c" y1="1154.4" y2="1796.76"/><linearGradient id="p" gradientUnits="userSpaceOnUse" x1="-2222.34" x2="-1442.83" xlink:href="#a" y1="7999.63" y2="2276.92"/><linearGradient id="q" gradientUnits="userSpaceOnUse" x1="-479.232" x2="-892.388" xlink:href="#e" y1="805.745" y2="3068.4"/><linearGradient id="r" gradientUnits="userSpaceOnUse" x1="165.469" x2="321.121" xlink:href="#e" y1="1072.83" y2="758.345"/><linearGradient id="s" gradientUnits="userSpaceOnUse" x1="-16.1423" x2="-2.57335" xlink:href="#e" y1="1346.88" y2="560.836"/><linearGradient id="t" gradientUnits="userSpaceOnUse" x1="43.7959" x2="40.6747" y1="53.6952" y2="81.9227"><stop offset="0" stop-color="#b2dbc4"/><stop offset="1" stop-color="#375d75"/></linearGradient><linearGradient id="u" gradientUnits="userSpaceOnUse" x1="52.5555" x2="33.1582" y1="46.2094" y2="86.4027"><stop offset="0" stop-color="#8da87e"/><stop offset=".08" stop-color="#79906c"/><stop offset=".23" stop-color="#54644b"/><stop offset=".38" stop-color="#364030"/><stop offset=".54" stop-color="#1e241b"/><stop offset=".69" stop-color="#0d100c"/><stop offset=".84" stop-color="#030403"/><stop offset="1"/></linearGradient><radialGradient id="v" cx="0" cy="0" gradientTransform="matrix(-412.852 0 0 -584.621 -20.5841 2168.42)" gradientUnits="userSpaceOnUse" r="1" xlink:href="#l"/><radialGradient id="w" cx="0" cy="0" gradientTransform="matrix(-686.888 0 0 -778.485 -997.533 2172.28)" gradientUnits="userSpaceOnUse" r="1" xlink:href="#l"/><linearGradient id="x" gradientUnits="userSpaceOnUse" x1="-1063.56" x2="-1389.69" xlink:href="#a" y1="3116.08" y2="3116.08"/><linearGradient id="y" gradientUnits="userSpaceOnUse" x1="-597.396" x2="-762.985" xlink:href="#e" y1="1960.16" y2="1971.25"/><path d="m30.642 79.5398c-.3942 4.0418.3846 8.0011 1.25 11.9652.8894.1651 1.7788.2866 2.6779.3692-.6186-2.4482-1.0589-4.9389-1.3173-7.4521-.1942-1.1847-.1434-2.3971.149-3.5609.4423-1.4185 1.4856-2.5262 2.5866-3.5318-.3544-.3493-.7577-.644-1.1972-.8744-.4187-.2366-.8904-.3608-1.3702-.3608-.4797 0-.9514.1242-1.3701.3608-.9856.6121-1.2741 1.9092-1.4087 3.0848z" fill="#cf5b44"/><path d="m33.4016 80.8612c-.2925 1.1639-.3432 2.3763-.149 3.5609.2584 2.5132.6986 5.0039 1.3173 7.4521.7356.068 1.4423.1069 2.2019.1215-.7597-4.137-.3584-8.4062 1.1587-12.3247-.3222-.4615-.6635-.9084-1.0145-1.3311-.2876-.3626-.5975-.7066-.9279-1.0298-1.1009 1.025-2.1442 2.1326-2.5865 3.5511z" fill="url(#b)"/><path d="m37.9305 79.6709c-1.5135 3.9125-1.9148 8.1745-1.1587 12.3052 2.0606.0449 4.1204-.1178 6.149-.4858-.8224-4.2506-2.5228-8.278-4.9903-11.8194z" fill="url(#d)"/><path d="m36.4833 78.6411c2.221 2.3722 3.8509 5.2448 4.7548 8.38-.6392.4354-1.3925.6681-2.1634.6681s-1.5243-.2327-2.1635-.6681c-.5965-.4568-1.0837-1.0433-1.4257-1.716-.342-.6726-.5301-1.4144-.5503-2.1704-.0576-1.5205.8029-3.1868 1.5481-4.4936z" fill="url(#f)"/><path d="m20.6516 53.4864c-5.1923 2.4824-8.2356 8.6277-6.3413 14.1803 1.0746 2.9308 2.9936 5.4689 5.5096 7.287 3.3894 2.5455 7.6442 4.4742 11.9423 3.488.52-.1205 1.0297-.2829 1.524-.4858-1.3777.2744-2.7969.2555-4.167-.0557-1.37-.3112-2.6607-.9077-3.7897-1.7515-3.0048-2.2298-4.8077-5.8004-5.7356-9.4487-.6586-2.565-.9086-5.3875.2067-7.7727 1.3895-2.9828 4.6827-4.688 7.9279-5.0474 1.5813-.1572 3.1759-.1098 4.7452.1408-3.6202-1.9334-7.9471-2.3852-11.8221-.5343z" fill="#cf5b44"/><path d="m19.8006 58.9178c-1.1154 2.3998-.8654 5.2223-.2067 7.7727.9327 3.6484 2.7308 7.219 5.7356 9.4488 1.1289.8438 2.4197 1.4403 3.7897 1.7515 1.3701.3111 2.7893.3301 4.167.0556 1.4994-.6141 2.8543-1.54 3.9766-2.7175 1.1222-1.1776 1.9869-2.5805 2.5378-4.1176.5791-1.7358.8023-3.5725.656-5.3982-.1463-1.8258-.659-3.6023-1.5069-5.2213-1.4601-2.7708-3.7161-5.0301-6.4712-6.4805-1.5694-.2507-3.164-.298-4.7452-.1409-3.25.3595-6.5432 2.0646-7.9327 5.0474zm9.4423 4.5908c-.3605-.7325-.5404-1.5422-.5245-2.3602.0159-.8179.2272-1.6198.6159-2.3375.2545-.4456.6191-.8168 1.0582-1.0773.439-.2606.9375-.4016 1.4466-.4092-.1857-1.1401-.5441-2.2444-1.0625-3.2743.9216.962 1.6268 2.1136 2.0673 3.3763 1.7596.4081 3.3173 1.9432 4.101 3.4006.1826.3255.3278.671.4327 1.0299.1644.541.2156 1.1106.1502 1.6727-.0654.562-.2459 1.1041-.5301 1.5918-.2221.355-.5175.6574-.866.8863-.3486.2289-.7419.379-1.1532.44-.1586.0242-.3173.0388-.4808.0534.5631 3.6362-.2805 7.3519-2.3557 10.3766 1.5865-3.2281 2.0554-6.9007 1.3317-10.43-.8775-.1402-1.7128-.4768-2.4448-.9854-.7321-.5085-1.3423-1.176-1.786-1.9537z" fill="url(#g)"/><path d="m29.3343 58.811c-.3887.7176-.6 1.5195-.6159 2.3375-.0159.8179.1641 1.6276.5246 2.3601.4453.772 1.0552 1.4341 1.7853 1.9383.7302.5041 1.5622.8377 2.4358.9765.7237 3.5293.2548 7.2019-1.3317 10.43 2.0752-3.0247 2.9188-6.7404 2.3558-10.3766.1586 0 .3173-.0291.4807-.0534.4113-.061.8046-.2111 1.1532-.44.3485-.2289.6439-.5312.8661-.8862.2841-.4877.4646-1.0299.53-1.5919.0654-.5621.0142-1.1317-.1502-1.6727-.1049-.3588-.2501-.7044-.4327-1.0299-.7837-1.4282-2.3414-2.9828-4.101-3.4005-.4405-1.2627-1.1457-2.4144-2.0673-3.3763.5241 1.0368.8858 2.1496 1.0721 3.2985-.5091.0076-1.0076.1486-1.4466.4092-.439.2605-.8037.6318-1.0582 1.0774zm0 3.6823c-.1333-.4636-.1918-.9459-.1731-1.4282 0-.0486 0-.0972 0-.1458s0-.102 0-.1506c-.0025-.042-.0025-.0842 0-.1263 0-.1069.0289-.2089.0529-.3109-.004-.0225-.004-.0455 0-.068 0-.0583 0-.1215.0385-.1798.0384-.0582.0721-.2477.1154-.3692.0432-.1214.0865-.2137.1346-.3157.1301-.2687.304-.5134.5144-.7239.0394-.0413.0811-.0802.125-.1165.4436-.369 1.0081-.5562 1.5817-.5247 1.7693.0583 3.4616 1.6468 4.2789 3.1285.1537.2791.2778.5738.3702.8793.4327 1.5351-.1058 3.4006-1.8366 3.6969-.7154.1011-1.4444.0261-2.125-.2186-.2485-.0874-.491-.1912-.7259-.3109-.2008-.1027-.3951-.2178-.5818-.3449-.6316-.4381-1.148-1.025-1.5048-1.71-.0483-.0908-.09-.185-.125-.2818-.0562-.1224-.1028-.2491-.1394-.3789z" fill="#cf5b44"/><path d="m29.1612 61.0648c-.0187.4824.0398.9647.1731 1.4282.0356.1365.0822.2697.1394.3984.0349.0968.0767.191.125.2817.3715.683.903 1.2635 1.5481 1.6906.1866.1271.3809.2423.5817.3449.235.1197.4775.2236.726.3109.5864.2054 1.2074.2912 1.8269.2527.851-.719 1.0721-2.0598.75-3.2112-.0942-.3055-.2199-.6002-.375-.8792-.8125-1.4574-2.5096-3.0703-4.2789-3.1286h-.1923l-.125.1166c-.2104.2104-.3843.4551-.5144.7239-.0481.102-.0913.2088-.1346.3157s-.0817.2429-.1154.3692c-.0336.1263-.0288.1215-.0384.1798-.0041.0225-.0041.0455 0 .068 0 .102-.0385.204-.0529.3109-.0026.0421-.0026.0842 0 .1263v.1506c0 .0486-.0433.102-.0433.1506z" fill="#c9ffef"/><path d="m30.1852 58.5584h.1923c1.7693.0583 3.4664 1.6469 4.2789 3.1286.1551.279.2808.5737.375.8792.3221 1.1514.1009 2.4922-.75 3.2112-.6195.0385-1.2405-.0473-1.8269-.2527.6805.2448 1.4095.3197 2.125.2187 1.7307-.2818 2.2692-2.1618 1.8365-3.697-.0859-.3063-.2036-.6027-.351-.8841-.8173-1.4817-2.5096-3.0702-4.2788-3.1285-.5802-.0365-1.1524.151-1.601.5246z" fill="#44cfb8"/><path d="m29.9401 62.231c.1442.2856.3429.5395.5846.7471.2418.2076.5218.3648.824.4625.3037.0952.6259.114.9384.0547.3125-.0592.606-.1948.8549-.3947.2426-.2058.4208-.4783.513-.7845.0921-.3061.0943-.6327.0062-.9401.2645.5926.6202 1.3262.5145 1.9432-.043.3225-.1654.629-.3561.8913-.1907.2622-.4435.4719-.7353.6098-.3668.128-.7617.1504-1.1403.0646-.3787-.0858-.7263-.2764-1.0039-.5504-.5577-.5053-.7212-1.3797-1-2.1035z" fill="#a4ede0"/><path d="m31.3872 61.9782c-.5674-.1603-1.2404-.549-1.202-1.2339.0484-.2881.2073-.5451.4423-.7153.2351-.1701.5271-.2396.8125-.1932 1.2933.1846 1.6298 2.6136-.0528 2.1424z" fill="#ebfffc"/><path d="m24.3151 58.0237c-.2073.5124-.296 1.0658-.2594 1.6181.0367.5523.1977 1.0889.4709 1.5687.5546.9709 1.3047 1.8133 2.2019 2.4727 2.0446 1.6365 4.3892 2.8483 6.8991 3.5657-.0433-.272-.0866-.544-.1443-.8112-.8736-.1388-1.7056-.4724-2.4358-.9765-.7301-.5042-1.34-1.1663-1.7853-1.9383-.3605-.7325-.5405-1.5422-.5246-2.3601.0159-.818.2272-1.6199.6159-2.3376.2511-.4455.6119-.8178 1.0474-1.0809.4355-.263.931-.4077 1.4382-.4202-.1476-.8563-.3879-1.6936-.7163-2.497-1.742.027-3.4495.4946-4.9664 1.3603-.7795.4154-1.4201 1.0542-1.8413 1.8363zm12.6442 9.8859c-.7856-.0819-1.5657-.2101-2.3365-.3837-.0289-.3401-.0674-.6802-.1202-1.0154.1586 0 .3173-.0291.4807-.0534.4113-.061.8047-.2111 1.1532-.44s.6439-.5312.8661-.8862c.2841-.4877.4646-1.0298.53-1.5919.0654-.562.0142-1.1317-.1502-1.6727-.1049-.3588-.2501-.7044-.4327-1.0299-.7837-1.4282-2.3414-2.9827-4.101-3.4005-.3269-.9383-.8009-1.8175-1.4038-2.6039 1.1073-.004 2.2058.1985 3.2404.5975 1.7717 1.3509 3.2276 3.0791 4.2644 5.062 1.0181 1.9711 1.5539 4.16 1.5625 6.3834-.1028.1464-.2222.28-.3558.3983-.8317.7384-2.0817.7384-3.1971.6364z" fill="url(#h)"/><path d="m20.7141 86.8945c-.5398 1.677-1.2486 3.2934-2.1154 4.824.875-.0583 1.7452-.1458 2.6202-.2526-.031-1.5361-.2-3.0662-.5048-4.5714z" fill="#94122e"/><path d="m11.6901 86.1513c-.6587 1.7052-1.2549 3.4297-1.76448 5.1786 2.85908.4771 5.76418.6075 8.65388.3886.8667-1.5305 1.5756-3.147 2.1154-4.8239l-.0433-.2138c-.3606-1.7051-.8029-3.8863-1.851-5.3097-.2359-.3529-.5538-.642-.926-.8419-.3721-.1999-.7871-.3044-1.2086-.3046-2.6875.1798-4.1586 3.7698-4.9759 5.9267z" fill="url(#i)"/><path d="m8.69005 91.0966c.41346.0874.82212.1651 1.23558.2332.50957-1.7489 1.10577-3.4735 1.76447-5.1786.8269-2.157 2.2884-5.747 4.9951-5.9267.4215.0001.8365.1047 1.2087.3046.3721.1999.6901.4889.926.8418 1.048 1.4331 1.4904 3.6046 1.8509 5.3098l.0433.2137c.923-2.8483 1.3556-5.8356 1.2788-8.8317-.2788-1.6955-.6394-3.4006-1.0721-5.0426-.0772-.4239-.2624-.8201-.5372-1.1498-.2748-.3296-.6298-.5813-1.0301-.7302-.4272-.1054-.8714-.1197-1.3043-.0419-.433.0778-.8451.2459-1.2101.4937-.7298.4937-1.3691 1.1117-1.8894 1.8266-3.8846 4.8774-5.97599 11.4259-6.25965 17.6781z" fill="url(#j)"/><path d="m19.9016 81.5851c-.3606 1.5886-1.0193 3.2792-2.4039 3.9641-1.3846.685-3.1682.0437-4.125-1.2436-1.7163-2.3076-1.0432-5.4847.1539-7.8699.9038-1.7926 3.548-5.9607 5.899-4.5373.7837.4858.9952 1.5594 1.0577 2.5164.1556 2.406-.0404 4.8221-.5817 7.1703z" fill="url(#k)"/><path d="m14.6372 25.2618c.7308 6.2279 3.4616 12.0769 6.2837 17.6636 1.4038.7627 2.9134 1.6565 4.3269 2.4289.7559 2.9581.8805 6.0448.3654 9.0553 6.3664.416 12.7577-.2073 18.9279-1.846.6911-2.872 1.1462-5.7967 1.3605-8.7444 1.2741-.9716 4.0193-3.556 4.0193-3.556s.6827-5.2855.7884-7.112c.2631-3.8326-.0892-7.6828-1.0432-11.4017-1.6779-6.257-5.5962-12.06714-11.2789-15.05964s-13.1731-2.72045-18.0865 1.45739c-4.7548 3.99805-6.3991 10.86725-5.6635 17.11455z" fill="url(#m)"/><path d="m2.74294 25.5725c1.22596 3.9981 3.46634 7.7728 5.57211 11.4065.59616 1.0348 1.19231 2.0889 1.75965 3.1577.2659-.0762.5045-.2279.6875-.4372.9134-.9716 1.0721-2.3076 1-3.7066 0-.0535 0-.1069 0-.1652-1.0096-1.3262-2.01445-2.6622-2.95676-4.037-1.69216-2.376-3.05117-4.9769-4.03846-7.729-.34612-.0265-.6929.0421-1.00354.1987-.31064.1565-.57356.395-.76088.6903-.11521.1938-.20262.4032-.25962.6218z" fill="url(#n)"/><path d="m2.35835 26.51c-.05799-.6294-.01579-1.2641.125-1.88.07749-.3103.21115-.6035.39423-.8647.37021-.4884.91611-.8096 1.51923-.8939.50091-.0872 1.01556-.0437 1.49519.1263 1.05769.4391 1.97687 1.1613 2.65865 2.089 2.65475 3.2526 4.09125 7.3459 4.05765 11.5619v.3012c-.0528 1.4574-.3798 2.871-1.4855 3.8572-.1559.1408-.3307.2585-.5193.3498-1.00477.4858-1.92304-.3012-2.74515-1.2388-1.29027-1.4439-2.37743-3.0606-3.23077-4.8045-1.32625-2.6826-2.09833-5.6098-2.26923-8.6035zm5.64903 12.5093c.66346.7141 1.35577 1.3068 2.06732 1.1173.2659-.0762.5045-.2279.6875-.4372.9135-.9716 1.0721-2.3075 1-3.7066 0-.0535 0-.1069 0-.1652-.2374-3.6469-1.6393-7.1176-3.9952-9.8908-.60279-.7852-1.40306-1.3925-2.31731-1.7586-.22067-.0725-.4507-.1118-.68269-.1166-.34612-.0265-.6929.0421-1.00354.1987-.31064.1565-.57356.395-.76088.6903-.11186.1944-.19603.4037-.25.6219-.1124.5977-.12378 1.2104-.03366 1.812.49718 4.3468 2.34921 8.4213 5.28846 11.6348z" fill="#94122e"/><path d="m2.70933 27.3848c.49718 4.3468 2.34921 8.4213 5.28846 11.6348.66346.7141 1.35577 1.3068 2.06731 1.1173-.56731-1.0687-1.16347-2.1229-1.75962-3.1576-2.10577-3.6532-4.32692-7.4084-5.57211-11.4065-.10921.5983-.11734 1.211-.02404 1.812zm5.04807-1.4574c2.3559 2.7732 3.7578 6.2439 3.9952 9.8908-1.0096-1.3262-2.01443-2.6621-2.95674-4.0369-1.69215-2.3761-3.05117-4.977-4.03846-7.7291.23199.0049.46203.0441.6827.1166.91538.3689 1.71576.9796 2.3173 1.7683z" fill="url(#o)"/><path d="m45.6804 52.2334c.3895-.1118.7789-.2332 1.1635-.3595.6779-2.1424 1.3558-4.2945 2.0385-6.4368-1.3531 2.1163-2.4293 4.4007-3.202 6.7963zm-33.6154-48.29785c-2.68529 1.57877-4.88035 3.88467-6.3373 6.65735-1.45696 2.7727-2.11777 5.9017-1.90785 9.0339.095 1.097.2881 2.1832.57693 3.2451-.59791.0878-1.13804.4087-1.50481.8938-.18308.2612-.31674.5544-.39423.8647-.37457-1.391-.59389-2.82-.65385-4.2604-.27884-6.8448 4.04327-13.6217 10.22111-16.43445zm.5385 33.03415c1.3798 1.8217 2.7404 3.6531 3.9423 5.6012 2.101 3.4006 3.7116 7.2869 3.7933 11.2607-2.207-.3414-4.3919-.815-6.5433-1.4185 0-3.8864-1.4038-7.6659-3.1971-11.2364.1885-.0913.3633-.2091.5192-.3498 1.1058-.991 1.4327-2.4047 1.4856-3.8767z" fill="#cf5b44"/><path d="m.488155 15.711c.778095-3.8981 2.765255-7.44431 5.673075-10.12395 2.92308-2.61359 6.73077-4.08069 10.57697-4.799666 7.3076-1.365086 15.4807-1.219347 22.1346 2.569856 5.3638 3.09799 9.3704 8.13036 11.2163 14.08806 1.5 4.926 1.6394 10.5175 1.3462 15.7398-.0433.7967-.0962 1.5886-.1587 2.3658-.3478 4.2656-1.2431 8.4673-2.6634 12.4996-.1924.5489-.9616 3.5657-1.4712 3.726l-.3125.0972c.6779-2.1424 1.3558-4.2945 2.0385-6.4368-1.3535 2.1178-2.4297 4.4039-3.202 6.8011-.375.1069-.7452.2089-1.125.3061.6912-2.872 1.1463-5.7967 1.3606-8.7444 1.2741-.9715 4.0192-3.556 4.0192-3.556s.6827-5.266.7885-7.0926c.263-3.8325-.0893-7.6828-1.0433-11.4016-1.6778-6.2571-5.5961-12.0672-11.2788-15.0597s-13.1731-2.72045-18.0865 1.45739c-4.7549 3.99811-6.3991 10.86721-5.6635 17.11461.7356 6.2473 3.4615 12.0526 6.2836 17.6392 1.4039.7627 2.9135 1.6566 4.327 2.429.7594 2.9658.8839 6.0612.3654 9.0795-1.7693-.1069-3.5321-.2979-5.2885-.5732-.0817-3.9835-1.6923-7.8505-3.7933-11.2608-1.2019-1.9431-2.5625-3.7795-3.9423-5.6012 0-.0971 0-.1992 0-.3012.0336-4.2159-1.403-8.3093-4.05767-11.5619-.68178-.9276-1.60097-1.6498-2.65866-2.0889-.47963-.1701-.99428-.2135-1.4952-.1264-.28882-1.0618-.48192-2.148-.57691-3.2451-.21265-3.138.44884-6.2735 1.90953-9.0511 1.46068-2.77765 3.66214-5.0863 6.35491-6.66436-6.17791 2.81276-10.50002 9.58956-10.2356 16.43446.05996 1.4404.27928 2.8694.65385 4.2604-.14079.6159-.18299 1.2507-.125 1.8801.1694 2.9933.93984 5.9205 2.26442 8.6034.85335 1.7439 1.9405 3.3606 3.23077 4.8045.84135.9376 1.74038 1.7149 2.74516 1.2388 1.7933 3.5706 3.1779 7.3355 3.1971 11.2365-.9615-.2656-1.9118-.5603-2.8509-.8842-1.14424-5.7178-4.29328-10.8235-6.89905-16.109-1.31418-2.5415-2.36619-5.2129-3.139428-7.9719-1.040917-3.8195-1.184147-7.832-.418267-11.7174z" fill="url(#p)"/><path d="m15.1708 1.71999c-.9416 1.93233-1.2337 4.12236-.8317 6.23762.4028 2.10819 1.2061 4.11759 2.3654 5.91699 2.6827 4.3722 6.6586 7.7436 11.0577 10.1337 4.399 2.3901 9.2644 3.8184 14.1538 4.7414 1.4098.3274 2.8611.4339 4.3029.3157.7214-.065 1.4227-.2751 2.0626-.618.6398-.3429 1.2054-.8116 1.6634-1.3786 2.2692-3.0896.3942-8.4577-.9616-11.5862-1.7002-3.9927-4.3891-7.47593-7.8077-10.11428-7.2307-5.513786-17.5288-6.208474-26.0048-3.64833z" fill="url(#q)"/><path d="m24.3343 34.1807c.0817.3061.1586.6122.2307.9133 2.1379-.204 4.2821-.3433 6.4327-.4177 1.2398-4.5884 1.1464-9.4403-.2692-13.9764-.3188-1.1418-.8383-2.2163-1.5336-3.1722-.7138-.9568-1.7734-1.5891-2.9472-1.7586-.7329-.0356-1.4624.1217-2.1172.4563-.6547.3347-1.2124.8353-1.6183 1.4529-.7958 1.2536-1.1779 2.7299-1.0914 4.2167.0748 1.3368.2875 2.6621.6346 3.9544.4568 2.0694 1.875 5.5915 2.2789 8.3313zm16.8269-10.634c-.0769-.6801-.149-1.3602-.226-2.0355-.1058-.6441-.0976-1.302.0241-1.9432.0652-.3222.214-.621.4311-.866s.4947-.4273.8045-.5282c.235-.0451.4766-.0408.7099.0127s.4531.155.6458.2982c.3833.2871.7095.6448.9616 1.0542.8423 1.3024 1.46 2.7396 1.8269 4.2507.9638 3.8127.766 7.8306-.5673 11.5279-1.3702-.1603-2.7452-.2963-4.1202-.3983 0-.1944.0288-.3838.0384-.5733.0241-3.1771-.1538-7.3355-.5192-10.7992z" fill="#44cfb8"/><path d="m41.7237 27.2049c.0991-.3263.2786-.6218.5216-.8588.243-.2371.5416-.4079.8678-.4965.3268-.0407.6584.004.9631.1299s.5724.3287.7773.589c.3996.5296.6742 1.1444.8029 1.7975.4892 1.9803.4677 4.0543-.0625 6.0238-.0814.3342-.2773.6285-.5529.8308-1.1202-.1215-2.2452-.2332-3.3654-.3158 0-.1943.0289-.3838.0385-.5732 0-1.8315-.0577-3.9981-.1779-6.1696.024-.3255.0869-.6469.1875-.9571z" fill="#c9ffef"/><path d="m27.7525 24.5718c.3966.001.7887.0839 1.1525.2434.3637.1596.6914.3925.9629.6844 1.2548 1.2728 1.3895 2.7837 1.3895 4.4937-.011 1.5825-.2095 3.158-.5914 4.6927-1.6603.0616-3.3173.1652-4.9711.311-.0674-1.0591-.2356-3.4881-.2549-3.7601-.1009-1.3651-.6009-2.6282-.3173-4.0321.2693-1.3165 1.3029-2.5747 2.6298-2.633z" fill="#c9ffef"/><path d="m46.4593 31.028c-.0582.3167-.1774.6188-.3509.889-.0902.1337-.2137.241-.3581.3109-.1443.07-.3044.1001-.464.0875-.3895-.0583-.6443-.4373-.8318-.787-1.2788-2.429-1.5865-5.2272-1.649-7.9671-.0332-.4085.0059-.8198.1154-1.2145.0435-.1964.1399-.3769.2785-.5216.1387-.1446.3141-.2477.5071-.2979.1929-.0503.3958-.0457.5864.0132.1905.0589.3612.1698.4934.3205 2.2596 2.0647 2.3125 6.4077 1.673 9.167z" fill="url(#r)"/><path d="m31.5843 29.2403c-.0318.5815-.1859 1.1496-.4519 1.6662-.138.2563-.3404.4712-.5869.6231-.2465.1518-.5284.2352-.817.2417-.8894-.0438-1.4423-.9716-1.774-1.8072-1.3221-3.1674-2.7452-7.0149-1.8894-10.4738.0689-.3463.2264-.6684.4566-.9343s.5253-.4663.8559-.5813c.2601-.0589.5297-.0612.7908-.0068s.5077.1644.7236.3225c.4287.3192.7913.7203 1.0673 1.1805 1.7259 2.667 1.9663 6.6603 1.625 9.7694z" fill="url(#s)"/><path d="m30.2958 37.4893c1.6467 1.0263 3.5461 1.5633 5.4808 1.5496.0673.2089.2404.5344.3125.7385-2.1731.4032-4.351-.6121-5.7933-2.2881z" fill="#44cfb8"/><path d="m22.8968 58.1891-.6009 25.2323 1.3221 1.3019 1.4182-24.9019 36.6731-4.4207-2.0288-1.7586z" fill="#547587"/><path d="m25.0362 59.8211-1.4182 24.9019 31.5673-2.6281 6.524-26.6945z" fill="url(#t)"/><path d="m50.1372 56.7949-10.1827 26.5681 3.9615-.3303s12.6827-27.0151 12.6443-27.0102zm-3.1731.3838-7.7307 26.1843-5.1539.4858 4.0192-25.6014z" fill="url(#u)"/><path d="m52.4112 68.012c-.1195.8274.0505 1.671.4808 2.3852 1.5355-.1717 3.0805-.2414 4.625-.2089.2767.7009.4391 1.4425.4808 2.1958-1.6234 1.204-3.4518 2.0965-5.3943 2.6331-.2431.5234-.3752 1.0925-.3876 1.6707-.0124.5781.0951 1.1525.3155 1.6861.3414.0389.5433.1312.8846.17-.0027.0226-.0027.0455 0 .0681 1.9951-.2533 3.9141-.9323 5.6298-1.9918-.6368 1.0295-1.6229 1.7894-2.774 2.1375-.9742.2813-1.978.4444-2.9904.4858-.1024.7772.0677 1.5661.4808 2.2298 2.3365-.1117 4.6202-1.2096 6.5625-2.0744 1.3478-1.8418 2.2205-3.9937 2.5395-6.2616.3189-2.2678.074-4.5802-.7126-6.7285-3.274-.4858-6.9327-.1846-9.7404 1.6031z" fill="url(#v)"/><path d="m53.4112 78.6267c-.0661.2136-.1112.4332-.1346.6558 1.0123-.0414 2.0162-.2045 2.9904-.4858 1.1511-.3481 2.1372-1.108 2.774-2.1375-1.7176 1.051-3.6365 1.7216-5.6298 1.9675z" fill="#1d2243"/><path d="m28.8535 81.0213c-1.7273.0382-3.4547-.0723-5.1634-.3304 1.5958.7713 3.3151 1.2484 5.0769 1.4088.0748-.3411.1071-.6904.0962-1.0396z" fill="#1d2243"/><path d="m17.9497 79.1849c.145 1.1554.4375 2.287.8702 3.3665.0913.0486.1875.102.2836.1458 2.7404 1.3699 6.4616 1.3359 9.3895.7335.0673-.4372.1923-.8841.274-1.3359-1.7579-.1585-3.4739-.6323-5.0673-1.3991 1.7087.2581 3.4361.3686 5.1635.3303v.0292c.6305.0011 1.2582-.0856 1.8653-.2575.5394-1.0854.6709-2.3315.3702-3.5074-1.9993-.1374-3.9896-.3872-5.9615-.7482-.178-.8519-.1533-1.7343.0721-2.5747 1.7678-1.0334 3.7359-1.6681 5.7692-1.8606.1962-.4377.292-.9144.2803-1.3947-.0116-.4803-.1305-.9517-.3476-1.3792-2.931-.8019-6.008-.8935-8.9807-.2672-.2068-.1166-.4087-.2429-.6106-.3692-1.9027 2.102-3.083 4.7685-3.3654 7.6027-.1074.9588-.109 1.9266-.0048 2.8857z" fill="url(#w)"/><path d="m11.5458 72.0826c-1.54893-3.0237-2.49782-6.3242-2.79324-9.7159-.2961 1.4542-.35296 2.9478-.16827 4.4207.42478 2.833 1.40552 5.5516 2.88461 7.9962 1.7933 3.1383 4.1779 6.0725 7.3462 7.7728-.4315-1.0813-.7223-2.2146-.8654-3.3715-2.7003-1.7754-4.9051-4.2207-6.4039-7.1023z" fill="#cf5b44"/><path d="m8.76217 62.3764c.29542 3.3916 1.24433 6.6922 2.79323 9.7159 1.4975 2.8769 3.6987 5.3186 6.3943 7.0926-.1202-.9573-.1347-1.9251-.0433-2.8856.2824-2.8343 1.4627-5.5007 3.3654-7.6027-2.93-1.9431-5.1885-4.7599-6.4615-8.0594-.2579-.8286-.6441-1.6107-1.1443-2.3172-.5529-.6655-1.4904-1.1076-2.2836-.7773-.4653.2308-.8508.5982-1.1058 1.0542-.74136 1.1493-1.25562 2.4327-1.51443 3.7795z" fill="url(#x)"/><path d="m17.8823 74.8127c.2537-2.2964 1.2607-4.4409 2.8606-6.0919-2.9235-1.7134-5.1413-4.4301-6.25-7.6561-.4471-.0486-.6009.2915-.7307.7287-1.375 4.5713.6201 9.8033 4.1201 13.0193z" fill="url(#y)"/></svg>