<svg width="110" height="161" viewBox="0 0 110 161" fill="none" xmlns="http://www.w3.org/2000/svg">
<path d="M56.5006 139.201C57.189 146.274 55.829 153.203 54.318 160.141C52.7649 160.43 51.2119 160.643 49.642 160.787C50.7222 156.503 51.491 152.144 51.9422 147.745C52.2812 145.672 52.1926 143.55 51.682 141.513C50.9096 139.031 49.088 137.092 47.1655 135.333C47.7842 134.721 48.4886 134.206 49.2559 133.802C49.987 133.388 50.8107 133.171 51.6484 133.171C52.4861 133.171 53.3098 133.388 54.0409 133.802C55.7619 134.874 56.2656 137.143 56.5006 139.201Z" fill="#CF5B44"/>
<path d="M51.6819 141.514C52.1926 143.55 52.2812 145.672 51.9421 147.746C51.4909 152.144 50.7222 156.503 49.6419 160.787C48.3575 160.906 47.1235 160.974 45.7971 161C47.1237 153.76 46.4229 146.288 43.7739 139.431C44.3364 138.623 44.9324 137.841 45.5452 137.101C46.0474 136.467 46.5885 135.865 47.1655 135.299C49.0879 137.093 50.9096 139.031 51.6819 141.514Z" fill="url(#paint0_linear)"/>
<path d="M43.7744 139.43C46.417 146.278 47.1178 153.737 45.7976 160.966C42.1996 161.044 38.6028 160.759 35.0605 160.115C36.4966 152.677 39.4658 145.628 43.7744 139.43Z" fill="url(#paint1_linear)"/>
<path style="mix-blend-mode:screen" d="M46.3015 137.629C42.4235 141.78 39.5775 146.807 37.999 152.294C39.1152 153.056 40.4306 153.464 41.7767 153.464C43.1228 153.464 44.4383 153.056 45.5544 152.294C46.5959 151.495 47.4467 150.469 48.0439 149.291C48.6411 148.114 48.9694 146.816 49.0047 145.493C49.1054 142.832 47.6027 139.916 46.3015 137.629Z" fill="url(#paint2_linear)"/>
<path d="M73.946 93.6059C83.0124 97.9503 88.3264 108.705 85.0188 118.423C83.1424 123.552 79.7915 127.994 75.3983 131.175C69.4799 135.63 62.0505 139.006 54.5454 137.28C53.6374 137.069 52.7474 136.785 51.8843 136.43C54.2899 136.91 56.7681 136.877 59.1604 136.332C61.5527 135.788 63.8065 134.744 65.7778 133.267C71.0246 129.365 74.1726 123.116 75.7929 116.731C76.943 112.242 77.3795 107.302 75.4319 103.128C73.0058 97.9078 67.2553 94.9237 61.5887 94.2945C58.8277 94.0196 56.0433 94.1024 53.303 94.5411C59.6243 91.1573 67.1797 90.3667 73.946 93.6059Z" fill="#CF5B44"/>
<path d="M75.4312 103.111C77.3788 107.311 76.9423 112.251 75.7922 116.714C74.1636 123.099 71.0239 129.348 65.7771 133.25C63.8058 134.727 61.552 135.771 59.1597 136.316C56.7674 136.86 54.2893 136.893 51.8836 136.413C49.2654 135.338 46.8997 133.718 44.94 131.657C42.9804 129.596 41.4705 127.141 40.5086 124.451C39.4974 121.413 39.1077 118.199 39.3632 115.004C39.6186 111.808 40.5139 108.699 41.9945 105.866C44.5439 101.017 48.4832 97.0629 53.2939 94.5245C56.0343 94.0859 58.8186 94.003 61.5797 94.278C67.2546 94.9071 73.0051 97.8913 75.4312 103.111ZM58.9437 111.146C59.5732 109.864 59.8874 108.447 59.8596 107.015C59.8319 105.584 59.4629 104.18 58.7842 102.924C58.3397 102.144 57.7031 101.495 56.9364 101.039C56.1698 100.583 55.2994 100.336 54.4105 100.323C54.7347 98.3276 55.3604 96.3948 56.2657 94.5925C54.6564 96.276 53.4251 98.2915 52.6559 100.501C49.5834 101.215 46.8635 103.902 45.4951 106.453C45.1762 107.022 44.9227 107.627 44.7396 108.255C44.4524 109.202 44.3631 110.199 44.4773 111.182C44.5914 112.166 44.9066 113.115 45.4028 113.968C45.7906 114.59 46.3065 115.119 46.9151 115.519C47.5236 115.92 48.2105 116.182 48.9286 116.289C49.2056 116.332 49.4827 116.357 49.7681 116.383C48.785 122.746 50.258 129.249 53.8816 134.543C51.1113 128.893 50.2925 122.466 51.5562 116.289C53.0884 116.044 54.547 115.455 55.8252 114.565C57.1035 113.675 58.169 112.507 58.9437 111.146Z" fill="url(#paint3_linear)"/>
<path d="M58.7846 102.924C59.4633 104.18 59.8323 105.583 59.86 107.015C59.8878 108.446 59.5736 109.863 58.9441 111.145C58.1665 112.496 57.1015 113.655 55.8266 114.538C54.5517 115.42 53.0988 116.004 51.5734 116.246C50.3097 122.423 51.1285 128.85 53.8988 134.5C50.2752 129.206 48.8022 122.704 49.7853 116.34C49.5083 116.34 49.2312 116.289 48.9458 116.246C48.2277 116.14 47.5408 115.877 46.9323 115.476C46.3237 115.076 45.8078 114.547 45.42 113.925C44.9238 113.072 44.6086 112.123 44.4945 111.14C44.3803 110.156 44.4696 109.159 44.7568 108.212C44.9399 107.584 45.1934 106.98 45.5123 106.41C46.8807 103.91 49.6006 101.19 52.6731 100.459C53.4423 98.2488 54.6736 96.2332 56.2829 94.5498C55.3677 96.3644 54.7362 98.3118 54.4109 100.323C55.2999 100.336 56.1702 100.583 56.9368 101.039C57.7035 101.495 58.3401 102.144 58.7846 102.924ZM58.7846 109.368C59.0174 108.557 59.1194 107.713 59.0868 106.869C59.0868 106.784 59.0868 106.699 59.0868 106.614C59.0868 106.529 59.0868 106.435 59.0868 106.35C59.0913 106.277 59.0913 106.203 59.0868 106.129C59.0868 105.942 59.0364 105.764 58.9945 105.585C59.0016 105.546 59.0016 105.506 58.9945 105.466C58.9945 105.364 58.9945 105.254 58.9273 105.152C58.8601 105.05 58.8014 104.718 58.7258 104.505C58.6503 104.293 58.5747 104.131 58.4908 103.953C58.2636 103.483 57.96 103.054 57.5925 102.686C57.5238 102.614 57.4509 102.546 57.3743 102.482C56.5997 101.836 55.614 101.509 54.6123 101.564C51.523 101.666 48.568 104.446 47.1409 107.039C46.8725 107.527 46.6558 108.043 46.4945 108.578C45.739 111.264 46.6792 114.529 49.7013 115.048C50.9506 115.225 52.2235 115.093 53.4119 114.665C53.8458 114.512 54.2693 114.33 54.6795 114.121C55.0302 113.941 55.3694 113.74 55.6953 113.517C56.7981 112.751 57.7 111.724 58.3229 110.525C58.4072 110.366 58.4802 110.201 58.5411 110.032C58.6394 109.817 58.7208 109.596 58.7846 109.368Z" fill="#CF5B44"/>
<path d="M59.0863 106.869C59.1189 107.713 59.0169 108.557 58.7841 109.368C58.7219 109.607 58.6405 109.84 58.5406 110.066C58.4796 110.235 58.4067 110.4 58.3223 110.559C57.6737 111.754 56.7456 112.77 55.6192 113.517C55.2933 113.74 54.9541 113.941 54.6034 114.121C54.1932 114.33 53.7697 114.512 53.3358 114.665C52.3117 115.024 51.2275 115.175 50.1458 115.107C48.6599 113.849 48.2737 111.502 48.8362 109.487C49.0006 108.953 49.2201 108.437 49.491 107.949C50.9097 105.398 53.8731 102.575 56.9624 102.473H57.2982L57.5164 102.677C57.8839 103.046 58.1875 103.474 58.4147 103.944C58.4986 104.123 58.5742 104.31 58.6497 104.497C58.7253 104.684 58.7925 104.922 58.8512 105.143C58.91 105.364 58.9016 105.356 58.9184 105.458C58.9255 105.497 58.9255 105.537 58.9184 105.577C58.9184 105.755 58.9855 105.934 59.0107 106.121C59.0152 106.194 59.0152 106.268 59.0107 106.342C59.0107 106.427 59.0107 106.52 59.0107 106.605C59.0107 106.69 59.0863 106.784 59.0863 106.869Z" fill="#C9FFEF"/>
<path d="M57.2985 102.482H56.9627C53.8734 102.584 50.91 105.364 49.4913 107.957C49.2204 108.446 49.001 108.961 48.8365 109.496C48.274 111.511 48.6602 113.858 50.1461 115.116C51.2278 115.183 52.3121 115.033 53.3361 114.674C52.1478 115.102 50.8748 115.233 49.6256 115.056C46.6035 114.563 45.6632 111.273 46.4188 108.586C46.5688 108.05 46.7742 107.532 47.0316 107.039C48.4587 104.446 51.4137 101.666 54.503 101.564C55.5161 101.5 56.5153 101.828 57.2985 102.482Z" fill="#44CFB8"/>
<path d="M57.7276 108.909C57.4758 109.409 57.1289 109.854 56.7067 110.217C56.2845 110.58 55.7955 110.855 55.2679 111.026C54.7376 111.193 54.1751 111.226 53.6294 111.122C53.0836 111.018 52.5712 110.781 52.1366 110.431C51.713 110.071 51.4018 109.594 51.2409 109.058C51.0799 108.523 51.0761 107.951 51.23 107.413C50.7682 108.45 50.147 109.734 50.3317 110.814C50.4067 111.378 50.6205 111.915 50.9535 112.374C51.2864 112.833 51.7279 113.2 52.2373 113.441C52.8779 113.665 53.5673 113.704 54.2285 113.554C54.8898 113.404 55.4967 113.07 55.9815 112.591C56.9553 111.707 57.2407 110.176 57.7276 108.909Z" fill="#A4EDE0"/>
<path d="M55.1994 108.468C56.19 108.187 57.3653 107.507 57.2981 106.308C57.2138 105.804 56.9362 105.354 56.5258 105.056C56.1154 104.759 55.6055 104.637 55.1071 104.718C52.8489 105.041 52.2612 109.292 55.1994 108.468Z" fill="#EBFFFC"/>
<path style="mix-blend-mode:screen" d="M67.5494 101.547C67.9113 102.443 68.0662 103.412 68.0022 104.379C67.9382 105.345 67.657 106.284 67.18 107.124C66.2117 108.823 64.9018 110.297 63.3352 111.451C59.7651 114.315 55.671 116.436 51.2885 117.692C51.3641 117.215 51.4396 116.739 51.5404 116.272C53.0658 116.029 54.5187 115.445 55.7936 114.563C57.0685 113.68 58.1334 112.522 58.9111 111.171C59.5405 109.889 59.8548 108.472 59.827 107.04C59.7992 105.609 59.4303 104.205 58.7516 102.949C58.3132 102.17 57.6832 101.518 56.9227 101.058C56.1622 100.597 55.2971 100.344 54.4114 100.322C54.6692 98.8237 55.0887 97.3583 55.6623 95.9524C58.7039 95.9995 61.6854 96.8179 64.3342 98.3329C65.6952 99.0599 66.8138 100.178 67.5494 101.547ZM45.4709 118.848C46.8426 118.704 48.2049 118.48 49.5508 118.176C49.6012 117.581 49.6683 116.986 49.7607 116.399C49.4836 116.399 49.2066 116.348 48.9212 116.306C48.2031 116.199 47.5162 115.936 46.9077 115.536C46.2991 115.135 45.7832 114.606 45.3953 113.985C44.8992 113.131 44.584 112.183 44.4698 111.199C44.3557 110.215 44.445 109.218 44.7321 108.272C44.9153 107.644 45.1688 107.039 45.4877 106.469C46.856 103.97 49.576 101.249 52.6485 100.518C53.2194 98.8758 54.047 97.3372 55.0998 95.9609C53.1663 95.9538 51.2481 96.3083 49.4417 97.0066C46.348 99.3707 43.8058 102.395 41.9954 105.866C40.2177 109.315 39.2821 113.146 39.2671 117.037C39.4466 117.293 39.6551 117.527 39.8883 117.734C41.3406 119.026 43.5233 119.026 45.4709 118.848Z" fill="url(#paint4_linear)"/>
<path d="M73.837 152.073C74.7796 155.008 76.0173 157.837 77.5308 160.515C76.0029 160.413 74.4834 160.26 72.9556 160.073C73.0097 157.385 73.3047 154.707 73.837 152.073Z" fill="#94122E"/>
<path d="M89.5947 150.772C90.7448 153.756 91.7857 156.774 92.6756 159.835C87.6833 160.67 82.6105 160.898 77.5648 160.515C76.0514 157.837 74.8136 155.008 73.8711 152.073L73.9466 151.699C74.5763 148.715 75.3486 144.897 77.1787 142.406C77.5906 141.789 78.1458 141.283 78.7956 140.933C79.4454 140.583 80.1701 140.4 80.906 140.4C85.5987 140.714 88.1675 146.997 89.5947 150.772Z" fill="url(#paint5_linear)"/>
<path d="M94.8316 159.427C94.1097 159.58 93.3961 159.716 92.6742 159.835C91.7843 156.774 90.7433 153.756 89.5932 150.772C88.1493 146.997 85.5973 140.714 80.871 140.4C80.135 140.4 79.4104 140.583 78.7606 140.933C78.1107 141.283 77.5556 141.789 77.1437 142.406C75.3136 144.914 74.5412 148.715 73.9116 151.699L73.8361 152.073C72.2244 147.088 71.4691 141.86 71.603 136.617C72.0899 133.649 72.7196 130.665 73.4751 127.792C73.61 127.05 73.9332 126.356 74.4131 125.779C74.893 125.203 75.5129 124.762 76.2118 124.502C76.9577 124.317 77.7334 124.292 78.4894 124.428C79.2453 124.564 79.965 124.859 80.6023 125.292C81.8766 126.156 82.9929 127.238 83.9015 128.489C90.6846 137.025 94.3363 148.485 94.8316 159.427Z" fill="url(#paint6_linear)"/>
<path style="mix-blend-mode:screen" d="M75.256 142.78C75.8856 145.56 77.0357 148.519 79.4535 149.718C81.8712 150.916 84.9857 149.794 86.6562 147.541C89.6532 143.503 88.4779 137.943 86.3876 133.768C84.8094 130.631 80.1922 123.336 76.0871 125.828C74.7187 126.678 74.3494 128.557 74.2402 130.231C73.9685 134.442 74.3107 138.671 75.256 142.78Z" fill="url(#paint7_linear)"/>
<path d="M84.4476 44.2102C83.1716 55.1095 78.4033 65.3457 73.4755 75.1229C71.0242 76.4576 68.3883 78.022 65.9202 79.3738C64.6002 84.5506 64.3827 89.9527 65.2822 95.2212C54.1655 95.9492 43.0056 94.8584 32.2316 91.9905C31.0247 86.9644 30.2301 81.8459 29.8558 76.6872C27.6312 74.9868 22.8377 70.4638 22.8377 70.4638C22.8377 70.4638 21.6456 61.2139 21.461 58.0172C21.0017 51.3099 21.6168 44.5716 23.2826 38.0634C26.2124 27.113 33.0543 16.9448 42.977 11.7077C52.8997 6.47054 65.9789 6.94664 74.5585 14.2582C82.861 21.2552 85.732 33.2768 84.4476 44.2102Z" fill="url(#paint8_radial)"/>
<path d="M105.217 44.7544C103.077 51.7514 99.1647 58.3573 95.4877 64.7167C94.4468 66.5276 93.4058 68.3725 92.4152 70.2429C91.9509 70.1096 91.5342 69.844 91.2147 69.4777C89.6197 67.7774 89.3427 65.4393 89.4686 62.9908C89.4686 62.8973 89.4686 62.8038 89.4686 62.7018C91.2315 60.3808 92.9861 58.0428 94.6314 55.6367C97.5862 51.4785 99.9592 46.9266 101.683 42.1103C102.288 42.0639 102.893 42.184 103.435 42.458C103.978 42.7319 104.437 43.1494 104.764 43.6662C104.965 44.0054 105.118 44.3718 105.217 44.7544Z" fill="url(#paint9_linear)"/>
<path d="M105.887 46.3957C105.988 45.2942 105.914 44.1834 105.668 43.1055C105.533 42.5623 105.3 42.0493 104.98 41.5921C104.334 40.7374 103.38 40.1753 102.327 40.0278C101.453 39.8752 100.554 39.9513 99.7164 40.2489C97.8695 41.0173 96.2645 42.2813 95.0741 43.9046C90.4386 49.5971 87.9302 56.7607 87.9888 64.139C87.9888 64.3175 87.9888 64.4961 87.9888 64.6661C88.0811 67.2167 88.652 69.6907 90.5828 71.4166C90.855 71.6629 91.1602 71.869 91.4895 72.0287C93.244 72.8789 94.8474 71.5016 96.2829 69.8607C98.5359 67.3338 100.434 64.5044 101.924 61.4524C104.24 56.7578 105.588 51.6349 105.887 46.3957ZM96.0227 68.2879C94.8642 69.5377 93.6553 70.5749 92.4129 70.2433C91.9486 70.11 91.5319 69.8444 91.2124 69.4782C89.6174 67.7778 89.3404 65.4398 89.4663 62.9913C89.4663 62.8977 89.4663 62.8042 89.4663 62.7022C89.8807 56.3198 92.3287 50.2458 96.4424 45.3925C97.495 44.0184 98.8923 42.9555 100.489 42.3148C100.874 42.1879 101.276 42.1192 101.681 42.1108C102.285 42.0643 102.891 42.1845 103.433 42.4584C103.976 42.7323 104.435 43.1498 104.762 43.6666C104.957 44.0067 105.104 44.3731 105.198 44.7548C105.395 45.8009 105.414 46.8732 105.257 47.926C104.389 55.5333 101.155 62.6641 96.0227 68.2879Z" fill="#94122E"/>
<path d="M105.277 47.9253C104.408 55.5326 101.175 62.6633 96.0422 68.2872C94.8837 69.5369 93.6749 70.5742 92.4324 70.2426C93.423 68.3722 94.464 66.5273 95.505 64.7164C99.1819 58.323 103.06 51.7511 105.235 44.7541C105.425 45.8012 105.439 46.8734 105.277 47.9253ZM96.462 45.3747C92.3482 50.228 89.9003 56.302 89.4858 62.6845C91.2488 60.3635 93.0033 58.0255 94.6487 55.6194C97.6034 51.4612 99.9764 46.9093 101.7 42.093C101.295 42.1014 100.894 42.1702 100.508 42.2971C98.9099 42.9425 97.5123 44.0114 96.462 45.3917V45.3747Z" fill="url(#paint10_linear)"/>
<path d="M30.2419 91.4124C29.5619 91.2169 28.8819 91.0044 28.2103 90.7833C27.0266 87.034 25.8429 83.2677 24.6509 79.5184C27.0135 83.2221 28.8928 87.22 30.2419 91.4124ZM88.9388 6.88721C93.6277 9.65019 97.4606 13.6857 100.005 18.5381C102.549 23.3906 103.702 28.8667 103.336 34.3481C103.17 36.2681 102.833 38.169 102.329 40.0274C103.373 40.1811 104.316 40.7426 104.956 41.5917C105.276 42.0488 105.509 42.5619 105.645 43.105C106.299 40.6706 106.682 38.1696 106.786 35.6489C107.273 23.6698 99.7262 11.8098 88.9388 6.88721ZM87.9985 64.6997C85.5892 67.8879 83.2135 71.0931 81.1147 74.5023C77.4462 80.4536 74.6339 87.255 74.4912 94.2095C78.3449 93.6121 82.1601 92.7831 85.9166 91.727C85.9166 84.9255 88.3679 78.3111 91.4992 72.0623C91.17 71.9025 90.8647 71.6965 90.5925 71.4501C88.6617 69.7158 88.0909 67.2417 87.9985 64.6657V64.6997Z" fill="#CF5B44"/>
<path d="M109.153 27.4956C107.795 20.6735 104.325 14.4674 99.2473 9.7778C94.1432 5.20381 87.4945 2.63626 80.7786 1.37799C68.0184 -1.01103 53.7472 -0.755972 42.1287 5.87546C32.7626 11.2972 25.7666 20.1043 22.5434 30.5308C19.9242 39.1516 19.6808 48.9373 20.1929 58.0767C20.2684 59.471 20.3608 60.8568 20.4699 62.2171C21.0772 69.6822 22.6405 77.0356 25.1207 84.0923C25.4565 85.0531 26.7996 90.3327 27.6895 90.6133L28.2352 90.7833C27.0515 87.034 25.8678 83.2677 24.6757 79.5184C27.039 83.2248 28.9183 87.2256 30.2667 91.4209C30.9215 91.608 31.5679 91.7865 32.2311 91.9565C31.0243 86.9304 30.2296 81.8119 29.8554 76.6532C27.6307 74.9529 22.8373 70.4299 22.8373 70.4299C22.8373 70.4299 21.6452 61.2139 21.4605 58.0172C21.0012 51.31 21.6164 44.5717 23.2822 38.0634C26.212 27.113 33.0538 16.9448 42.9765 11.7077C52.8993 6.47059 65.9785 6.94669 74.558 14.2583C82.8605 21.2553 85.7316 33.2769 84.4472 44.2102C83.1628 55.1436 78.4029 65.3033 73.4751 75.0804C71.0238 76.4152 68.3878 77.9795 65.9197 79.3313C64.5937 84.5217 64.3762 89.9389 65.2817 95.2212C68.371 95.0342 71.4491 94.6998 74.516 94.218C74.6588 87.2465 77.471 80.4791 81.1396 74.5108C83.2383 71.11 85.6141 67.8963 88.0234 64.7082C88.0234 64.5381 88.0234 64.3596 88.0234 64.181C87.9648 56.8028 90.4732 49.6391 95.1087 43.9467C96.2991 42.3233 97.9041 41.0594 99.751 40.2909C100.589 39.9933 101.487 39.9172 102.362 40.0698C102.866 38.2114 103.203 36.3106 103.369 34.3906C103.741 28.8988 102.585 23.4114 100.035 18.5503C97.4844 13.6892 93.6403 9.64891 88.9384 6.88718C99.7258 11.8097 107.273 23.6698 106.811 35.6489C106.706 38.1696 106.323 40.6705 105.669 43.105C105.915 44.1829 105.989 45.2937 105.888 46.3952C105.592 51.6338 104.247 56.7566 101.934 61.452C100.444 64.5039 98.5453 67.3333 96.2923 69.8603C94.8232 71.5011 93.2534 72.8614 91.4989 72.0282C88.3676 78.2771 85.9499 84.866 85.9163 91.693C87.5952 91.2282 89.2546 90.7124 90.8944 90.1456C92.8924 80.139 98.391 71.2036 102.941 61.9536C105.236 57.5057 107.073 52.8306 108.423 48.002C110.24 41.3175 110.491 34.2954 109.153 27.4956Z" fill="url(#paint11_linear)"/>
<path style="mix-blend-mode:screen" d="M83.517 3.01047C85.1613 6.39221 85.6712 10.2249 84.9693 13.9268C84.266 17.6164 82.8634 21.1329 80.8391 24.2821C76.1547 31.9337 69.2122 37.834 61.5309 42.0169C53.8496 46.1998 45.354 48.6993 36.8164 50.3147C34.3547 50.8877 31.8206 51.0741 29.303 50.8673C28.0433 50.7535 26.8188 50.3857 25.7015 49.7856C24.5842 49.1856 23.5967 48.3653 22.797 47.373C18.8346 41.9659 22.1086 32.5713 24.4759 27.0962C27.4448 20.1086 32.1399 14.0127 38.1092 9.39535C50.7351 -0.254237 68.7169 -1.47 83.517 3.01047Z" fill="url(#paint12_linear)"/>
<path d="M67.5144 59.8197C67.3717 60.3553 67.2374 60.8909 67.1114 61.418C63.3785 61.061 59.6344 60.8172 55.8791 60.6869C53.7143 52.6569 53.8775 44.1656 56.3492 36.2271C56.9059 34.2289 57.813 32.3483 59.0272 30.6754C60.2734 29.001 62.1236 27.8945 64.1732 27.5977C65.453 27.5355 66.7268 27.8107 67.8701 28.3963C69.0135 28.982 69.9872 29.8581 70.696 30.939C72.0856 33.1329 72.7528 35.7165 72.6017 38.3186C72.4711 40.6581 72.0997 42.9775 71.4935 45.239C70.696 48.8608 68.2196 55.0247 67.5144 59.8197ZM38.1324 41.2092C38.2667 40.0189 38.3926 38.8287 38.5269 37.6469C38.7117 36.5197 38.6975 35.3683 38.4849 34.2462C38.371 33.6823 38.1113 33.1593 37.7322 32.7305C37.3531 32.3018 36.8683 31.9828 36.3275 31.8061C35.9171 31.7272 35.4951 31.7348 35.0878 31.8284C34.6805 31.922 34.2966 32.0997 33.9601 32.3503C33.2909 32.8528 32.7212 33.4787 32.2811 34.1952C30.8104 36.4745 29.7317 38.9898 29.0911 41.6343C27.4082 48.3069 27.7534 55.3385 30.0817 61.8091C32.4742 61.5286 34.8751 61.2905 37.2761 61.112C37.2761 60.7719 37.2257 60.4403 37.2089 60.1087C37.1669 54.5486 37.4776 47.271 38.1156 41.2092H38.1324Z" fill="#44CFB8"/>
<path d="M37.1505 47.6107C36.9775 47.0397 36.6641 46.5225 36.2397 46.1076C35.8154 45.6927 35.294 45.3938 34.7244 45.2387C34.1539 45.1675 33.5748 45.2457 33.0427 45.4661C32.5106 45.6864 32.0433 46.0413 31.6855 46.497C30.9877 47.4237 30.5082 48.4996 30.2835 49.6426C29.4293 53.1084 29.4668 56.7381 30.3927 60.1849C30.5349 60.7698 30.8769 61.2848 31.3581 61.6387C33.3141 61.4262 35.2785 61.2306 37.2345 61.0861C37.2345 60.746 37.1841 60.4145 37.1673 60.0829C37.1673 56.8777 37.2681 53.0859 37.4779 49.2856C37.436 48.7159 37.3261 48.1535 37.1505 47.6107Z" fill="#C9FFEF"/>
<path d="M61.5471 43.0027C60.8547 43.0045 60.17 43.1495 59.5348 43.4287C58.8997 43.708 58.3275 44.1155 57.8534 44.6265C55.6623 46.854 55.4272 49.4981 55.4272 52.4907C55.4464 55.2603 55.793 58.0175 56.4598 60.7035C59.3588 60.8112 62.2523 60.9926 65.1401 61.2476C65.2576 59.3942 65.5515 55.1433 65.585 54.6672C65.7613 52.2782 66.6344 50.0677 66.1391 47.6107C65.669 45.3067 63.8641 43.1047 61.5471 43.0027Z" fill="#C9FFEF"/>
<path style="mix-blend-mode:screen" d="M28.8828 54.3019C28.9845 54.8561 29.1927 55.3848 29.4956 55.8577C29.6531 56.0917 29.8687 56.2794 30.1208 56.4018C30.3729 56.5242 30.6524 56.577 30.9312 56.5549C31.6111 56.4528 32.0561 55.7897 32.3835 55.1776C34.6165 50.9266 35.1538 46.0296 35.2629 41.2346C35.3208 40.5196 35.2526 39.7999 35.0614 39.1091C34.9854 38.7653 34.8171 38.4494 34.575 38.1963C34.3329 37.9432 34.0266 37.7627 33.6897 37.6748C33.3528 37.5869 32.9984 37.5949 32.6657 37.6979C32.333 37.801 32.0349 37.9951 31.8042 38.2589C27.8586 41.8722 27.7663 49.4728 28.8828 54.3019Z" fill="url(#paint13_linear)"/>
<path style="mix-blend-mode:screen" d="M54.8555 51.1736C54.911 52.1914 55.18 53.1855 55.6446 54.0897C55.8855 54.5382 56.239 54.9144 56.6694 55.1801C57.0998 55.4458 57.5919 55.5917 58.0959 55.6031C59.649 55.5265 60.6144 53.9027 61.1936 52.4404C63.5022 46.8972 65.9871 40.1637 64.4928 34.1104C64.3724 33.5043 64.0975 32.9406 63.6955 32.4753C63.2934 32.0099 62.7782 31.6592 62.201 31.4578C61.7467 31.3548 61.276 31.3508 60.8201 31.446C60.3642 31.5413 59.9335 31.7337 59.5566 32.0105C58.808 32.5691 58.1748 33.271 57.693 34.0764C54.6792 38.7439 54.2595 45.7324 54.8555 51.1736Z" fill="url(#paint14_linear)"/>
<path d="M57.1065 65.6094C54.2312 67.4055 50.9146 68.3454 47.5364 68.3215C47.4189 68.687 47.1166 69.2567 46.9907 69.6137C50.7852 70.3194 54.5881 68.5425 57.1065 65.6094Z" fill="#44CFB8"/>
<path d="M70.0247 101.836L71.074 145.994L68.7654 148.273L66.289 104.692L2.25293 96.9556L5.79556 93.8779L70.0247 101.836Z" fill="#547587"/>
<path d="M66.289 104.692L68.7654 148.273L13.6448 143.673L2.25293 96.9556L66.289 104.692Z" fill="url(#paint15_linear)"/>
<path style="mix-blend-mode:screen" d="M22.4608 99.3957L40.2411 145.892L33.3238 145.314C33.3238 145.314 11.1781 98.0354 11.2453 98.0439L22.4608 99.3957ZM28.0014 100.067L41.5004 145.892L50.4997 146.742L43.4815 101.938L28.0014 100.067Z" fill="url(#paint16_linear)"/>
<path d="M18.4894 119.026C18.6981 120.475 18.4012 121.951 17.6499 123.201C14.9688 122.9 12.271 122.778 9.57406 122.835C9.09086 124.062 8.80735 125.36 8.73458 126.678C11.5692 128.785 14.7619 130.347 18.1536 131.286C18.5782 132.202 18.8087 133.198 18.8304 134.21C18.8521 135.222 18.6645 136.227 18.2795 137.161C17.6835 137.229 17.3309 137.39 16.7349 137.458C16.7397 137.498 16.7397 137.538 16.7349 137.578C13.2512 137.134 9.90036 135.946 6.9045 134.092C8.01644 135.894 9.73841 137.223 11.7483 137.833C13.4494 138.325 15.2022 138.61 16.9699 138.683C17.1487 140.043 16.8517 141.424 16.1305 142.585C12.0505 142.39 8.06299 140.468 4.67146 138.955C2.31802 135.731 0.794084 131.965 0.237158 127.996C-0.319768 124.028 0.107846 119.981 1.48141 116.221C7.19832 115.371 13.5868 115.898 18.4894 119.026Z" fill="url(#paint17_radial)"/>
<path d="M16.743 137.603C16.8584 137.977 16.9372 138.361 16.978 138.751C15.2103 138.678 13.4575 138.393 11.7564 137.9C9.74651 137.291 8.02454 135.961 6.9126 134.16C9.91186 135.999 13.2625 137.173 16.743 137.603Z" fill="#1D2243"/>
<path d="M59.623 141.794C62.6391 141.861 65.6553 141.668 68.639 141.216C65.8526 142.566 62.8504 143.401 59.7741 143.682C59.6435 143.085 59.5871 142.474 59.6062 141.862L59.623 141.794Z" fill="#1D2243"/>
<path d="M78.6635 138.581C78.4103 140.603 77.8995 142.583 77.144 144.473C76.9845 144.558 76.8166 144.651 76.6487 144.728C71.8637 147.125 65.366 147.066 60.2536 146.011C60.136 145.246 59.9178 144.464 59.7751 143.673C62.8446 143.396 65.8409 142.567 68.6232 141.225C65.6395 141.677 62.6233 141.87 59.6072 141.803V141.854C58.5061 141.856 57.4101 141.704 56.3499 141.403C55.4081 139.504 55.1785 137.323 55.7035 135.265C59.1947 135.025 62.67 134.588 66.1132 133.956C66.424 132.465 66.3809 130.92 65.9873 129.45C62.9005 127.641 59.4639 126.53 55.9134 126.194C55.571 125.428 55.4037 124.593 55.424 123.753C55.4444 122.912 55.6518 122.087 56.0309 121.339C61.149 119.936 66.5219 119.775 71.7125 120.871C72.0735 120.667 72.4261 120.446 72.7787 120.225C76.101 123.904 78.162 128.57 78.6551 133.531C78.8426 135.209 78.8454 136.902 78.6635 138.581Z" fill="url(#paint18_radial)"/>
<path d="M89.8454 126.151C92.5501 120.859 94.207 115.083 94.7228 109.147C95.2398 111.692 95.3391 114.306 95.0166 116.884C94.2749 121.842 92.5624 126.6 89.9797 130.878C86.8484 136.37 82.6846 141.505 77.1523 144.481C77.9057 142.589 78.4136 140.605 78.6634 138.581C83.3785 135.474 87.2284 131.194 89.8454 126.151Z" fill="#CF5B44"/>
<path d="M94.7053 109.164C94.1894 115.1 92.5325 120.876 89.8278 126.168C87.2132 131.203 83.3694 135.476 78.6627 138.581C78.8725 136.905 78.8978 135.212 78.7382 133.531C78.2451 128.57 76.1841 123.904 72.8618 120.225C77.978 116.825 81.9216 111.895 84.1445 106.121C84.5947 104.671 85.2691 103.302 86.1425 102.065C87.1079 100.901 88.7449 100.127 90.13 100.705C90.9425 101.109 91.6155 101.752 92.0609 102.55C93.3554 104.561 94.2533 106.808 94.7053 109.164Z" fill="url(#paint19_linear)"/>
<path style="mix-blend-mode:screen" d="M78.7806 130.929C78.3377 126.91 76.5793 123.157 73.7856 120.268C78.8904 117.269 82.763 112.515 84.699 106.869C85.4797 106.784 85.7483 107.379 85.975 108.144C88.3759 116.144 84.892 125.301 78.7806 130.929Z" fill="url(#paint20_linear)"/>
<defs>
<linearGradient id="paint0_linear" x1="51.1278" y1="161.91" x2="44.9104" y2="134.695" gradientUnits="userSpaceOnUse">
<stop stop-color="#FBA746"/>
<stop offset="1" stop-color="#DE731F"/>
</linearGradient>
<linearGradient id="paint1_linear" x1="38.5024" y1="141.632" x2="42.2539" y2="163.883" gradientUnits="userSpaceOnUse">
<stop stop-color="#FF8759"/>
<stop offset="1" stop-color="#AB1535"/>
</linearGradient>
<linearGradient id="paint2_linear" x1="43.7915" y1="136.047" x2="43.249" y2="158.534" gradientUnits="userSpaceOnUse">
<stop stop-color="#BCBD99"/>
<stop offset="0.16" stop-color="#9C9D7F"/>
<stop offset="0.74" stop-color="#2C2D24"/>
<stop offset="1"/>
</linearGradient>
<linearGradient id="paint3_linear" x1="3341.84" y1="6818.28" x2="1979.52" y2="5363.48" gradientUnits="userSpaceOnUse">
<stop stop-color="#FBA746"/>
<stop offset="1" stop-color="#DE731F"/>
</linearGradient>
<linearGradient id="paint4_linear" x1="1661.01" y1="2792.09" x2="2022.32" y2="3494.18" gradientUnits="userSpaceOnUse">
<stop stop-color="#BCBD99"/>
<stop offset="0.16" stop-color="#9C9D7F"/>
<stop offset="0.74" stop-color="#2C2D24"/>
<stop offset="1"/>
</linearGradient>
<linearGradient id="paint5_linear" x1="1920.28" y1="3427.46" x2="1948.97" y2="4021.31" gradientUnits="userSpaceOnUse">
<stop stop-color="#FF8759"/>
<stop offset="1" stop-color="#AB1535"/>
</linearGradient>
<linearGradient id="paint6_linear" x1="2405.72" y1="7292.93" x2="2230.71" y2="5007.34" gradientUnits="userSpaceOnUse">
<stop stop-color="#FBA746"/>
<stop offset="1" stop-color="#DE731F"/>
</linearGradient>
<linearGradient id="paint7_linear" x1="1426.54" y1="3798.57" x2="1629.31" y2="4550.77" gradientUnits="userSpaceOnUse">
<stop stop-color="#BCBD99"/>
<stop offset="0.16" stop-color="#9C9D7F"/>
<stop offset="0.74" stop-color="#2C2D24"/>
<stop offset="1"/>
</linearGradient>
<radialGradient id="paint8_radial" cx="0" cy="0" r="1" gradientUnits="userSpaceOnUse" gradientTransform="translate(45.2199 27.4081) rotate(11.4807) scale(54.6441 55.2855)">
<stop stop-color="#3E6785"/>
<stop offset="1" stop-color="#1D2243"/>
</radialGradient>
<linearGradient id="paint9_linear" x1="1326.52" y1="1882.46" x2="827.57" y2="2951.02" gradientUnits="userSpaceOnUse">
<stop stop-color="#FF8759"/>
<stop offset="1" stop-color="#AB1535"/>
</linearGradient>
<linearGradient id="paint10_linear" x1="1309.8" y1="2020.29" x2="787.655" y2="3143.58" gradientUnits="userSpaceOnUse">
<stop stop-color="#FF8759"/>
<stop offset="1" stop-color="#AB1535"/>
</linearGradient>
<linearGradient id="paint11_linear" x1="3990.5" y1="14000" x2="2623.33" y2="3985.62" gradientUnits="userSpaceOnUse">
<stop stop-color="#FBA746"/>
<stop offset="1" stop-color="#DE731F"/>
</linearGradient>
<linearGradient id="paint12_linear" x1="946.809" y1="1410.12" x2="1671.4" y2="5369.38" gradientUnits="userSpaceOnUse">
<stop stop-color="#BCBD99"/>
<stop offset="0.16" stop-color="#9C9D7F"/>
<stop offset="0.74" stop-color="#2C2D24"/>
<stop offset="1"/>
</linearGradient>
<linearGradient id="paint13_linear" x1="-178.923" y1="1877.55" x2="-451.701" y2="1327.66" gradientUnits="userSpaceOnUse">
<stop stop-color="#BCBD99"/>
<stop offset="0.16" stop-color="#9C9D7F"/>
<stop offset="0.74" stop-color="#2C2D24"/>
<stop offset="1"/>
</linearGradient>
<linearGradient id="paint14_linear" x1="138.192" y1="2357.15" x2="114.392" y2="981.513" gradientUnits="userSpaceOnUse">
<stop stop-color="#BCBD99"/>
<stop offset="0.16" stop-color="#9C9D7F"/>
<stop offset="0.74" stop-color="#2C2D24"/>
<stop offset="1"/>
</linearGradient>
<linearGradient id="paint15_linear" x1="33.5322" y1="93.9714" x2="39.0066" y2="143.369" gradientUnits="userSpaceOnUse">
<stop stop-color="#B2DBC4"/>
<stop offset="1" stop-color="#375D75"/>
</linearGradient>
<linearGradient id="paint16_linear" x1="18.2382" y1="80.8702" x2="52.2328" y2="151.152" gradientUnits="userSpaceOnUse">
<stop stop-color="#8DA87E"/>
<stop offset="0.08" stop-color="#79906C"/>
<stop offset="0.23" stop-color="#54644B"/>
<stop offset="0.38" stop-color="#364030"/>
<stop offset="0.54" stop-color="#1E241B"/>
<stop offset="0.69" stop-color="#0D100C"/>
<stop offset="0.84" stop-color="#030403"/>
<stop offset="1"/>
</linearGradient>
<radialGradient id="paint17_radial" cx="0" cy="0" r="1" gradientUnits="userSpaceOnUse" gradientTransform="translate(145.949 3794.92) scale(720.893 1023.14)">
<stop stop-color="#3E6785"/>
<stop offset="1" stop-color="#1D2243"/>
</radialGradient>
<radialGradient id="paint18_radial" cx="0" cy="0" r="1" gradientUnits="userSpaceOnUse" gradientTransform="translate(1851.83 3801.67) scale(1199.4 1362.41)">
<stop stop-color="#3E6785"/>
<stop offset="1" stop-color="#1D2243"/>
</radialGradient>
<linearGradient id="paint19_linear" x1="1967.12" y1="5453.4" x2="2536.58" y2="5453.4" gradientUnits="userSpaceOnUse">
<stop stop-color="#FBA746"/>
<stop offset="1" stop-color="#DE731F"/>
</linearGradient>
<linearGradient id="paint20_linear" x1="1153.14" y1="3430.45" x2="1442.28" y2="3449.76" gradientUnits="userSpaceOnUse">
<stop stop-color="#BCBD99"/>
<stop offset="0.16" stop-color="#9C9D7F"/>
<stop offset="0.74" stop-color="#2C2D24"/>
<stop offset="1"/>
</linearGradient>
</defs>
</svg>
