<svg width="78" height="91" viewBox="0 0 78 91" fill="none" xmlns="http://www.w3.org/2000/svg">
<path d="M60.8395 28.6048C60.8243 28.0513 60.7387 27.5021 60.5848 26.9705C60.4311 26.4327 60.1196 25.9539 59.691 25.5966C59.1707 25.2057 58.5229 25.0261 57.8767 25.0937C57.4072 25.136 56.9511 25.2734 56.536 25.4978C55.5816 26.0929 54.7893 26.9167 54.2301 27.8954C52.254 30.8284 51.1901 34.2852 51.1733 37.8269C51.1993 38.6795 51.3499 39.5236 51.6202 40.3322C51.9822 41.3784 52.6034 42.2808 53.5821 42.2045C54.2301 42.0905 54.8267 41.7767 55.2892 41.3065C55.4322 41.1808 55.5797 41.0551 55.7361 40.9249C57.4156 39.3585 58.7404 37.4478 59.6209 35.3223C60.5014 33.1967 60.917 30.9058 60.8395 28.6048ZM56.4109 39.6543C56.1427 39.9237 55.8612 40.1886 55.5663 40.44C55.1517 40.8502 54.6209 41.1215 54.0468 41.2167C53.1128 41.2886 52.5498 40.3816 52.2325 39.3849C52.0303 38.7217 51.9146 38.035 51.8884 37.342C51.9047 34.207 52.8541 31.1485 54.6144 28.5599C55.1163 27.696 55.8223 26.9697 56.6701 26.4452C57.0222 26.2556 57.4078 26.1366 57.8052 26.095C58.4037 26.0159 59.0091 26.1773 59.4899 26.5439C60.0114 27.0181 60.3408 27.6686 60.415 28.3713C60.457 28.648 60.4839 28.9268 60.4954 29.2064C60.5606 31.1358 60.2319 33.0582 59.5294 34.8551C58.8269 36.6519 57.7656 38.2852 56.4109 39.6543Z" fill="#94122E"/>
<path d="M59.49 26.5305C60.0115 27.0046 60.3408 27.6551 60.415 28.3578C59.8162 32.2774 58.2387 36.0758 56.393 39.6542C56.1249 39.9236 55.8433 40.1885 55.5484 40.44C55.1338 40.8502 54.6031 41.1215 54.029 41.2167C53.095 41.2885 52.5319 40.3816 52.2146 39.3849C54.5563 35.6403 56.7907 31.7521 57.5773 27.4554C57.6622 27.0064 57.7247 26.5574 57.7739 26.1084C58.0735 26.0612 58.3795 26.0742 58.674 26.1467C58.9686 26.2191 59.2459 26.3496 59.49 26.5305Z" fill="url(#paint0_linear)"/>
<path d="M60.4953 29.1839C60.5623 31.1156 60.2344 33.0405 59.5319 34.8398C58.8294 36.6391 57.7671 38.2746 56.4107 39.6453C58.2385 36.0534 59.816 32.2685 60.4327 28.3488C60.4687 28.6258 60.4896 28.9046 60.4953 29.1839ZM54.6142 28.5509C52.8539 31.1395 51.9046 34.198 51.8882 37.333C51.9145 38.026 52.0301 38.7127 52.2323 39.3759C54.574 35.6313 56.8084 31.7431 57.595 27.4464C57.6799 26.9974 57.7424 26.5484 57.7916 26.0994C57.3942 26.1411 57.0087 26.26 56.6565 26.4496C55.8142 26.9746 55.1129 27.6992 54.6142 28.5599V28.5509Z" fill="url(#paint1_linear)"/>
<path d="M39.6836 18.4083C40.5774 19.0369 40.8679 20.2851 40.6891 21.3806C40.5104 22.4761 39.9786 23.4594 39.5272 24.4651C39.1742 25.2553 38.8792 26.077 38.4815 26.8492C38.1113 27.6395 37.5727 28.3385 36.904 28.8966C36.4875 29.2529 35.9665 29.4626 35.4203 29.4937C34.9648 29.4643 34.5277 29.3016 34.1632 29.0255C33.7987 28.7494 33.5226 28.3722 33.3691 27.9403C33.0817 27.0721 33.0232 26.144 33.1993 25.2464C33.2966 24.5359 33.446 23.8335 33.6462 23.1451C33.9441 22.0893 34.3703 21.0745 34.9153 20.1235C35.4605 19.2255 35.9208 18.3275 37.0068 18.0087C37.4543 17.8697 37.9271 17.8335 38.3904 17.9027C38.8537 17.9718 39.2957 18.1446 39.6836 18.4083Z" fill="#C9FFEF"/>
<path d="M23.0997 20.9541C23.083 21.7072 22.9473 22.4528 22.6975 23.1631C22.1791 25.1431 22.112 27.3207 21.0708 29.0942C20.9822 29.3023 20.8428 29.4846 20.6655 29.6243C20.4881 29.764 20.2787 29.8565 20.0564 29.8934C19.9204 29.8868 19.7872 29.8524 19.665 29.7922C19.5428 29.7319 19.4342 29.6472 19.3458 29.5432C19.1744 29.3305 19.0454 29.0865 18.9659 28.8248C18.7568 28.2163 18.632 27.5817 18.595 26.939C18.4565 24.8827 18.6889 22.4717 19.7122 20.6533C19.9298 20.2338 20.2346 19.8663 20.606 19.5757C20.7849 19.43 20.9925 19.3242 21.2152 19.2654C21.4379 19.2065 21.6705 19.196 21.8975 19.2345C22.6215 19.4051 23.0594 20.2043 23.0997 20.9541Z" fill="#C9FFEF"/>
<path d="M31.7514 38.7697C31.6621 38.9269 31.6665 39.0301 31.5771 39.2187C30.3369 38.4809 29.0215 37.8788 27.6535 37.4228C26.2902 36.9997 24.827 37.0328 23.484 37.5171C23.3901 37.3694 23.3277 37.2038 23.3008 37.0307C23.2738 36.8576 23.283 36.6807 23.3276 36.5113C24.0293 36.1838 24.7897 36.0022 25.563 35.9775C26.3364 35.9528 27.1068 36.0855 27.8277 36.3677C29.2656 36.9313 30.5937 37.7443 31.7514 38.7697Z" fill="#44CFB8"/>
<path d="M35.4382 18.2961C36.0288 17.6512 36.8138 17.219 37.6726 17.0659C38.2317 17.0067 38.7968 17.0748 39.326 17.2653C39.8552 17.4557 40.3349 17.7635 40.7293 18.1659C41.5131 18.9844 42.0319 20.0222 42.2175 21.1426C42.3933 22.2589 42.4039 23.3951 42.2488 24.5145C42.0173 26.524 41.5229 28.4941 40.7785 30.3737C40.2065 31.8105 39.6345 33.5795 39.8088 35.1195C37.2389 34.1324 34.561 33.4572 31.8318 33.108C31.9569 28.7754 32.1446 24.3933 33.9947 20.4826C34.3573 19.6814 34.8446 18.9434 35.4382 18.2961ZM37.0112 17.9953C35.9253 18.332 35.465 19.1896 34.9198 20.11C34.3748 21.061 33.9485 22.0759 33.6506 23.1316C33.4505 23.8201 33.3011 24.5224 33.2037 25.2329C33.0277 26.1305 33.0862 27.0586 33.3736 27.9268C33.5271 28.3587 33.8032 28.7359 34.1677 29.012C34.5322 29.2881 34.9692 29.4509 35.4248 29.4803C35.9709 29.4492 36.492 29.2395 36.9084 28.8831C37.5772 28.325 38.1157 27.6261 38.486 26.8357C38.8837 26.0635 39.1786 25.2419 39.5317 24.4516C39.9786 23.4459 40.5238 22.4537 40.6936 21.3671C40.8634 20.2806 40.5863 19.0324 39.6836 18.4083C39.2973 18.143 38.8566 17.9682 38.3941 17.8967C37.9316 17.8252 37.4591 17.8589 37.0112 17.9953Z" fill="#44CFB8"/>
<path d="M23.0997 20.954C23.0595 20.2042 22.6215 19.4051 21.8976 19.2344C21.6687 19.1915 21.4333 19.1985 21.2073 19.255C20.9814 19.3116 20.7702 19.4164 20.5882 19.5622C20.2167 19.8528 19.9119 20.2203 19.6944 20.6398C18.671 22.4581 18.4386 24.8692 18.5772 26.9255C18.6129 27.5728 18.7377 28.2119 18.9481 28.8247C19.0276 29.0865 19.1565 29.3304 19.3279 29.5431C19.4163 29.6471 19.5249 29.7319 19.6471 29.7921C19.7693 29.8524 19.9025 29.8868 20.0385 29.8933C20.2608 29.8565 20.4703 29.7639 20.6476 29.6243C20.8249 29.4846 20.9643 29.3023 21.0529 29.0941C22.0942 27.3206 22.1612 25.1565 22.6796 23.163C22.9355 22.4538 23.0773 21.7081 23.0997 20.954ZM23.1578 19.2793C23.5475 19.6378 23.8546 20.0775 24.0576 20.5676C24.2606 21.0577 24.3546 21.5865 24.3331 22.1169C24.2817 23.1802 24.1123 24.2343 23.8281 25.2598C23.2933 27.83 23.095 30.4593 23.2382 33.0811C22.5411 33.1664 21.8484 33.2787 21.1557 33.4044C20.2709 33.5402 19.4092 33.7986 18.595 34.1721C18.1989 31.799 18.0194 29.3944 18.0588 26.9884C18.0783 24.6364 18.705 22.3298 19.8776 20.294C20.2843 19.6251 20.8429 18.9471 21.6071 18.8304C21.8824 18.793 22.1625 18.8136 22.4294 18.8909C22.6964 18.9682 22.9445 19.1005 23.1578 19.2793Z" fill="#44CFB8"/>
<path d="M45.3012 11.8173C49.4126 15.1308 51.084 19.899 50.5522 25.1251C50.0377 29.5755 48.7696 33.9047 46.8028 37.9257C46.2576 39.0751 45.7213 40.2334 45.261 41.4188C45.0331 42.0069 44.4298 43.2775 43.9203 44.5347C42.2861 45.1133 40.6057 45.5504 38.8973 45.8412C38.7186 48.2478 38.0482 50.7262 37.5209 53.0968C32.1613 52.537 26.7563 52.5791 21.4061 53.2225C20.5793 50.5286 20.3782 48.8853 20.1414 46.0163C19.3538 46.0273 18.5741 45.8568 17.8623 45.518C16.0032 39.3579 15.1809 31.9856 16.392 25.4574C16.6181 24.2082 16.9256 22.9754 17.3126 21.7667C19.699 14.4842 24.9767 8.45886 33.0699 7.88416C37.4899 7.63798 41.8449 9.03839 45.3012 11.8173ZM42.2669 24.5145C42.4219 23.3952 42.4114 22.2589 42.2356 21.1427C42.05 20.0222 41.5312 18.9845 40.7474 18.1659C40.3534 17.7628 39.8739 17.4541 39.3446 17.2629C38.8154 17.0716 38.2501 17.0028 37.6907 17.0614C36.8319 17.2145 36.0469 17.6467 35.4563 18.2916C34.869 18.9402 34.3878 19.6782 34.0307 20.4782C32.1761 24.3933 31.975 28.7754 31.8499 33.1081C34.5791 33.4572 37.257 34.1324 39.8268 35.1195C39.6526 33.5795 40.2246 31.8105 40.7966 30.3738C41.541 28.4941 42.0354 26.5241 42.2669 24.5145ZM31.5773 39.1963C31.6667 39.0302 31.6622 38.9269 31.7516 38.7473C30.5959 37.7123 29.2677 36.89 27.8279 36.3183C27.1069 36.0362 26.3365 35.9035 25.5632 35.9282C24.7898 35.9528 24.0294 36.1344 23.3277 36.462C23.2831 36.6314 23.274 36.8082 23.3009 36.9813C23.3278 37.1544 23.3902 37.3201 23.4841 37.4677C24.8271 36.9834 26.2903 36.9503 27.6536 37.3734C29.0227 37.838 30.3382 38.4492 31.5773 39.1963ZM23.8282 25.2509C24.1124 24.2254 24.2818 23.1712 24.3332 22.108C24.3547 21.5775 24.2607 21.0488 24.0577 20.5587C23.8547 20.0685 23.5476 19.6289 23.1579 19.2704C22.9424 19.0891 22.6914 18.9555 22.4212 18.8781C22.1509 18.8008 21.8675 18.7815 21.5893 18.8214C20.8251 18.9561 20.2486 19.6161 19.8598 20.2851C18.6872 22.3208 18.0605 24.6275 18.041 26.9794C18.0017 29.3854 18.1812 31.79 18.5773 34.1632C19.3919 33.7927 20.2536 33.5373 21.1379 33.4044C21.8306 33.2787 22.5233 33.1664 23.2205 33.0811C23.0823 30.4556 23.2867 27.8232 23.8282 25.2509Z" fill="url(#paint2_radial)"/>
<path d="M56.08 10.9417C51.4234 6.56415 45.1357 3.87025 38.7586 3.88821C32.3815 3.90617 25.982 6.73477 21.9243 11.6736C18.7692 15.5438 17.0442 20.4288 16.1371 25.408C15.729 27.6959 15.4574 30.0063 15.3237 32.3268C14.8768 39.5106 16.5035 46.7482 19.2474 53.4291L19.3278 53.5054C20.0205 53.4021 20.7221 53.3078 21.4193 53.2225C20.5925 50.5286 20.3914 48.8854 20.1546 46.0163C19.367 46.0273 18.5873 45.8568 17.8755 45.518C16.0164 39.3579 15.1941 31.9856 16.4052 25.4574C16.6313 24.2082 16.9388 22.9754 17.3258 21.7667C19.6988 14.4842 24.9765 8.45886 33.0697 7.88417C37.4942 7.63461 41.8546 9.03521 45.3144 11.8173C49.4258 15.1308 51.0972 19.899 50.5654 25.1251C50.0509 29.5755 48.7828 33.9047 46.816 37.9257C46.2708 39.0751 45.7345 40.2334 45.2742 41.4188C45.0463 42.0069 44.443 43.2775 43.9336 44.5347C42.2993 45.1133 40.6189 45.5504 38.9105 45.8412C38.7318 48.2478 38.0614 50.7262 37.5341 53.0968C39.7954 53.3303 42.0477 53.676 44.2732 54.125C44.6098 54.1938 44.945 54.2657 45.2787 54.3405C45.9714 49.689 48.4382 45.4372 50.9542 41.4322L51.6424 40.3322C51.3721 39.5236 51.2215 38.6795 51.1955 37.8269C51.2123 34.2852 52.2762 30.8284 54.2522 27.8954C54.8115 26.9167 55.6038 26.0929 56.5582 25.4978C56.9733 25.2734 57.4294 25.1359 57.8988 25.0937C58.2206 19.7059 56.3079 14.2059 53.1082 9.80133C55.2757 11.4568 57.0675 13.5571 58.3643 15.9624C59.6611 18.3677 60.4333 21.0228 60.6293 23.7512C60.6994 24.8238 60.6845 25.9003 60.5846 26.9705C60.7385 27.5021 60.8241 28.0513 60.8394 28.6048C60.9201 30.9095 60.5061 33.2047 59.6254 35.3344C58.7448 37.4641 57.4183 39.3784 55.7359 40.9473C53.2199 45.6841 50.3419 50.2907 48.6661 55.3732C49.2168 55.6 49.7487 55.8703 50.257 56.1813L50.4269 56.105C51.4636 48.4723 57.8452 42.9902 60.7053 36.0803C63.9274 28.2411 62.4079 16.8818 56.08 10.9417Z" fill="url(#paint3_linear)"/>
<path d="M60.6294 23.7513C60.6995 24.8238 60.6846 25.9003 60.5847 26.9705C60.431 26.4327 60.1196 25.9539 59.691 25.5966C59.1706 25.2057 58.5228 25.0261 57.8766 25.0937C58.1984 19.7059 56.2857 14.2059 53.0859 9.80133C55.2576 11.4546 57.0536 13.5539 58.3544 15.9594C59.6551 18.3648 60.4307 21.0211 60.6294 23.7513Z" fill="#CF5B44"/>
<path d="M53.6267 42.2045C54.2747 42.0905 54.8714 41.7766 55.3338 41.3065C55.4768 41.1808 55.6243 41.0551 55.7807 40.9249C53.2647 45.6616 50.3867 50.2682 48.7109 55.3507C47.6152 54.9041 46.4814 54.5585 45.3235 54.318C46.0162 49.6666 48.483 45.4147 50.999 41.4098L51.6872 40.3098C52.0045 41.3783 52.6257 42.2808 53.6267 42.2045Z" fill="#CF5B44"/>
<path d="M37.5388 53.0968C39.8 53.3303 42.0524 53.676 44.2779 54.125C44.6145 54.1939 44.9497 54.2657 45.2834 54.3405C46.4413 54.5809 47.5751 54.9266 48.6708 55.3732C49.2215 55.6 49.7534 55.8703 50.2617 56.1813C48.4965 56.9626 46.204 57.2185 44.2957 57.3397C37.6363 57.7611 30.9512 57.2198 24.4449 55.7324C22.5948 55.3058 20.7804 54.8344 19.3325 53.4874C20.0252 53.3842 20.7268 53.2899 21.424 53.2046C26.7749 52.5672 32.1799 52.531 37.5388 53.0968Z" fill="#B34732"/>
<path style="mix-blend-mode:screen" d="M21.9243 11.6736C18.7693 15.5438 17.0443 20.4287 16.1371 25.408C15.729 27.6959 15.4574 30.0063 15.3237 32.3268C15.3237 32.6635 15.2925 33.0003 15.2791 33.337C15.3059 34.0689 15.3416 34.8007 15.4131 35.5281C15.4846 36.2554 15.6187 37.1444 16.1639 37.6832C16.7091 38.222 17.5046 38.3162 18.2509 38.3387C23.1666 38.4869 27.8769 36.4709 32.1357 33.9611C37.2258 30.9574 41.9673 27.1096 45.1893 22.0451C48.1656 17.3532 49.6984 11.5119 48.7019 6.02984C45.5731 4.62482 42.1857 3.89521 38.7586 3.88818C32.377 3.90614 25.982 6.73474 21.9243 11.6736Z" fill="url(#paint4_linear)"/>
<path style="mix-blend-mode:screen" d="M17.6029 26.3643C17.6612 26.6924 17.7994 27.0009 18.0051 27.2623C18.1104 27.3921 18.2507 27.4887 18.4092 27.5404C18.5678 27.5922 18.7378 27.597 18.8989 27.5541C19.0549 27.4716 19.1927 27.3583 19.3041 27.221C19.4154 27.0836 19.498 26.9251 19.5469 26.7549C20.2596 25.0638 20.7914 23.3014 21.1334 21.4973C21.2317 20.99 21.2719 20.3749 20.8742 20.0516C19.8553 19.2255 18.5191 21.1247 18.1526 21.8476C17.4533 23.2435 17.259 24.8403 17.6029 26.3643Z" fill="url(#paint5_linear)"/>
<path style="mix-blend-mode:screen" d="M37.0651 17.6675C34.9021 17.0883 33.624 19.6565 32.9135 21.1831C32.2434 22.629 31.8811 24.1995 31.8499 25.7941C31.8499 26.499 32.0197 27.3746 32.6945 27.5676C33.2799 27.7382 33.8474 27.2713 34.2809 26.8448C35.9344 25.2194 37.6505 23.4998 38.3029 21.2774C38.5363 20.5986 38.5781 19.8682 38.4236 19.1671C38.3434 18.8214 38.1765 18.5021 37.9387 18.2396C37.7008 17.9771 37.4001 17.7802 37.0651 17.6675Z" fill="url(#paint6_linear)"/>
<path d="M31.1034 79.4701C31.4698 83.2057 30.7503 86.8649 29.9415 90.5286C29.1192 90.6812 28.2895 90.795 27.4523 90.8698C28.0296 88.6074 28.4403 86.3054 28.6812 83.9824C28.8617 82.8875 28.8145 81.767 28.5427 80.6914C28.1316 79.3803 27.1573 78.3566 26.1384 77.4272C26.4689 77.1057 26.8437 76.8335 27.2512 76.6191C27.6408 76.4017 28.0791 76.2876 28.5248 76.2876C28.9705 76.2876 29.4088 76.4017 29.7984 76.6191C30.7146 77.1983 31.0006 78.3971 31.1034 79.4701Z" fill="#CF5B44"/>
<path d="M28.5427 80.7048C28.8146 81.7804 28.8617 82.901 28.6812 83.9958C28.4404 86.3188 28.0296 88.6208 27.4523 90.8832C26.773 90.9461 26.1116 90.982 25.41 90.9955C26.1128 87.1778 25.7398 83.2388 24.333 79.6227C24.6324 79.1738 24.9497 78.7876 25.2715 78.3925C25.5416 78.0584 25.8311 77.7406 26.1384 77.4407C27.1573 78.3701 28.1539 79.3938 28.5427 80.7048Z" fill="url(#paint7_linear)"/>
<path d="M24.333 79.6227C25.7398 83.2388 26.1128 87.1778 25.4101 90.9955C23.4946 91.0393 21.5797 90.8888 19.6943 90.5465C20.4568 86.6175 22.0377 82.8948 24.333 79.6227Z" fill="url(#paint8_linear)"/>
<path style="mix-blend-mode:screen" d="M25.6739 78.653C23.611 80.8466 22.0962 83.5011 21.2542 86.3979C21.8472 86.8033 22.5479 87.0201 23.2651 87.0201C23.9824 87.0201 24.6831 86.8033 25.2761 86.3979C25.8319 85.9766 26.286 85.4349 26.6047 84.8131C26.9235 84.1913 27.0987 83.5053 27.1173 82.8061C27.171 81.4052 26.3666 79.8607 25.6739 78.653Z" fill="url(#paint9_linear)"/>
<path d="M40.3899 55.4046C45.2208 57.6989 48.0496 63.3785 46.2844 68.5104C45.2887 71.2208 43.5042 73.5675 41.163 75.2452C38.0348 77.5978 34.062 79.3803 30.0668 78.4733C29.5838 78.3605 29.1102 78.2104 28.6501 78.0244C29.93 78.2802 31.2489 78.2637 32.522 77.976C33.7952 77.6884 34.9941 77.1359 36.0417 76.3541C38.8392 74.2933 40.5106 70.9933 41.3775 67.6214C41.9853 65.2508 42.2222 62.6422 41.1854 60.4377C39.8894 57.6809 36.8327 56.105 33.8162 55.7727C32.3463 55.6298 30.8644 55.6735 29.4054 55.903C32.7705 54.1115 36.788 53.694 40.3899 55.4046Z" fill="#CF5B44"/>
<path d="M41.1853 60.4242C42.2221 62.6422 41.9853 65.2508 41.3775 67.608C40.5105 70.9798 38.8392 74.2799 36.0416 76.3407C34.9941 77.1224 33.7951 77.6749 32.522 77.9626C31.2489 78.2503 29.9299 78.2667 28.6501 78.0109C27.2562 77.4426 25.9966 76.5867 24.9528 75.4985C23.9089 74.4103 23.1041 73.1141 22.5903 71.6937C22.0521 70.087 21.8451 68.3871 21.9818 66.6974C22.1186 65.0077 22.5962 63.3637 23.3857 61.8655C24.7462 59.309 26.8447 57.2257 29.4053 55.8895C30.8643 55.6601 32.3463 55.6163 33.8161 55.7593C36.8326 56.0915 39.8893 57.6675 41.1853 60.4242ZM32.404 64.6537C32.7397 63.977 32.9078 63.2289 32.8938 62.4729C32.8798 61.717 32.6841 60.9756 32.3235 60.312C32.087 59.8995 31.7474 59.5561 31.3382 59.3159C30.9291 59.0757 30.4646 58.9471 29.9908 58.9426C30.1698 57.8881 30.5089 56.8675 30.9963 55.9164C30.1373 56.8019 29.4814 57.8654 29.0746 59.0324C27.439 59.4095 25.9911 60.8283 25.2627 62.1753C25.0924 62.4764 24.956 62.7957 24.856 63.1271C24.7046 63.6275 24.6582 64.154 24.7198 64.6734C24.7813 65.1927 24.9494 65.6936 25.2135 66.1443C25.42 66.4724 25.6946 66.7518 26.0186 66.9634C26.3425 67.1749 26.7082 67.3136 27.0904 67.37C27.2382 67.396 27.3875 67.4125 27.5373 67.4194C27.0122 70.7795 27.7948 74.2138 29.7226 77.0097C28.2514 74.025 27.8172 70.6315 28.4892 67.37C29.3019 67.2386 30.075 66.9266 30.7523 66.4566C31.4296 65.9867 31.9939 65.3707 32.404 64.6537Z" fill="url(#paint10_linear)"/>
<path d="M32.3236 60.3255C32.6842 60.9891 32.8798 61.7305 32.8938 62.4864C32.9078 63.2424 32.7398 63.9905 32.404 64.6672C31.991 65.3805 31.4249 65.9925 30.747 66.4584C30.069 66.9244 29.2962 67.2328 28.4848 67.3611C27.8128 70.6225 28.247 74.0161 29.7182 77.0007C27.7904 74.2048 27.0078 70.7706 27.5329 67.4104C27.3831 67.4035 27.2338 67.3871 27.086 67.3611C26.7037 67.3047 26.3381 67.166 26.0142 66.9544C25.6902 66.7428 25.4156 66.4634 25.2091 66.1353C24.945 65.6846 24.7769 65.1838 24.7153 64.6644C24.6538 64.1451 24.7002 63.6186 24.8516 63.1182C24.9516 62.7867 25.088 62.4675 25.2583 62.1663C25.9867 60.8463 27.4346 59.4096 29.0702 59.0234C29.477 57.8565 30.1329 56.793 30.9918 55.9075C30.5045 56.8586 30.1654 57.8792 29.9863 58.9336C30.4631 58.9396 30.93 59.0713 31.3402 59.3156C31.7504 59.5598 32.0895 59.9081 32.3236 60.3255ZM32.3236 63.7333C32.4473 63.3032 32.5016 62.8561 32.4844 62.4088C32.4844 62.3639 32.4844 62.319 32.4844 62.2741C32.4844 62.2292 32.4844 62.1798 32.4844 62.1349C32.4888 62.0961 32.4888 62.0569 32.4844 62.0181C32.4844 61.9239 32.4576 61.8251 32.4398 61.7308C32.4414 61.7099 32.4414 61.6889 32.4398 61.6679C32.4306 61.6116 32.4171 61.5561 32.3995 61.5018C32.3721 61.3861 32.3377 61.2722 32.2967 61.1606C32.2565 61.0618 32.2163 60.963 32.1672 60.8687C32.0462 60.6215 31.8863 60.3956 31.6934 60.1998L31.5773 60.092C31.1649 59.751 30.6402 59.578 30.107 59.6071C28.4624 59.661 26.8849 61.1292 26.1297 62.5031C25.9866 62.7615 25.8698 63.0337 25.7811 63.3157C25.3789 64.73 25.8839 66.4586 27.4927 66.728C28.1577 66.8236 28.8358 66.7542 29.4679 66.5259C29.6989 66.4452 29.9244 66.3492 30.1427 66.2386C30.3294 66.1437 30.51 66.0373 30.6835 65.9198C31.2817 65.5267 31.7744 64.9916 32.118 64.3618C32.1627 64.2772 32.203 64.1903 32.2387 64.1014C32.2726 63.9877 32.301 63.8723 32.3236 63.7557V63.7333Z" fill="#CF5B44"/>
<path d="M32.4844 62.4087C32.5015 62.856 32.4472 63.3032 32.3235 63.7332C32.287 63.8582 32.2437 63.9811 32.1939 64.1014C32.1582 64.1902 32.1179 64.2772 32.0732 64.3618C31.7296 64.9916 31.237 65.5267 30.6387 65.9198C30.4652 66.0372 30.2846 66.1437 30.098 66.2385C29.8796 66.3492 29.6542 66.4451 29.4232 66.5259C28.878 66.7157 28.3009 66.795 27.725 66.7594C26.934 66.0949 26.7284 64.8557 27.0279 63.7961C27.1127 63.5127 27.2296 63.24 27.3764 62.9834C28.1317 61.6095 29.7092 60.1413 31.3493 60.0875H31.5325L31.6487 60.1952C31.8415 60.3911 32.0015 60.617 32.1224 60.8642C32.1715 60.9585 32.2118 61.0573 32.252 61.156C32.293 61.2676 32.3273 61.3816 32.3548 61.4973C32.3724 61.5515 32.3858 61.6071 32.395 61.6634C32.3966 61.6843 32.3966 61.7053 32.395 61.7263C32.395 61.8205 32.4263 61.9193 32.4397 62.0136C32.4441 62.0524 32.4441 62.0916 32.4397 62.1303C32.4397 62.1752 32.4397 62.2246 32.4397 62.2695C32.4397 62.3144 32.4844 62.3638 32.4844 62.4087Z" fill="#C9FFEF"/>
<path d="M31.5326 60.092H31.3493C29.7092 60.1459 28.1317 61.6141 27.3765 62.9879C27.2297 63.2445 27.1127 63.5172 27.0279 63.8006C26.7285 64.8602 26.9341 66.0994 27.7251 66.7639C28.3009 66.7996 28.8781 66.7202 29.4232 66.5304C28.7911 66.7587 28.113 66.8281 27.448 66.7325C25.8392 66.4721 25.3342 64.7345 25.7364 63.3202C25.8251 63.0382 25.9419 62.766 26.085 62.5075C26.8402 61.1336 28.4177 59.6655 30.0623 59.6116C30.5949 59.5812 31.1196 59.7527 31.5326 60.092Z" fill="#44CFB8"/>
<path d="M31.7603 63.4863C31.4862 64.0185 31.014 64.4203 30.4465 64.6043C30.1644 64.6917 29.8654 64.7092 29.5751 64.6553C29.2848 64.6013 29.0119 64.4775 28.7796 64.2945C28.5532 64.1038 28.386 63.8518 28.2981 63.5684C28.2101 63.2851 28.2051 62.9823 28.2835 62.6961C28.0422 63.2439 27.707 63.9218 27.8098 64.492C27.8498 64.7901 27.9636 65.0734 28.1408 65.3158C28.3181 65.5582 28.5531 65.752 28.8243 65.8794C29.1646 65.9968 29.5307 66.017 29.8819 65.9378C30.233 65.8585 30.5553 65.6829 30.8129 65.4304C31.3492 64.9635 31.4967 64.1598 31.7603 63.4863Z" fill="#A4EDE0"/>
<path d="M30.4154 63.2528C30.9427 63.1047 31.5684 62.7455 31.5281 62.1124C31.4843 61.8466 31.3374 61.609 31.1197 61.4517C30.9019 61.2943 30.631 61.23 30.3662 61.2728C29.1641 61.4479 28.8468 63.6884 30.4154 63.2528Z" fill="#EBFFFC"/>
<path style="mix-blend-mode:screen" d="M36.989 59.6026C37.1846 60.0749 37.2699 60.5861 37.2381 61.0967C37.2064 61.6073 37.0584 62.1038 36.8057 62.5479C36.2909 63.4444 35.5953 64.2228 34.7635 64.8333C32.8616 66.3427 30.6826 67.461 28.3506 68.1243C28.3908 67.8729 28.431 67.6215 28.4847 67.3745C29.2961 67.2462 30.0689 66.9379 30.7469 66.4719C31.4248 66.0059 31.9909 65.394 32.4039 64.6806C32.7397 64.004 32.9077 63.2558 32.8937 62.4999C32.8797 61.7439 32.684 61.0026 32.3234 60.3389C32.0869 59.9264 31.7473 59.5831 31.3381 59.3429C30.929 59.1027 30.4645 58.974 29.9907 58.9695C30.1309 58.1769 30.3557 57.4016 30.661 56.6573C32.2809 56.6814 33.8686 57.1153 35.2774 57.9189C36 58.2992 36.5953 58.8848 36.989 59.6026ZM25.2358 68.7349C25.9714 68.6582 26.7014 68.5337 27.4211 68.3623C27.4479 68.048 27.4836 67.7337 27.5328 67.4239C27.3829 67.417 27.2337 67.4005 27.0859 67.3745C26.7036 67.3181 26.338 67.1794 26.014 66.9679C25.6901 66.7563 25.4155 66.4769 25.209 66.1488C24.9449 65.6981 24.7768 65.1972 24.7152 64.6779C24.6537 64.1585 24.7001 63.632 24.8515 63.1316C24.9515 62.8002 25.0879 62.4809 25.2581 62.1798C25.9866 60.8598 27.4345 59.423 29.0701 59.0369C29.38 58.1724 29.825 57.3631 30.3884 56.6393C29.3572 56.6344 28.3341 56.8232 27.3719 57.1961C25.7217 58.4465 24.3641 60.0449 23.3946 61.879C22.4457 63.7064 21.9462 65.7355 21.9377 67.7966C22.033 67.9307 22.1424 68.0541 22.264 68.1647C23.0371 68.8292 24.199 68.8472 25.2358 68.7349Z" fill="url(#paint11_linear)"/>
<path d="M40.3362 86.2856C40.837 87.8344 41.496 89.327 42.3025 90.7396C41.4892 90.6857 40.6803 90.6049 39.8669 90.5061C39.8935 89.0878 40.0506 87.6749 40.3362 86.2856Z" fill="#94122E"/>
<path d="M48.7108 85.5942C49.3245 87.1717 49.8712 88.7686 50.3509 90.3849C47.6929 90.8221 44.9928 90.9412 42.3069 90.7396C41.5004 89.327 40.8414 87.8345 40.3406 86.2857L40.3808 86.0881C40.716 84.5077 41.1271 82.4963 42.1013 81.1762C42.3209 80.8503 42.6165 80.5834 42.9623 80.3987C43.3082 80.214 43.6938 80.1172 44.0855 80.1166C46.597 80.2828 47.9511 83.6008 48.7108 85.5942Z" fill="url(#paint12_linear)"/>
<path d="M40.3361 86.2857C40.0505 87.675 39.8935 89.0878 39.8669 90.5061C39.42 90.4523 38.9731 90.3894 38.5262 90.322C38.2641 86.2455 38.471 82.1521 39.1429 78.1232C39.0759 80.8924 39.4795 83.6528 40.3361 86.2857Z" fill="#CF5B44"/>
<path d="M51.5128 90.1649C51.1285 90.2457 50.7441 90.322 50.3643 90.3849C49.8846 88.7626 49.3379 87.1657 48.7242 85.5942C47.9511 83.6007 46.597 80.2828 44.081 80.1166C43.6893 80.1172 43.3037 80.214 42.9579 80.3987C42.612 80.5834 42.3164 80.8503 42.0968 81.1762C41.1226 82.5007 40.7115 84.5077 40.3763 86.0881L40.3361 86.2857C39.4795 83.6527 39.0759 80.8923 39.1429 78.1231C39.4081 76.5517 39.7417 74.9967 40.1439 73.4582C40.2157 73.0664 40.3878 72.7002 40.6433 72.3955C40.8987 72.0909 41.2287 71.8583 41.6008 71.7206C41.9979 71.6232 42.4108 71.61 42.8132 71.6819C43.2156 71.7538 43.5987 71.9092 43.938 72.1382C44.6144 72.5969 45.2083 73.1678 45.6943 73.8264C49.3096 78.3342 51.2491 84.4089 51.5128 90.1649Z" fill="url(#paint13_linear)"/>
<path style="mix-blend-mode:screen" d="M41.1138 81.3783C41.4489 82.842 42.0612 84.4089 43.3482 85.042C44.6353 85.675 46.2932 85.0824 47.1825 83.8881C48.7779 81.7554 48.1478 78.8191 47.0395 76.6145C46.2038 74.9623 43.737 71.1055 41.5473 72.4165C40.8188 72.8655 40.6267 73.8578 40.5641 74.7423C40.4245 76.9694 40.6097 79.205 41.1138 81.3783Z" fill="url(#paint14_linear)"/>
<path d="M50.865 73.6333C51.4492 73.8124 52.047 73.9431 52.6525 74.024C52.3397 74.3652 52.0224 74.7019 51.7051 75.0432C50.3644 76.5068 48.13 76.8391 46.1369 76.1611C44.9665 75.7845 43.9032 75.1312 43.0362 74.2562C42.1691 73.3812 41.5237 72.31 41.1541 71.1325C41.8127 69.6563 42.8394 68.3758 44.1348 67.4149C44.8253 69.3641 46.1209 71.0388 47.8306 72.1921C48.7628 72.8254 49.7862 73.3115 50.865 73.6333Z" fill="url(#paint15_radial)"/>
<path d="M47.8483 57.407C51.7944 60.056 54.8377 64.1418 56.8487 68.1826C55.9281 70.3737 54.3238 72.2235 52.6613 74.0194C52.0559 73.9385 51.458 73.8079 50.8738 73.6288C52.3248 72.0277 53.6081 70.2809 54.7036 68.4161C53.9126 64.0834 51.0749 60.1414 47.1467 57.5462C47.378 57.4877 47.6122 57.4412 47.8483 57.407Z" fill="#CF5B44"/>
<path d="M54.6948 68.4206C53.5994 70.2854 52.316 72.0322 50.865 73.6333C49.7893 73.3106 48.7691 72.8246 47.8396 72.1921C46.1299 71.0387 44.8343 69.364 44.1438 67.4149C44.6518 67.0237 45.2038 66.6937 45.7883 66.4316C44.9333 64.4331 44.4429 62.2963 44.3404 60.1234C44.2779 58.8079 45.6811 57.9324 47.138 57.5507C51.0661 60.1638 53.9038 64.0879 54.6948 68.4206Z" fill="url(#paint16_linear)"/>
<path style="mix-blend-mode:screen" d="M50.3063 67.5137C49.1712 68.69 48.1389 69.5925 47.0038 70.7688C46.4339 70.4743 45.9423 70.0472 45.57 69.5232C45.1976 68.9992 44.9553 68.3933 44.8632 67.7561C45.3703 67.2793 45.9476 66.884 46.5748 66.5843C45.3124 64.5213 44.6699 62.1359 44.7247 59.7148C44.7247 59.2658 45.3458 58.9785 45.7436 58.7091C47.6296 61.4379 49.1628 64.3965 50.3063 67.5137Z" fill="url(#paint17_linear)"/>
<path d="M19.5871 64.9769C20.0175 64.2856 20.1767 63.4583 20.0339 62.6557C19.8851 61.8639 19.6805 61.0837 19.4217 60.321C19.2741 59.8407 19.1811 59.3451 19.1446 58.8438C19.8529 58.9833 20.5847 58.94 21.2718 58.7181C21.1727 58.8957 21.0832 59.0785 21.0037 59.2658C20.6998 60.0471 21.0037 60.7116 21.4506 61.3761C21.8975 62.0406 22.3444 62.723 22.3444 63.4773C22.3444 65.4304 20.5255 65.7222 18.9882 65.7492C18.8676 65.7492 18.7558 65.7492 18.6396 65.7492C19.0279 65.5973 19.3591 65.3273 19.5871 64.9769Z" fill="#CF5B44"/>
<path d="M20.0118 62.6557C20.1546 63.4583 19.9953 64.2857 19.5649 64.9769C19.3253 65.3241 18.9829 65.5865 18.5862 65.7267C17.5121 65.652 16.4696 65.3296 15.5395 64.7845C14.6095 64.2395 13.817 63.4864 13.2235 62.5838C12.0039 60.6454 11.4195 58.3719 11.5522 56.0826C11.5924 54.6503 12.1957 53.245 12.6202 51.8307C12.8581 53.237 13.4288 54.5652 14.2843 55.7037C15.1398 56.8421 16.255 57.7574 17.536 58.3724C18.0316 58.6012 18.5542 58.7657 19.0912 58.8618C19.1277 59.3631 19.2206 59.8586 19.3683 60.3389C19.6369 61.095 19.8519 61.8692 20.0118 62.6557Z" fill="url(#paint18_linear)"/>
<path d="M19.1223 58.8438C18.586 58.752 18.0634 58.5921 17.5672 58.3679C16.2861 57.7528 15.1709 56.8376 14.3154 55.6992C13.4599 54.5607 12.8892 53.2325 12.6514 51.8262C12.9203 51.0186 13.0561 50.1724 13.0536 49.3208C12.9749 47.2968 12.1273 45.3799 10.6851 43.9645C11.1319 43.2012 11.7397 42.3706 12.7139 42.6175C13.0542 42.7256 13.3743 42.8895 13.6613 43.1024C14.8977 43.9317 15.9369 45.0247 16.7047 46.3037C18.3824 44.2776 20.4131 42.5752 22.6974 41.2795C23.9174 41.5444 24.6816 42.8465 24.6414 44.0992C23.8057 44.8624 22.8538 45.7245 21.9958 46.4833C22.5221 46.5658 23.0249 46.7602 23.4703 47.0537C23.9158 47.3472 24.2937 47.7328 24.5788 48.1849C25.2788 49.2703 25.8644 50.4259 26.3262 51.6331C26.6167 52.3919 26.3262 53.1417 25.8301 53.7882C24.9632 54.9511 23.6806 55.6605 22.7019 56.7515C22.1452 57.3464 21.6538 57.9997 21.2361 58.7001C20.5547 58.9257 19.8277 58.9752 19.1223 58.8438Z" fill="url(#paint19_radial)"/>
<path style="mix-blend-mode:screen" d="M13.733 62.6018C12.7239 61.2394 12.0756 59.6419 11.849 57.959C11.6223 56.2761 11.8246 54.563 12.437 52.9801C12.9867 54.5335 13.8237 55.9685 14.9038 57.2095C14.2443 58.9371 13.8495 60.7552 13.733 62.6018Z" fill="url(#paint20_linear)"/>
<path d="M5.85871 24.1781C5.09007 21.6099 5.92128 18.8172 7.22619 16.478C8.53111 14.1388 10.2919 12.0915 11.6057 9.74329C12.0794 8.90369 12.4995 7.80367 11.9096 7.04938C11.3197 6.29509 10.1801 6.34448 9.26848 6.62734C8.10768 6.96778 7.03075 7.54879 6.1071 8.33293C5.18345 9.11707 4.43358 10.0869 3.90581 11.18L0 7.45347C1.59986 6.03468 2.65452 4.56201 4.22757 3.11629C5.80062 1.67056 7.65521 0.413404 9.76452 0.0766667C11.8738 -0.260071 14.2334 0.52565 15.3506 2.34852C16.4857 4.25221 16.0076 6.71713 15.0914 8.73756C13.8938 11.3551 12.0526 13.618 10.5332 16.0605C9.01375 18.503 7.78481 21.3091 8.044 24.1781C7.48539 24.2455 6.42179 24.1063 5.85871 24.1781ZM8.41939 26.1402C7.48986 25.6238 6.27432 26.1402 5.7604 27.1683C5.17944 28.3581 5.63527 30.5627 7.22173 30.7153C8.24957 30.8141 9.12994 29.6333 9.33551 28.7398C9.54108 27.8463 9.29082 26.6251 8.41939 26.1402Z" fill="#CF5B44"/>
<path d="M69.5047 37.2657C68.8611 35.1195 69.5583 32.7758 70.6487 30.8272C71.7391 28.8786 73.2138 27.1545 74.3132 25.206C74.7109 24.5055 75.0461 23.5851 74.5634 22.961C74.0808 22.3369 73.12 22.3684 72.3603 22.6063C71.3872 22.8889 70.4841 23.3739 69.7096 24.0299C68.9351 24.6858 68.3065 25.498 67.8646 26.4137L64.6023 23.3023C65.943 22.1125 66.8367 20.8822 68.1417 19.67C69.4466 18.4577 71.0062 17.4251 72.7714 17.1287C74.5366 16.8324 76.5253 17.4924 77.4459 19.0279C78.3665 20.5635 77.9955 22.6872 77.2269 24.3708C76.2259 26.5664 74.6886 28.4566 73.4149 30.4995C72.1413 32.5423 71.1179 34.8905 71.3369 37.2926C70.8632 37.3285 69.9784 37.2073 69.5047 37.2657ZM71.6453 38.9089C71.4428 38.8139 71.2234 38.7609 71.0002 38.753C70.7769 38.7451 70.5543 38.7825 70.3457 38.863C70.1372 38.9434 69.9469 39.0653 69.7862 39.2213C69.6256 39.3773 69.4979 39.5643 69.4108 39.771C68.9192 40.7677 69.3036 42.6086 70.6308 42.7343C71.4933 42.8196 72.2262 41.8363 72.4184 41.082C72.6105 40.3277 72.396 39.3175 71.6453 38.9089Z" fill="#CF5B44"/>
<defs>
<linearGradient id="paint0_linear" x1="60.8306" y1="22.337" x2="53.6258" y2="41.8459" gradientUnits="userSpaceOnUse">
<stop stop-color="#FF8759"/>
<stop offset="1" stop-color="#AB1535"/>
</linearGradient>
<linearGradient id="paint1_linear" x1="1186.22" y1="781.551" x2="955.868" y2="1245.47" gradientUnits="userSpaceOnUse">
<stop stop-color="#FF8759"/>
<stop offset="1" stop-color="#AB1535"/>
</linearGradient>
<radialGradient id="paint2_radial" cx="0" cy="0" r="1" gradientUnits="userSpaceOnUse" gradientTransform="translate(28.1228 19.4141) scale(30.1427 30.2839)">
<stop stop-color="#3E6785"/>
<stop offset="1" stop-color="#1D2243"/>
</radialGradient>
<linearGradient id="paint3_linear" x1="49.837" y1="61.7712" x2="28.7061" y2="6.62097" gradientUnits="userSpaceOnUse">
<stop stop-color="#FBA746"/>
<stop offset="1" stop-color="#DE731F"/>
</linearGradient>
<linearGradient id="paint4_linear" x1="24.5297" y1="-1.03268" x2="36.67" y2="34.3215" gradientUnits="userSpaceOnUse">
<stop stop-color="#BCBD99"/>
<stop offset="0.16" stop-color="#9C9D7F"/>
<stop offset="0.74" stop-color="#2C2D24"/>
<stop offset="1"/>
</linearGradient>
<linearGradient id="paint5_linear" x1="181.516" y1="324.017" x2="166.615" y2="547.596" gradientUnits="userSpaceOnUse">
<stop stop-color="#BCBD99"/>
<stop offset="0.16" stop-color="#9C9D7F"/>
<stop offset="0.74" stop-color="#2C2D24"/>
<stop offset="1"/>
</linearGradient>
<linearGradient id="paint6_linear" x1="566.069" y1="380.798" x2="518.722" y2="706.951" gradientUnits="userSpaceOnUse">
<stop stop-color="#BCBD99"/>
<stop offset="0.16" stop-color="#9C9D7F"/>
<stop offset="0.74" stop-color="#2C2D24"/>
<stop offset="1"/>
</linearGradient>
<linearGradient id="paint7_linear" x1="305.98" y1="2839.23" x2="92.9501" y2="2528.71" gradientUnits="userSpaceOnUse">
<stop stop-color="#FBA746"/>
<stop offset="1" stop-color="#DE731F"/>
</linearGradient>
<linearGradient id="paint8_linear" x1="311.617" y1="2126.8" x2="399.008" y2="2405.77" gradientUnits="userSpaceOnUse">
<stop stop-color="#FF8759"/>
<stop offset="1" stop-color="#AB1535"/>
</linearGradient>
<linearGradient id="paint9_linear" x1="340.702" y1="1528.92" x2="333.306" y2="1750.02" gradientUnits="userSpaceOnUse">
<stop stop-color="#BCBD99"/>
<stop offset="0.16" stop-color="#9C9D7F"/>
<stop offset="0.74" stop-color="#2C2D24"/>
<stop offset="1"/>
</linearGradient>
<linearGradient id="paint10_linear" x1="1826.68" y1="3906.28" x2="1107.62" y2="3132.19" gradientUnits="userSpaceOnUse">
<stop stop-color="#FBA746"/>
<stop offset="1" stop-color="#DE731F"/>
</linearGradient>
<linearGradient id="paint11_linear" x1="921.063" y1="1643.54" x2="1111.28" y2="2015.81" gradientUnits="userSpaceOnUse">
<stop stop-color="#BCBD99"/>
<stop offset="0.16" stop-color="#9C9D7F"/>
<stop offset="0.74" stop-color="#2C2D24"/>
<stop offset="1"/>
</linearGradient>
<linearGradient id="paint12_linear" x1="1046.58" y1="1958.57" x2="1061.61" y2="2272.3" gradientUnits="userSpaceOnUse">
<stop stop-color="#FF8759"/>
<stop offset="1" stop-color="#AB1535"/>
</linearGradient>
<linearGradient id="paint13_linear" x1="1310.88" y1="4107.65" x2="1219.16" y2="2900.22" gradientUnits="userSpaceOnUse">
<stop stop-color="#FBA746"/>
<stop offset="1" stop-color="#DE731F"/>
</linearGradient>
<linearGradient id="paint14_linear" x1="778.639" y1="2187.93" x2="884.84" y2="2585.87" gradientUnits="userSpaceOnUse">
<stop stop-color="#BCBD99"/>
<stop offset="0.16" stop-color="#9C9D7F"/>
<stop offset="0.74" stop-color="#2C2D24"/>
<stop offset="1"/>
</linearGradient>
<radialGradient id="paint15_radial" cx="0" cy="0" r="1" gradientUnits="userSpaceOnUse" gradientTransform="translate(1371.71 1462.2) scale(340.907 242.607)">
<stop stop-color="#3E6785"/>
<stop offset="1" stop-color="#1D2243"/>
</radialGradient>
<linearGradient id="paint16_linear" x1="1079.2" y1="2329.7" x2="1338.31" y2="2401.7" gradientUnits="userSpaceOnUse">
<stop stop-color="#FBA746"/>
<stop offset="1" stop-color="#DE731F"/>
</linearGradient>
<linearGradient id="paint17_linear" x1="531.108" y1="1917.47" x2="677.452" y2="1877.04" gradientUnits="userSpaceOnUse">
<stop stop-color="#BCBD99"/>
<stop offset="0.16" stop-color="#9C9D7F"/>
<stop offset="0.74" stop-color="#2C2D24"/>
<stop offset="1"/>
</linearGradient>
<linearGradient id="paint18_linear" x1="253.42" y1="1704.63" x2="459.047" y2="1970.25" gradientUnits="userSpaceOnUse">
<stop stop-color="#FBA746"/>
<stop offset="1" stop-color="#DE731F"/>
</linearGradient>
<radialGradient id="paint19_radial" cx="0" cy="0" r="1" gradientUnits="userSpaceOnUse" gradientTransform="translate(625.671 1742.63) scale(593.4 664.174)">
<stop stop-color="#3E6785"/>
<stop offset="1" stop-color="#1D2243"/>
</radialGradient>
<linearGradient id="paint20_linear" x1="98.7189" y1="1131.29" x2="192.088" y2="1347.49" gradientUnits="userSpaceOnUse">
<stop stop-color="#BCBD99"/>
<stop offset="0.16" stop-color="#9C9D7F"/>
<stop offset="0.74" stop-color="#2C2D24"/>
<stop offset="1"/>
</linearGradient>
</defs>
</svg>
