<svg width="68" height="68" viewBox="0 0 68 68" fill="none" xmlns="http://www.w3.org/2000/svg">
<path d="M5.37298 54.2941V56.5094C5.51272 56.5285 5.66504 56.5412 5.83003 56.5475C5.99501 56.5539 6.17912 56.5602 6.37598 56.5602C6.95356 56.5602 7.41698 56.4777 7.77245 56.3126C8.12792 56.1477 8.30557 55.843 8.30557 55.3986C8.30557 55.005 8.15954 54.7194 7.86119 54.5543C7.56292 54.3829 7.13758 54.3005 6.58534 54.3005L5.37298 54.2941ZM5.37298 52.8215H6.31249C6.90919 52.8215 7.32807 52.7454 7.58834 52.593C7.84223 52.4406 7.96914 52.193 7.96914 51.8566C7.96914 51.5076 7.83594 51.2664 7.57559 51.1266C7.30894 50.987 6.92185 50.9172 6.41398 50.9172C6.24899 50.9172 6.07126 50.9172 5.88086 50.9235C5.69046 50.9299 5.5253 50.9361 5.37298 50.9553V52.8215ZM6.35057 58.1344C5.88086 58.1344 5.41106 58.1218 4.94773 58.0901C4.4583 58.0571 3.9738 57.9894 3.49414 57.8869V49.5779C3.92484 49.4993 4.35859 49.4443 4.79532 49.4129C5.26512 49.3749 5.70312 49.3558 6.10934 49.3558C6.61432 49.3512 7.11582 49.3914 7.61367 49.4763C8.03136 49.5384 8.42491 49.6718 8.79432 49.8763C9.11902 50.0571 9.37716 50.3068 9.56867 50.6254C9.75278 50.9363 9.84798 51.3172 9.84798 51.7678C9.84798 52.4534 9.51792 52.993 8.85781 53.3865C9.40377 53.5897 9.7719 53.8753 9.96859 54.2243C10.1728 54.5981 10.2723 54.998 10.2669 55.424C10.2669 56.3254 9.93689 56.9982 9.28315 57.4488C8.61658 57.9122 7.64537 58.1344 6.35057 58.1344Z" fill="#4D4D4D"/>
<path d="M12.837 58.0268H10.9962V51.5205H12.837V58.0268ZM13.0148 49.6417C13.0148 49.9781 12.9069 50.2447 12.6847 50.4415C12.6316 50.4881 12.5748 50.5296 12.5142 50.5661C12.4536 50.6025 12.3902 50.6331 12.3241 50.6581C12.2581 50.683 12.1901 50.7018 12.1206 50.7144C12.0511 50.7271 11.9809 50.7335 11.9102 50.7335C11.8396 50.7335 11.7695 50.7272 11.6999 50.7144C11.6304 50.7018 11.5625 50.683 11.4964 50.6581C11.4302 50.6331 11.3669 50.6025 11.3063 50.5661C11.2457 50.5296 11.1888 50.4881 11.1358 50.4415C10.92 50.2447 10.8057 49.9844 10.8057 49.6417C10.8057 49.3053 10.9136 49.0386 11.1358 48.8419C11.242 48.7464 11.3619 48.6736 11.4955 48.6232C11.6291 48.5728 11.7674 48.5484 11.9102 48.55C12.0531 48.5475 12.1915 48.5716 12.3253 48.622C12.4591 48.6724 12.5788 48.7458 12.6846 48.842C12.907 49.0386 13.0148 49.3053 13.0148 49.6417Z" fill="#4D4D4D"/>
<path d="M13.8276 49.9019L15.6684 49.6035V51.5204H17.8837V53.0566H15.6684V55.3417C15.6684 55.729 15.7382 56.04 15.8715 56.2684C16.0048 56.4969 16.2841 56.6175 16.6967 56.6175C16.9015 56.6169 17.1047 56.5978 17.3061 56.5603C17.5028 56.5254 17.6953 56.4746 17.8837 56.408L18.144 57.8426C17.9024 57.9398 17.6548 58.018 17.4013 58.0775C17.0709 58.1495 16.7366 58.1833 16.3984 58.179C15.897 58.179 15.4781 58.1092 15.148 57.9758C14.8327 57.8559 14.5682 57.6655 14.3545 57.4046C14.147 57.1432 14.0094 56.849 13.9419 56.5222C13.8602 56.1436 13.82 55.7606 13.8213 55.3733L13.8276 49.9019Z" fill="#4D4D4D"/>
<path d="M18.1437 54.7765C18.1404 54.3206 18.2166 53.8784 18.3721 53.4498C18.444 53.2469 18.536 53.0536 18.6481 52.8698C18.7602 52.6859 18.89 52.5157 19.0375 52.3588C19.185 52.2019 19.3472 52.0621 19.5238 51.939C19.7003 51.8159 19.8878 51.7123 20.086 51.6282C20.5362 51.4365 21.0059 51.3456 21.4951 51.3552C21.8159 51.3522 22.1334 51.384 22.4472 51.4504C22.7348 51.5135 23.0141 51.6022 23.285 51.717L22.9042 53.1897C22.7172 53.1215 22.5268 53.0643 22.333 53.0182C22.1054 52.9649 21.8747 52.9394 21.6411 52.942C21.0951 52.942 20.6889 53.1134 20.4222 53.4498C20.1557 53.7863 20.0224 54.2307 20.0224 54.7829C20.0224 55.3669 20.1493 55.8239 20.3968 56.1413C20.6508 56.465 21.0888 56.6237 21.7108 56.6237C21.9517 56.6232 22.1908 56.6021 22.4281 56.5602C22.6709 56.5232 22.9058 56.4577 23.1326 56.3635L23.3929 57.8741C23.132 57.9789 22.8633 58.0571 22.5869 58.109C22.2346 58.1775 21.8792 58.2114 21.5204 58.2105C20.9237 58.2105 20.416 58.1217 19.9843 57.944C19.5765 57.7826 19.2232 57.5414 18.9243 57.2203C18.6412 56.9065 18.4402 56.5467 18.3212 56.1413C18.2024 55.6941 18.1431 55.2391 18.1437 54.7765Z" fill="#4D4D4D"/>
<path d="M27.8562 54.7634C27.8562 54.1921 27.742 53.7478 27.5135 53.4241C27.285 53.1003 26.9612 52.9354 26.5423 52.9354C26.1233 52.9354 25.7933 53.1003 25.5648 53.4241C25.3363 53.7478 25.2157 54.1985 25.2157 54.7634C25.2157 55.3347 25.3299 55.7853 25.5648 56.1154C25.7933 56.4518 26.1233 56.6169 26.5423 56.6169C26.9612 56.6169 27.2849 56.4518 27.5135 56.1154C27.7421 55.779 27.8562 55.3284 27.8562 54.7634ZM29.735 54.7634C29.7398 55.2435 29.6657 55.711 29.5129 56.1662C29.3774 56.5742 29.1637 56.9361 28.8718 57.2518C28.5857 57.5572 28.2492 57.7898 27.8626 57.9499C27.6537 58.0318 27.4392 58.0934 27.2188 58.1352C26.9984 58.1767 26.776 58.1975 26.5518 58.1975C26.3275 58.1975 26.1052 58.1767 25.8848 58.1352C25.6644 58.0935 25.4498 58.0318 25.241 57.9499C24.8543 57.7898 24.5179 57.5572 24.2317 57.2518C23.9397 56.9345 23.7219 56.5727 23.578 56.1662C23.415 55.7128 23.3368 55.2452 23.3431 54.7634C23.3377 54.2831 23.4181 53.8177 23.5843 53.3669C23.7313 52.9627 23.9535 52.6051 24.2508 52.2941C24.5407 51.9921 24.8793 51.7614 25.2664 51.6023C25.677 51.4328 26.1044 51.3502 26.5486 51.3547C26.9969 51.3496 27.4287 51.4321 27.8435 51.6023C28.2299 51.76 28.5663 51.9907 28.8527 52.2941C29.1446 52.6068 29.3625 52.9644 29.5065 53.3669C29.6621 53.8195 29.7383 54.2849 29.735 54.7634Z" fill="#4D4D4D"/>
<path d="M32.318 58.0268H30.4772V51.5205H32.318V58.0268ZM32.4894 49.6417C32.4894 49.9781 32.3815 50.2447 32.1594 50.4415C32.1062 50.4881 32.0495 50.5296 31.9889 50.5661C31.9283 50.6025 31.8648 50.6331 31.7988 50.6581C31.7327 50.683 31.6648 50.7018 31.5952 50.7144C31.5258 50.7271 31.4556 50.7335 31.3848 50.7335C31.3142 50.7335 31.2441 50.7272 31.1746 50.7144C31.105 50.7018 31.0372 50.683 30.971 50.6581C30.9049 50.6331 30.8415 50.6025 30.7809 50.5661C30.7203 50.5296 30.6635 50.4881 30.6104 50.4415C30.3946 50.2447 30.2803 49.9844 30.2803 49.6417C30.2803 49.3053 30.3883 49.0386 30.6104 48.8419C30.7167 48.7465 30.8366 48.6736 30.9701 48.6232C31.1038 48.5728 31.242 48.5484 31.3848 48.55C31.5278 48.5475 31.6662 48.5716 31.7999 48.622C31.9337 48.6724 32.0535 48.7458 32.1593 48.842C32.3815 49.0386 32.4894 49.3053 32.4894 49.6417Z" fill="#4D4D4D"/>
<path d="M33.3653 51.7417C33.7642 51.6322 34.1683 51.5476 34.5778 51.4879C35.0931 51.408 35.6114 51.3679 36.1328 51.3672C36.6851 51.3672 37.1421 51.4371 37.5103 51.5831C37.8542 51.7091 38.144 51.9122 38.3798 52.1924C38.6032 52.471 38.7555 52.7842 38.8369 53.1319C38.9299 53.5306 38.9744 53.9348 38.9702 54.3443V58.0195H37.1295V54.5664C37.1295 53.9697 37.0532 53.5508 36.8945 53.3032C36.7357 53.0557 36.4438 52.9352 36.0185 52.9352C35.8852 52.9352 35.7456 52.9415 35.5995 52.9542C35.4535 52.9668 35.3202 52.9796 35.206 52.9986V58.0195H33.3652V51.7417H33.3653Z" fill="#4D4D4D"/>
<path d="M44.0034 58.1973C42.6071 58.1973 41.5449 57.8101 40.817 57.0357C40.0871 56.2614 39.7231 55.1611 39.7252 53.735C39.7153 53.0808 39.8274 52.4481 40.0616 51.8371C40.2665 51.3026 40.5711 50.833 40.9757 50.428C41.3741 50.0381 41.8353 49.7482 42.3594 49.5584C42.9235 49.3546 43.5053 49.2552 44.1049 49.2601C44.4377 49.2564 44.7678 49.2839 45.0952 49.3425C45.3596 49.3863 45.6199 49.4477 45.876 49.5267C46.0678 49.584 46.254 49.6559 46.4346 49.7425C46.5806 49.8186 46.6884 49.8758 46.7583 49.9139L46.1998 51.4691C45.9058 51.3173 45.5991 51.1987 45.2794 51.1136C44.8885 51.0087 44.4907 50.96 44.086 50.9676C43.788 50.9681 43.4982 51.0167 43.2164 51.1136C42.9295 51.2164 42.6777 51.375 42.461 51.5897C42.2265 51.8342 42.0508 52.1157 41.9343 52.4339C41.801 52.783 41.7375 53.202 41.7375 53.697C41.736 54.0702 41.7783 54.4385 41.8644 54.8015C41.9435 55.1244 42.0831 55.4185 42.2834 55.6838C42.4893 55.9424 42.7432 56.1392 43.0451 56.2742C43.3562 56.4202 43.737 56.4899 44.1813 56.4899C44.4343 56.4909 44.6861 56.4739 44.9367 56.4392C45.1384 56.4125 45.3373 56.3723 45.5334 56.3185C45.6896 56.2792 45.842 56.2285 45.9904 56.1662C46.1237 56.109 46.2444 56.0519 46.3459 56.0076L46.8791 57.5563C46.6061 57.7213 46.2253 57.8674 45.7301 58.0007C45.1631 58.1408 44.5875 58.2062 44.0034 58.1973Z" fill="#F7941D"/>
<path d="M49.9132 56.7378C50.0973 56.7378 50.2687 56.7314 50.4337 56.7251C50.5659 56.7222 50.697 56.7095 50.8272 56.6871V55.2905C50.716 55.2678 50.6039 55.2508 50.4908 55.2398C50.356 55.2226 50.2205 55.2141 50.0846 55.2143C49.9211 55.2149 49.7581 55.2254 49.5958 55.246C49.4547 55.2604 49.3215 55.3005 49.196 55.3667C49.0843 55.4208 48.9932 55.4992 48.923 55.6016C48.8532 55.7143 48.8193 55.8371 48.8215 55.9697C48.8215 56.2553 48.9167 56.4585 49.1136 56.5664C49.3102 56.687 49.5767 56.7378 49.9132 56.7378ZM49.7671 51.3486C50.3132 51.3486 50.7638 51.4121 51.1255 51.5327C51.4617 51.635 51.7515 51.8127 51.9951 52.0659C52.2194 52.3065 52.3738 52.5858 52.4585 52.9037C52.5511 53.2639 52.5956 53.6299 52.5918 54.0019V57.8357C52.3251 57.8929 51.9634 57.9626 51.4936 58.0389C50.9277 58.1242 50.3586 58.1645 49.7861 58.1594C49.401 58.1632 49.0202 58.1251 48.6435 58.0452C48.3267 57.9799 48.0326 57.8593 47.7612 57.6834C47.512 57.5142 47.3216 57.2942 47.1899 57.0232C47.0566 56.7502 46.9931 56.4202 46.9931 56.0202C46.9826 55.6781 47.0588 55.3565 47.2217 55.0554C47.369 54.7919 47.5722 54.5825 47.831 54.4269C48.1027 54.2608 48.3947 54.1466 48.707 54.0842C49.0461 54.0123 49.3888 53.9762 49.7354 53.9762C49.9475 53.9759 50.1591 53.9864 50.3702 54.008C50.5232 54.0199 50.6734 54.0474 50.8209 54.0905V53.9191C50.8209 53.6081 50.7256 53.3542 50.5352 53.1637C50.3448 52.9732 50.0147 52.8781 49.5451 52.8781C49.2344 52.8791 48.9255 52.9023 48.6183 52.9479C48.3473 52.9839 48.0828 53.0473 47.8249 53.1384L47.5899 51.6529C47.698 51.6212 47.8312 51.5832 47.9899 51.5451C48.1486 51.507 48.3264 51.4752 48.5168 51.4435C48.7071 51.4118 48.9039 51.3927 49.1135 51.3673C49.3355 51.3614 49.5514 51.3486 49.7671 51.3486Z" fill="#F7941D"/>
<path d="M55.4552 56.7058C55.7917 56.7058 56.0329 56.6741 56.1725 56.6043C56.312 56.5408 56.3819 56.4076 56.3819 56.2235C56.3819 56.0774 56.293 55.9442 56.109 55.8362C55.8434 55.6857 55.5663 55.5609 55.2774 55.4618C55.0089 55.3643 54.7465 55.2521 54.4903 55.1253C54.2686 55.0209 54.0697 54.8834 53.8937 54.7128C53.7251 54.5477 53.598 54.3551 53.5128 54.1351C53.4168 53.8749 53.3723 53.6061 53.3795 53.329C53.3795 52.7196 53.608 52.2371 54.0587 51.8818C54.5094 51.5264 55.1314 51.3486 55.9249 51.3486C56.307 51.3485 56.6858 51.3844 57.0611 51.4566C57.3556 51.5076 57.6433 51.5837 57.9243 51.6851L57.6006 53.1196C57.3718 53.0401 57.139 52.9746 56.9024 52.9228C56.6243 52.8618 56.3429 52.8322 56.0581 52.8339C55.4804 52.8339 55.1949 52.9927 55.1949 53.3164C55.1933 53.3848 55.2059 53.4503 55.2329 53.5131C55.2671 53.5809 55.3159 53.6358 55.3789 53.6781C55.4757 53.7438 55.5772 53.8009 55.6836 53.8495C55.8425 53.927 56.0054 53.9948 56.1724 54.0527C56.5171 54.1773 56.8513 54.3256 57.1752 54.4971C57.4083 54.6197 57.6156 54.7763 57.7973 54.9667C57.9458 55.1294 58.0538 55.3157 58.1211 55.5254C58.1889 55.7597 58.2206 55.9986 58.2163 56.2426C58.2163 56.8836 57.9751 57.3724 57.4926 57.6962C57.0102 58.0263 56.331 58.1913 55.4487 58.1913C54.9625 58.2003 54.4822 58.1517 54.0079 58.0453C53.7365 57.9783 53.4698 57.8957 53.208 57.7977L53.5191 56.2997C53.8328 56.423 54.1545 56.5204 54.4839 56.5918C54.8033 56.6674 55.1271 56.7054 55.4552 56.7058Z" fill="#F7941D"/>
<path d="M58.9014 58.0262V48.7271L60.7421 48.4287V51.5454C60.8985 51.496 61.0571 51.4557 61.2182 51.4247C61.4047 51.3875 61.593 51.3684 61.7831 51.3676C62.3099 51.3676 62.748 51.4375 63.0971 51.5835C63.4286 51.7147 63.7079 51.9179 63.935 52.1928C64.1516 52.4735 64.2997 52.7867 64.3793 53.1323C64.4701 53.5313 64.5125 53.9354 64.5062 54.3447V58.0199H62.6655V54.5668C62.6655 53.9701 62.5893 53.5512 62.437 53.3036C62.2847 53.0561 61.9991 52.9355 61.5928 52.9355C61.4367 52.9336 61.2823 52.9484 61.1294 52.9799C60.9987 53.0049 60.8696 53.0367 60.7422 53.0751V58.0199H58.9015V58.0262H58.9014Z" fill="#F7941D"/>
<path d="M47.2227 47.5135C53.1576 43.3495 57.036 36.456 57.036 28.6545C57.036 20.8529 53.1577 13.953 47.2227 9.78906H64.5326V47.5135H47.2227Z" fill="#F7941D"/>
<path d="M10.9833 28.6482C10.9833 36.4494 14.8616 43.3428 20.7965 47.5072H3.46777V9.78906H20.797C14.8616 13.953 10.9833 20.8465 10.9833 28.6482Z" fill="#F7941D"/>
<path d="M52.8467 28.6393C52.8467 28.9477 52.8391 29.256 52.8239 29.5641C52.8088 29.8721 52.7861 30.1796 52.7558 30.4866C52.7257 30.7935 52.6878 31.0995 52.6426 31.4046C52.5973 31.7097 52.5446 32.0135 52.4844 32.316C52.4243 32.6185 52.3568 32.9193 52.2818 33.2185C52.2069 33.5177 52.1245 33.815 52.0351 34.1101C51.9455 34.4053 51.8489 34.6981 51.745 34.9885C51.6411 35.2789 51.5301 35.5666 51.412 35.8515C51.294 36.1364 51.169 36.4183 51.0372 36.6972C50.9053 36.9759 50.7667 37.2515 50.6213 37.5234C50.4759 37.7954 50.324 38.0637 50.1654 38.3283C50.0068 38.5928 49.8418 38.8533 49.6705 39.1098C49.4991 39.3663 49.3216 39.6183 49.1378 39.8661C48.954 40.1137 48.7644 40.3568 48.5687 40.5952C48.3731 40.8337 48.1717 41.0672 47.9646 41.2957C47.7574 41.5241 47.5448 41.7474 47.3267 41.9656C47.1087 42.1837 46.8853 42.3963 46.6567 42.6035C46.4283 42.8106 46.1947 43.012 45.9563 43.2077C45.7179 43.4032 45.4748 43.593 45.2271 43.7767C44.9794 43.9604 44.7272 44.1379 44.4709 44.3093C44.2145 44.4808 43.954 44.6456 43.6894 44.8042C43.4249 44.9627 43.1566 45.1147 42.8846 45.2602C42.6125 45.4055 42.3372 45.5442 42.0582 45.6761C41.7794 45.808 41.4976 45.9328 41.2127 46.0509C40.9277 46.169 40.64 46.2798 40.3496 46.3839C40.0592 46.4878 39.7665 46.5845 39.4713 46.674C39.1761 46.7635 38.879 46.8457 38.5798 46.9206C38.2806 46.9956 37.9797 47.0632 37.6773 47.1234C37.3747 47.1835 37.0709 47.2362 36.7659 47.2815C36.4607 47.3267 36.1547 47.3645 35.8477 47.3948C35.5409 47.4249 35.2332 47.4476 34.9252 47.4628C34.6172 47.4779 34.309 47.4855 34.0005 47.4855C33.692 47.4855 33.3838 47.4779 33.0757 47.4628C32.7677 47.4476 32.4602 47.4249 32.1532 47.3948C31.8463 47.3645 31.5402 47.3267 31.2351 47.2815C30.93 47.2362 30.6263 47.1835 30.3237 47.1234C30.0211 47.0632 29.7202 46.9956 29.4211 46.9206C29.122 46.8457 28.8248 46.7635 28.5296 46.674C28.2344 46.5845 27.9417 46.4878 27.6513 46.3839C27.3609 46.2798 27.0733 46.169 26.7882 46.0509C26.5033 45.9328 26.2215 45.808 25.9427 45.6761C25.6639 45.5442 25.3884 45.4055 25.1164 45.2602C24.8444 45.1147 24.5761 44.9627 24.3115 44.8042C24.047 44.6456 23.7865 44.4807 23.53 44.3093C23.2736 44.1379 23.0216 43.9605 22.7738 43.7767C22.5261 43.593 22.283 43.4032 22.0446 43.2077C21.8061 43.0119 21.5726 42.8105 21.3442 42.6035C21.1157 42.3963 20.8924 42.1838 20.6742 41.9656C20.4561 41.7475 20.2435 41.5242 20.0364 41.2957C19.8291 41.0672 19.6278 40.8336 19.4322 40.5952C19.2365 40.3568 19.0469 40.1137 18.8631 39.8661C18.6793 39.6183 18.5019 39.3662 18.3305 39.1098C18.159 38.8532 17.9941 38.5928 17.8356 38.3283C17.677 38.0638 17.5251 37.7954 17.3797 37.5234C17.2342 37.2515 17.0956 36.976 16.9637 36.6972C16.8319 36.4183 16.7069 36.1363 16.5889 35.8515C16.4708 35.5665 16.3599 35.2789 16.256 34.9885C16.152 34.6981 16.0554 34.4053 15.9658 34.1101C15.8763 33.815 15.794 33.5177 15.7191 33.2185C15.6442 32.9193 15.5766 32.6185 15.5165 32.316C15.4563 32.0135 15.4035 31.7097 15.3584 31.4046C15.3131 31.0996 15.2753 30.7935 15.2451 30.4866C15.2149 30.1796 15.1922 29.8721 15.1771 29.5641C15.1619 29.2559 15.1543 28.9477 15.1543 28.6393C15.1543 28.3309 15.1619 28.0227 15.1771 27.7145C15.1922 27.4065 15.2148 27.099 15.2451 26.792C15.2753 26.4851 15.3131 26.1791 15.3584 25.8739C15.4035 25.5688 15.4563 25.265 15.5165 24.9626C15.5766 24.66 15.6442 24.3592 15.7191 24.06C15.7941 23.7608 15.8764 23.4636 15.9658 23.1685C16.0554 22.8734 16.152 22.5805 16.256 22.2902C16.3599 21.9998 16.4708 21.7121 16.5889 21.4271C16.7069 21.1421 16.8319 20.8603 16.9637 20.5814C17.0956 20.3026 17.2342 20.0271 17.3797 19.7551C17.5251 19.4831 17.677 19.2149 17.8356 18.9503C17.9941 18.6857 18.1591 18.4252 18.3305 18.1688C18.5019 17.9123 18.6793 17.6603 18.8631 17.4125C19.0469 17.1648 19.2366 16.9217 19.4322 16.6833C19.6278 16.4449 19.8292 16.2114 20.0364 15.9829C20.2435 15.7544 20.4561 15.5311 20.6742 15.313C20.8923 15.0948 21.1156 14.8823 21.3442 14.6751C21.5726 14.468 21.8062 14.2665 22.0446 14.0709C22.2831 13.8753 22.5261 13.6855 22.7738 13.5019C23.0216 13.3181 23.2737 13.1406 23.53 12.9692C23.7866 12.7979 24.047 12.6329 24.3115 12.4744C24.576 12.3158 24.8444 12.1638 25.1164 12.0184C25.3884 11.873 25.6638 11.7344 25.9427 11.6024C26.2215 11.4705 26.5034 11.3457 26.7882 11.2276C27.0733 11.1095 27.3609 10.9986 27.6513 10.8947C27.9417 10.7907 28.2344 10.6941 28.5296 10.6045C28.8248 10.5149 29.122 10.4327 29.4211 10.3577C29.7203 10.2828 30.0212 10.2152 30.3237 10.1551C30.6263 10.0949 30.93 10.0422 31.2351 9.99697C31.5402 9.95166 31.8462 9.91392 32.1532 9.88366C32.4601 9.85349 32.7677 9.83079 33.0757 9.81566C33.3838 9.80053 33.692 9.79297 34.0005 9.79297C34.309 9.79297 34.6172 9.80053 34.9252 9.81566C35.2332 9.83079 35.5408 9.85349 35.8477 9.88366C36.1546 9.91392 36.4607 9.95166 36.7659 9.99697C37.0709 10.0422 37.3747 10.0949 37.6773 10.1551C37.9798 10.2152 38.2807 10.2828 38.5798 10.3577C38.8791 10.4327 39.1762 10.5149 39.4713 10.6045C39.7665 10.694 40.0592 10.7907 40.3496 10.8947C40.64 10.9985 40.9277 11.1095 41.2127 11.2276C41.4976 11.3457 41.7794 11.4705 42.0582 11.6024C42.3371 11.7343 42.6125 11.8729 42.8845 12.0184C43.1566 12.1638 43.4248 12.3158 43.6894 12.4744C43.954 12.6329 44.2145 12.7979 44.4709 12.9692C44.7273 13.1406 44.9794 13.3181 45.2271 13.5019C45.4748 13.6856 45.7179 13.8753 45.9563 14.0709C46.1948 14.2665 46.4283 14.468 46.6567 14.6751C46.8852 14.8823 47.1086 15.0948 47.3267 15.313C47.5448 15.5311 47.7574 15.7544 47.9646 15.9829C48.1718 16.2114 48.3731 16.4449 48.5687 16.6833C48.7645 16.9217 48.954 17.1648 49.1378 17.4125C49.3215 17.6603 49.4991 17.9123 49.6705 18.1688C49.8419 18.4252 50.0068 18.6858 50.1654 18.9503C50.324 19.2148 50.4759 19.4831 50.6213 19.7551C50.7667 20.0271 50.9053 20.3025 51.0372 20.5814C51.169 20.8602 51.294 21.1421 51.412 21.4271C51.5301 21.7121 51.6411 21.9997 51.745 22.2902C51.8489 22.5806 51.9455 22.8734 52.0351 23.1685C52.1246 23.4637 52.2069 23.7608 52.2818 24.06C52.3568 24.3592 52.4243 24.66 52.4844 24.9626C52.5446 25.2651 52.5973 25.5688 52.6426 25.8739C52.6878 26.179 52.7257 26.485 52.7558 26.792C52.786 27.099 52.8088 27.4065 52.8239 27.7145C52.8391 28.0227 52.8467 28.3309 52.8467 28.6393Z" fill="#F7941D"/>
<path d="M38.8948 30.3012L38.9001 30.3109L38.9011 30.3126C38.9029 30.3241 38.9058 30.3331 38.9078 30.3443L38.9087 30.346L38.9096 30.3476L38.9106 30.3493L38.9114 30.3509C38.9509 30.5484 38.9569 30.7468 38.9293 30.9462C38.9016 31.1456 38.842 31.3349 38.7502 31.5141L38.7322 31.5468L38.7236 31.5619L38.7172 31.5736L38.7141 31.5795L38.7087 31.5887L38.7055 31.5946L38.7 31.6038L38.6969 31.6096L38.6898 31.6197L38.6867 31.6256L38.6796 31.6357L38.6765 31.6416L38.6694 31.6517L38.6663 31.6576L38.6592 31.6677L38.6562 31.6735L38.649 31.6837L38.6459 31.6895L38.6388 31.6996L38.6356 31.7054L38.6285 31.7155L38.6255 31.7214L38.6183 31.7315L38.6153 31.7373L38.6081 31.7474L38.6051 31.7532L38.5962 31.7642L38.5931 31.77L38.5843 31.781L38.5812 31.7869L38.5734 31.7995L38.5702 31.8053L38.5623 31.818L38.5592 31.8238L38.5514 31.8365L38.5466 31.8432L38.5386 31.8559L38.5339 31.8626L38.5244 31.876L38.5196 31.8827L38.5101 31.8962L38.5054 31.903L38.4958 31.9164L38.491 31.9231L38.4814 31.9366L38.4766 31.9433L38.4671 31.9568L38.4591 31.9654L38.4441 31.9839C37.9961 32.5559 37.2736 33.0265 36.3959 33.2517C35.8425 33.3947 34.1703 33.832 33.7634 33.9358L32.625 29.5061C33.0312 29.4006 34.7078 28.9797 35.2614 28.8368C36.1388 28.6115 37.0005 28.6754 37.6664 28.9598L37.6881 28.969L37.6991 28.9736L37.7149 28.98L37.7224 28.9822L37.7366 28.9892L37.7441 28.9915L37.7584 28.9984L37.7659 29.0006L37.7801 29.0077L37.7859 29.0108L37.8 29.0178L37.8058 29.021L37.82 29.0279L37.8259 29.0311L37.8401 29.038L37.8459 29.0412L37.8577 29.0475L37.8635 29.0506L37.8753 29.057L37.8811 29.0601L37.8929 29.0665L37.8986 29.0697L37.9104 29.076L37.9162 29.0792L37.928 29.0856L37.9338 29.0887L37.9456 29.0951L37.9513 29.0981L37.9632 29.1045L37.9689 29.1077L37.9808 29.114L37.9865 29.1171L37.9983 29.1235L38.0041 29.1266L38.0142 29.1337L38.02 29.1368L38.0301 29.1439L38.0359 29.147L38.046 29.1541L38.0518 29.1572L38.0618 29.1643L38.0677 29.1674L38.0777 29.1745L38.0836 29.1776L38.0928 29.183L38.0986 29.1862L38.1087 29.1932L38.1221 29.2028C38.1322 29.2099 38.144 29.2162 38.1539 29.2233C38.3204 29.3362 38.4638 29.4734 38.5842 29.6348C38.7044 29.7962 38.7949 29.9729 38.8554 30.1648L38.859 30.1712C38.8625 30.1818 38.8653 30.1908 38.8688 30.2013L38.8698 30.203L38.8751 30.2127C38.8788 30.2274 38.8826 30.2422 38.8873 30.2586C38.8954 30.2621 38.8967 30.2802 38.8942 30.3027L38.8948 30.3012ZM31.0549 23.4C31.397 23.3121 32.8119 22.9568 33.2785 22.8355C34.0202 22.6457 34.7511 22.7193 35.3218 22.9942L35.3408 23.0027L35.3492 23.0065L35.3611 23.0129L35.3668 23.016L35.3787 23.0224L35.3844 23.0255L35.3962 23.0318L35.402 23.035L35.4138 23.0414L35.4196 23.0445L35.4314 23.0509L35.4371 23.054L35.4489 23.0604L35.4547 23.0636L35.4665 23.0699L35.4723 23.0731L35.4841 23.0794L35.4899 23.0826L35.5016 23.0889L35.5075 23.092L35.5175 23.0991L35.5234 23.1022L35.5334 23.1093L35.5393 23.1124L35.5492 23.1195L35.5552 23.1226L35.5644 23.1281L35.5702 23.1312L35.5794 23.1367L35.5852 23.1399L35.5944 23.1454L35.6003 23.1485L35.6095 23.154L35.6153 23.1571L35.6246 23.1626L35.6288 23.1666L35.638 23.172L35.6415 23.1744L35.6507 23.1798L35.654 23.1822L35.6633 23.1877L35.6666 23.1901L35.6758 23.1956L35.6792 23.1979L35.6869 23.2043L35.6902 23.2066L35.6994 23.2121L35.7121 23.22C35.7213 23.2255 35.7298 23.2336 35.7391 23.239C35.8851 23.3492 36.0105 23.4795 36.1152 23.6295C36.22 23.7795 36.2989 23.9421 36.3521 24.1172L36.3546 24.1221C36.3573 24.1311 36.3609 24.1417 36.3636 24.1507L36.3646 24.1524L36.3699 24.1621C36.3737 24.1768 36.3782 24.189 36.382 24.2038C36.3862 24.2189 36.3887 24.2343 36.39 24.2498L36.3953 24.2595L36.3962 24.2612C36.3976 24.2713 36.4001 24.2811 36.4038 24.2907L36.4062 24.2955C36.4437 24.4746 36.4528 24.655 36.4332 24.8367C36.4137 25.0186 36.3666 25.193 36.292 25.3599L36.2789 25.39L36.2718 25.4042L36.2664 25.4135L36.2649 25.4185L36.261 25.4269L36.2594 25.4319L36.2539 25.4412L36.2524 25.4462L36.2468 25.4555L36.2453 25.4605L36.2399 25.4697L36.2383 25.4748L36.2328 25.484L36.2313 25.489L36.2258 25.4983L36.2242 25.5033L36.2187 25.5126L36.2156 25.5184L36.2101 25.5276L36.2071 25.5335L36.2016 25.5427L36.1984 25.5485L36.193 25.5578L36.1899 25.5636L36.1828 25.5737L36.1796 25.5795L36.1725 25.5896L36.1694 25.5954L36.1623 25.6055L36.1592 25.6113L36.1521 25.6214L36.149 25.6272L36.1419 25.6373L36.1388 25.6431L36.1317 25.6533L36.1286 25.6591L36.1216 25.6691L36.1183 25.675L36.1114 25.6851L36.1081 25.691L36.0994 25.702L36.0962 25.7078L36.0875 25.7188L36.0843 25.7247L36.0756 25.7356L36.0725 25.7415L36.0637 25.7524L36.0574 25.7601L36.0455 25.777C35.6767 26.2938 35.0721 26.7114 34.3304 26.9012C33.8629 27.021 32.4515 27.3911 32.1096 27.4789L31.0549 23.4ZM42.8398 29.422L42.8293 29.4025L42.8275 29.3993C42.8212 29.3797 42.8163 29.3592 42.8091 29.3379L42.8082 29.3363L42.8073 29.3346L42.8065 29.3329L42.8055 29.3312L42.8046 29.3296L42.8037 29.3279L42.8019 29.3247C42.6913 28.9547 42.5288 28.6093 42.3142 28.2884C42.0997 27.9674 41.8426 27.6851 41.5432 27.4415L41.5423 27.4398C41.5246 27.4263 41.506 27.4112 41.4881 27.3977L41.4637 27.3795L41.446 27.3661L41.4383 27.3597L41.4215 27.3478L41.4139 27.3414L41.397 27.3295L41.3893 27.3232L41.3717 27.3097L41.3625 27.3042L41.3446 27.2908L41.3355 27.2853L41.3164 27.2726L41.3072 27.2671L41.2959 27.2501L41.2858 27.243L41.2668 27.2303L41.2567 27.2231L41.2376 27.2105L41.2275 27.2033L41.2085 27.1906L41.1983 27.1835L41.1782 27.1693L41.1681 27.1622L41.1462 27.1488L41.1361 27.1417L41.1143 27.1283L41.1043 27.1212L41.0823 27.1079L41.0723 27.1008L41.0504 27.0874L41.0386 27.081L41.0168 27.0677L41.0051 27.0613L40.9816 27.0486L40.9698 27.0422L40.9455 27.0281L40.9337 27.0217L40.9093 27.0076L40.8975 27.0013L40.8732 26.9872L40.8606 26.9792L40.8362 26.9651L40.8235 26.9572L40.7975 26.944L40.7849 26.9361L40.7589 26.9228L40.7413 26.9135L40.7405 26.9118C40.7278 26.9039 40.7145 26.8985 40.7019 26.8906C40.1591 26.6117 39.5855 26.4304 38.981 26.3468C39.1495 26.1657 39.3033 25.9727 39.4421 25.7678L39.4642 25.735L39.4659 25.7342L39.4761 25.7182L39.4894 25.6964L39.4966 25.6863L39.5099 25.6645L39.517 25.6544L39.5304 25.6325L39.5375 25.6224L39.5509 25.6005L39.558 25.5904L39.5714 25.5686L39.5785 25.5585L39.5902 25.5375L39.5974 25.5274L39.6092 25.5064L39.6146 25.4971L39.6264 25.4761L39.632 25.4668L39.6437 25.4458L39.6491 25.4366L39.6592 25.4164L39.6646 25.4072L39.6747 25.3871L39.6802 25.3778L39.6904 25.3578L39.6958 25.3485L39.7067 25.3301L39.7122 25.3208L39.7232 25.3024L39.7287 25.2931L39.738 25.2755L39.7435 25.2662L39.7529 25.2486L39.7567 25.2403L39.7662 25.2227L39.77 25.2143L39.7794 25.1967L39.7832 25.1884L39.7926 25.1708L39.7965 25.1625L39.8043 25.1457L39.8081 25.1373L39.8159 25.1206L39.8197 25.1121L39.8276 25.0954L39.8314 25.087L39.84 25.0679L39.8516 25.0426C39.8601 25.0236 39.867 25.005 39.8754 24.9855L39.8772 24.9846C40.0063 24.6663 40.0856 24.3361 40.1152 23.9939C40.1449 23.6517 40.1234 23.3128 40.0508 22.977L40.05 22.9754L40.0482 22.9722L40.0473 22.9705L40.0463 22.9688L40.0455 22.9672L40.0446 22.9655L40.0436 22.9638L40.0428 22.9621C40.0389 22.9431 40.035 22.9244 40.0296 22.9065V22.9028L40.0287 22.9012L40.0278 22.8995L40.0269 22.8979L40.0278 22.8995L40.0198 22.8849C40.0142 22.8587 40.0083 22.8325 40.0002 22.8055C39.9945 22.7792 39.9862 22.7523 39.9789 22.7269L39.9693 22.709L39.9675 22.7058C39.9621 22.6879 39.9566 22.6697 39.9511 22.6518L39.9501 22.6501L39.9493 22.6484L39.9483 22.6467L39.9475 22.6451L39.9466 22.6434L39.9456 22.6417L39.9448 22.64C39.8466 22.3108 39.702 22.0034 39.5112 21.7177C39.3203 21.4321 39.0915 21.181 38.8251 20.9642L38.8241 20.9625C38.8089 20.9499 38.792 20.9379 38.7768 20.9252L38.7557 20.9093L38.739 20.8975L38.7313 20.8911L38.7169 20.8801L38.7092 20.8738L38.6949 20.8626L38.6873 20.8564L38.6712 20.8462L38.6636 20.8398L38.6469 20.828L38.6393 20.8216L38.6223 20.8098L38.6148 20.8034L38.5979 20.7916L38.5886 20.7861L38.5718 20.7742L38.5625 20.7687L38.5457 20.7568L38.5364 20.7514L38.518 20.7404L38.5087 20.7349L38.4902 20.7239L38.481 20.7184L38.4625 20.7074L38.4532 20.7019L38.4348 20.6909L38.4255 20.6854L38.4061 20.6728L38.3969 20.6672L38.3775 20.6546L38.3683 20.649L38.3473 20.6373L38.3381 20.6318L38.3171 20.6201L38.307 20.6129L38.286 20.6012L38.2759 20.5941L38.255 20.5824L38.2449 20.5753L38.2231 20.5619L38.2113 20.5555L38.1888 20.5416L38.1771 20.5352L38.1536 20.5226L38.1417 20.5162L38.1184 20.5035L38.1016 20.4958L38.1007 20.4942L38.0655 20.4751C37.0363 19.9402 35.7288 19.7792 34.4132 20.1167L34.071 20.2045L33.2055 16.834L31.1996 17.3481L32.0623 20.7053L30.4574 21.1193L29.5942 17.7727L27.5883 18.2869L28.451 21.6441L24.3145 22.7085L24.8649 24.8476L26.5316 24.4196C26.5971 24.4026 26.6639 24.3924 26.7314 24.3885C26.7991 24.3848 26.8664 24.3875 26.9335 24.397C27.0005 24.4065 27.0661 24.4225 27.13 24.4449C27.1939 24.4672 27.255 24.4956 27.3133 24.5301C27.3716 24.5645 27.426 24.6043 27.4766 24.6494C27.5271 24.6945 27.5727 24.7442 27.6134 24.7983C27.6541 24.8525 27.6891 24.91 27.7185 24.971C27.7479 25.032 27.771 25.0953 27.7879 25.1609L27.7884 25.163L30.1019 34.1649C30.1132 34.2087 30.12 34.253 30.1224 34.2982C30.1249 34.3433 30.1229 34.3883 30.1166 34.433C30.1103 34.4777 30.0996 34.5215 30.0846 34.5641C30.0696 34.6067 30.0508 34.6474 30.0277 34.6864C30.0047 34.7252 29.9782 34.7616 29.948 34.7953C29.9179 34.8289 29.8848 34.8594 29.8487 34.8865C29.8125 34.9137 29.7742 34.9371 29.7335 34.9566C29.6927 34.9762 29.6505 34.9917 29.6068 35.0031L28.1463 35.3788L28.2322 37.9229L32.3638 36.8612L33.2376 40.2124L35.2424 39.6965L34.3791 36.3376L35.9836 35.9262L36.8473 39.285L38.8521 38.7692L37.9856 35.3972C38.3253 35.3084 38.6176 35.2329 38.8197 35.1806C40.3022 34.7993 41.5011 33.9301 42.2265 32.8463L42.251 32.8102L42.2527 32.8093L42.2646 32.7924L42.2804 32.7671L42.2883 32.7544L42.304 32.7291L42.312 32.7163L42.326 32.6919L42.3339 32.6793L42.348 32.6549L42.3543 32.6431L42.3685 32.6187L42.3748 32.607L42.3889 32.5826L42.3952 32.5709L42.4078 32.5474L42.4142 32.5356L42.4269 32.5122L42.4332 32.5004L42.4466 32.4786L42.4529 32.4669L42.4662 32.445L42.4726 32.4333L42.4844 32.4123L42.4907 32.4006L42.5024 32.3796L42.5087 32.3678L42.5205 32.3468L42.5253 32.336L42.537 32.315L42.5417 32.3042L42.5517 32.2841L42.5572 32.2748L42.5673 32.2547L42.5727 32.2455L42.5828 32.2254L42.5884 32.2162L42.5984 32.196L42.6038 32.1868L42.6139 32.1667L42.6195 32.1575L42.6295 32.1374L42.635 32.1281L42.6436 32.1091L42.649 32.0998L42.6575 32.0808L42.6614 32.0725L42.6706 32.0507L42.6833 32.0231C42.6925 32.0014 42.7023 31.9812 42.7102 31.9603L42.711 31.9579C42.8561 31.5999 42.9454 31.2284 42.9788 30.8436C43.0122 30.4587 42.9881 30.0775 42.9068 29.6998L42.906 29.6981L42.9051 29.6964L42.9042 29.6948L42.9032 29.6931L42.9023 29.6915L42.9014 29.6898L42.9005 29.6882L42.8996 29.6865C42.8949 29.666 42.8902 29.6456 42.8854 29.625V29.6209L42.8846 29.6193L42.8836 29.6176L42.8826 29.6159L42.8818 29.6143L42.8808 29.6126L42.8799 29.6109L42.8791 29.6092L42.8781 29.6076L42.8773 29.606L42.8763 29.6043L42.8754 29.6026L42.8745 29.601L42.8736 29.5993L42.8701 29.5929C42.8626 29.5635 42.8568 29.5331 42.8476 29.5045C42.8443 29.4772 42.8412 29.4497 42.8398 29.422Z" fill="white"/>
</svg>
