<svg width="44" height="44" viewBox="0 0 44 44" fill="none" xmlns="http://www.w3.org/2000/svg">
<g clip-path="url(#clip0)">
<path d="M16.1328 28.3205L18.3677 15.749H21.8598L19.6947 28.3205H16.1328Z" fill="#3C58BF"/>
<path d="M16.1328 28.3205L18.9963 15.749H21.8598L19.6947 28.3205H16.1328Z" fill="#293688"/>
<path d="M32.3361 15.8888C31.6377 15.6094 30.5202 15.3301 29.1234 15.3301C25.6313 15.3301 23.1171 17.0761 23.1171 19.5904C23.1171 21.4761 24.8631 22.4539 26.2599 23.0825C27.6567 23.711 28.0758 24.1301 28.0758 24.6888C28.0758 25.5269 26.9583 25.946 25.9806 25.946C24.5837 25.946 23.8155 25.7364 22.6282 25.2475L22.1393 25.038L21.6504 27.9015C22.4885 28.2507 24.025 28.5999 25.6313 28.5999C29.3329 28.5999 31.7774 26.8539 31.7774 24.1999C31.7774 22.7333 30.8694 21.6158 28.7742 20.7079C27.5171 20.0793 26.7488 19.7301 26.7488 19.1015C26.7488 18.5428 27.3774 17.984 28.7742 17.984C29.9615 17.984 30.7996 18.1936 31.4282 18.4729L31.7774 18.6126L32.3361 15.8888Z" fill="#3C58BF"/>
<path d="M32.3361 15.8888C31.6377 15.6094 30.5202 15.3301 29.1234 15.3301C25.6313 15.3301 23.7456 17.0761 23.7456 19.5904C23.7456 21.4761 24.8631 22.4539 26.2599 23.0825C27.6567 23.711 28.0758 24.1301 28.0758 24.6888C28.0758 25.5269 26.9583 25.946 25.9806 25.946C24.5837 25.946 23.8155 25.7364 22.6282 25.2475L22.1393 25.038L21.6504 27.9015C22.4885 28.2507 24.025 28.5999 25.6313 28.5999C29.3329 28.5999 31.7774 26.8539 31.7774 24.1999C31.7774 22.7333 30.8694 21.6158 28.7742 20.7079C27.5171 20.0793 26.7488 19.7301 26.7488 19.1015C26.7488 18.5428 27.3774 17.984 28.7742 17.984C29.9615 17.984 30.7996 18.1936 31.4282 18.4729L31.7774 18.6126L32.3361 15.8888Z" fill="#293688"/>
<path d="M38.343 15.749C37.5049 15.749 36.8764 15.8189 36.5272 16.657L31.2891 28.3205H35.0605L35.7589 26.2252H40.2287L40.6478 28.3205H44.0002L41.0668 15.749H38.343ZM36.7367 24.13C36.9462 23.5014 38.1335 20.4284 38.1335 20.4284C38.1335 20.4284 38.4129 19.6601 38.6224 19.1712L38.8319 20.3585C38.8319 20.3585 39.5303 23.5014 39.67 24.1998H36.7367V24.13Z" fill="#3C58BF"/>
<path d="M39.1811 15.749C38.343 15.749 37.7145 15.8189 37.3653 16.657L31.2891 28.3205H35.0605L35.7589 26.2252H40.2287L40.6478 28.3205H44.0002L41.0668 15.749H39.1811ZM36.7367 24.13C37.016 23.4316 38.1335 20.4284 38.1335 20.4284C38.1335 20.4284 38.4129 19.6601 38.6224 19.1712L38.8319 20.3585C38.8319 20.3585 39.5303 23.5014 39.67 24.1998H36.7367V24.13Z" fill="#293688"/>
<path d="M9.70782 24.5495L9.35862 22.7336C8.73004 20.6384 6.70465 18.3336 4.46973 17.2162L7.61258 28.3907H11.384L17.0412 15.8193H13.2697L9.70782 24.5495Z" fill="#3C58BF"/>
<path d="M9.70782 24.5495L9.35862 22.7336C8.73004 20.6384 6.70465 18.3336 4.46973 17.2162L7.61258 28.3907H11.384L17.0412 15.8193H13.9681L9.70782 24.5495Z" fill="#293688"/>
<path d="M0 15.749L0.628571 15.8887C5.09841 16.9363 8.17143 19.5903 9.35873 22.7331L8.10159 16.7966C7.89206 15.9585 7.26349 15.749 6.49524 15.749H0Z" fill="#FFBC00"/>
<path d="M0 15.749C4.46984 16.7966 8.17143 19.5205 9.35873 22.6633L8.17143 17.7046C7.9619 16.8665 7.26349 16.3776 6.49524 16.3776L0 15.749Z" fill="#F7981D"/>
<path d="M0 15.749C4.46984 16.7966 8.17143 19.5205 9.35873 22.6633L8.52063 19.9395C8.31111 19.1014 8.03175 18.2633 7.05397 17.9141L0 15.749Z" fill="#ED7C00"/>
<path d="M13.2004 24.1306L10.8258 21.756L9.70829 24.41L9.42893 22.6639C8.80036 20.5687 6.77496 18.2639 4.54004 17.1465L7.6829 28.3211H11.4543L13.2004 24.1306Z" fill="#051244"/>
<path d="M19.6957 28.3211L16.6925 25.248L16.1338 28.3211H19.6957Z" fill="#051244"/>
<path d="M27.7276 23.9912C28.0069 24.2706 28.1466 24.4801 28.0768 24.7595C28.0768 25.5976 26.9593 26.0166 25.9815 26.0166C24.5847 26.0166 23.8164 25.8071 22.6291 25.3182L22.1403 25.1087L21.6514 27.9722C22.4895 28.3214 24.026 28.6706 25.6323 28.6706C27.8672 28.6706 29.6831 28.042 30.7307 26.9245L27.7276 23.9912Z" fill="#051244"/>
<path d="M31.7783 28.3211H35.0609L35.7593 26.2258H40.2291L40.6482 28.3211H44.0005L42.8132 23.2227L38.6228 19.1719L38.8323 20.2893C38.8323 20.2893 39.5307 23.4322 39.6704 24.1306H36.7371C37.0164 23.4322 38.1339 20.429 38.1339 20.429C38.1339 20.429 38.4132 19.6608 38.6228 19.1719" fill="#051244"/>
</g>
<defs>
<clipPath id="clip0">
<rect width="44" height="44" fill="white"/>
</clipPath>
</defs>
</svg>
